<svg xmlns="http://www.w3.org/2000/svg" id="Layer_1" version="1.1" viewBox="195 132.65 1331.57 605.45">
  <!-- Generator: Adobe Illustrator 29.5.0, SVG Export Plug-In . SVG Version: 2.1.0 Build 137)  -->
  <defs>
    <style>
      .st0 {
        isolation: isolate;
      }
    </style>
  </defs>
  <g>
    <path d="M203.7,563.2l551.8-.3c9.9-.5,12.2,10,2,11.1H204.5c-8.8.4-9-9.7-.7-10.8h-.1Z"/>
    <path d="M1475,565v8.4c-1.2,3.2-18.1,3.9-21.5,3.7-7.5-.6-12.6-3.8-21-3s-11.6,4-18,4.1-11.9-3.2-18.1-4c-12-1.4-19,5.4-30.9,3.9-4.1-.5-6.9-3.4-10.7-4.3-10.4-2.6-18,4.3-28.3,4.4s-13.1-4.1-19-4.2-10.7,3.7-16,4.1c-7.4.5-13.5-3.4-21-3-6.5.3-12.3,4-19,4.1s-15.4-4.1-21.9-4c-7,0-16.3,4.8-24.2,4.8s-14.5-4-20.9-4-15.1,5.1-22,5.1-15.7-5.2-22.9-5-13.8,5.9-21,5.8c-7.4,0-13.7-6.1-20.1-6s-15.9,6.1-24,6.1-11.9-4.1-17-4.1-8.6,2.9-14,3.1c-8.6.4-14.7-3.9-23.1-3-5.5.5-12,4-17.9,3.9s-11.8-3.4-17.1-3.9c-10.7-1-19.9,4-31,3-6-.5-12.8-4.1-18.9-3.9s-14.3,4.8-21.1,4.7-13.6-4.4-20-4.8c-10.2-.7-16.7,5.9-29,4s-8.9-5.4-14.2-5.6c-6.8-.3-16.1,5.6-23.9,5.7s-16.8-6.7-23.5-4.6-6.6,6.4-9.9,2,7.1-11.5,12.4-11.5,14.3,5.1,21,5.1,15-5.4,24-5.1c7.8.3,12.9,5.9,19,6.1,7,.2,13.8-5.2,22-5.1s15.5,4.9,22,5.1,11.4-3.5,17-4c11.2-1.1,19.1,3.6,30,3s13.9-3.5,22-3.1c6.8.3,14,4.1,20,4.1s12.3-4,19-4.1,14.2,4.1,19.1,3.9,5.5-3.1,8.2-3.7c10.5-2.2,17.3,3.9,25.7,3.8,7.8,0,15.9-6.2,24.1-6.1s13.2,5.9,19,6.1,12.4-4.5,18.9-5.1c10.3-.9,16.9,4.3,25,4.1s15.1-5,22-5.1c6.4,0,14.6,4,21,4.1,6.7,0,14.3-3.6,21-4.1,9.8-.7,17.1,3.6,26.1,3.1,7.3-.4,13.1-4.5,21-4.1s11.6,3.7,18,3.1,6.8-3.7,11.9-4.1c9.3-.7,16,4.7,25.1,4.1s14.6-5.9,24-5c6.1.6,11.3,5.7,17.1,5.9s12-4.3,17.9-4.9c10.7-1.1,17.8,4.3,27,4.1s11.4-3.5,17-4.1c8.2-.8,13.7,2.3,21,3s15.4-.5,22.5-3h.1Z"/>
    <path d="M1290.8,726.3c1.3,1.2,3.4,8.7,1.7,8.8-5.6-.3-12.8-3.8-18.1-3.9s-17,4.8-25,4.8-14.5-4-20.9-4-15.1,5.1-22,5.1-15.7-5.2-22.9-5-13.8,5.9-21,5.8c-7.4,0-13.7-6.1-20.1-6-7.2.2-15.9,6.1-24,6.1s-16.4-6.7-23.1-4.1-3.6,3.6-6.6,3.6c-5.4,0-4.2-5.9-.9-9,9.5-9,22.1.7,31.5.6s15.9-6.2,24.1-6.1,13.2,5.9,19,6.1c6,.2,12.4-4.5,18.9-5.1,10.3-.9,16,3.9,24,4.1s15.8-5,23-5.1c6.1,0,14,3.8,20.1,4s14.9-3.5,21.9-4.1,17.6.8,20.3,3.3h0Z"/>
    <path d="M392,735h-158v-7.4c.1,0,1.6-1.5,1.6-1.5l79.9-.2c11.4.7,23.4,0,34.9,0,11.6,1.6,28.2-2,39,0s2,.3,2.4,1.6v7.4h.2Z"/>
    <path d="M1485,734c-8.8,2.9-14.4,5.1-23.5,2.1s-5.8-3.3-8.2-3.8c-8.6-1.8-18.7,5.8-27.8,5.8s-13.8-4.8-19.1-4.9-11.6,7-14.4.5c6.4-16.8,24-4.4,34.5-4.5s15.9-6.2,24.1-6.1,12.6,5.5,18.1,6c4.8.4,8.4-2.1,12.8-2.9l3.6,7.9h0Z"/>
    <path d="M656,735h-79v-7.9c1.8-.8,3.6-1.2,5.5-1.2,19.4-.8,39.6.6,59,.9,2.9,0,13.2-2.8,14.4.8v7.4h0Z"/>
  </g>
  <g>
    <path d="M228.1,351l2.2-16.9c-1.6-.8-8.1-4.3-8.5-5.8s-.1-1.8,0-2.3c.2-1.8,1.8-5.5,2.5-7.4,1.5-4.2,5.2-11.4,5.9-15.4s0-3,.3-4.5,1.9-2.3,2.1-3.3c.5-1.9,0-6.3.3-8.7s1.5-4.8,3.3-6.9,1.5-1.2,1.5-1.3c.3-.4,0-1.2.4-2s2.4-2.8,3.3-3.6c4.1-3.9,9.5-7.9,14.3-11,1.8-1.2,4.5-2.4,6.1-3.6s.5-.3.4-.7c-.5,0-1-.2-1.4-.4-4.1-1.7-11.5-4.6-14.4-7.8s-1.2-1.9-1.6-2.4-6.3-1.3-7.6-1.6c-5-1-10-2.1-15-3.3-2.5-1.6,3.9-3.5,4.7-3.8s.5-.3.2-.5l-21-5.1c-.5-.7-.2-1.4,0-2.1,1-2.4,2.9-5.5,4.3-7.8,2.6-4.2,5.7-8.1,9.1-11.7l-8.2,1.3c-2.6-1.1.5-3.6,1.7-4.7,2.1-2,4.7-3.7,7.3-5,.6-.4-.2-.5-.4-.7-4.2-4-9.4-8.5-14-12.1s-7.1-4.5-9.2-6.6-.9-1.1-.8-1.5c.2-.9,3.8-3.4,4.7-4,7-4.6,15-7.9,23.1-9.8s5.7-1.3,8.6-1.3c0-.4-.1-.5-.3-.7-3-3.3-13-7.8-1.4-7.3s5,.6,7.4,1.1,3.2,1.1,4.8,1.1c13.5-7.9,29.4-12.9,44.9-8s1.7,1,2.8.9c.4-.4-2.9-6.5-2.5-7.8s2.2,0,3.1.4c4.9,2.6,8.9,6.6,11,11.8,4-.5,7.8-.2,11.4,1.4.2,0,.3-.3.4-.5,1.3-3,2-7.1,3.3-10.4s5.8-12.9,9.1-15.5,3.8,4.8,4.1,6.7c1.2,9,.6,19.6-1,28.5s-1.4,6.6-2.3,9.9c3,0,5.6-.3,8.6,0,5.5.6,10.7,2.6,15.4,5.5s3.1,2.5,4.1,2.6,4.6-2,5.8-2.5c10.8-4.3,21.6-5.9,33.3-5.3s9.7,1,10.9,2.1c1.9,1.8-1.7,4.4-3.1,5.4-7.4,5.9-17.5,9.7-26.6,12s-8.7,1.9-13.2,2.2c-.3.4.4,4.6.4,5.6,0,8.7-3.6,15.9-5.1,24s.1,11.4.6,17.4,0,4.5.2,6.7c.6-.4,1.8-.3,1.9-1.1,0-1.9-2.6-10.8-1.8-11.9l9.4-3-4.5-22.5c-.3-3.2.3-3.1,2.9-4.4,9.1-4.4,23.2-8.3,33.2-10.1s12.3-2.2,16.2-1.9.5,4.7.1,6.1c-1.8,7-4.7,17.6-7.7,24s-2.4,2.3-5.8,2.4c-5.8.3-11.7.2-17.5.5s-2.8-.1-4.2.1c-.2.2-.2.5-.2.7-.5,3.9.5,8.8,0,12.8s-1.2,1.7-2.6,1.9c-2.8.5-5.9.5-8.8,1-.5.6.9,8.8,0,10s-9.8,2.4-11.5,3.2c-2.1,7.9-7.5,15.7-15.7,18l2.6,12.3c.4.8,1.4,1.1,2,1.7,1.7,1.7,1,4.7,1.7,6.9,1.5,4.7,6.2,11.7,8.5,16.5s3,6.1,2.8,7.2-4.1,4.4-5.4,5.3l6.9,20.7h-3.1l-6.5-18.9c-5.8,4.2-12.6,7.1-19.8,8.3l3.5,10.6h-97l1.3-12.8-6.4-2.6-2,15.4h-2.8v.6h0ZM328.3,151.2c-3,1-6,2.7-8.4,4.7s-3.6,3.9-4.5,7.6c-1.5,6.6-1.4,13.2-1.3,19.9l.4.6c.5,0,2.9-2,2.7-.1-1,1.5-2.8,2.6-4,4-4.5,5.4-5,12.3-7.8,18.4,0,.3,1.2.5,1.6.7,4.5,2.7,2.9,11.7-2,13.3v.3c.3,1.5,6.7,8.2,6.5,9-.4,1.7-3.7-1.8-3.9-1.8-4.4,8.7-4.5,19.7-2.6,29.1,1.9,9.4.9,2.5.9,3.5s-.6,1.5-.6,1.8c.1.7,1.4-.3,2,0l.8,1.2,1.5-.7c.8,2.7,1.2-.2,2.2,0s1.1.9,1.1,1.4h.3c.4-1.2,2.2-1.2,2.4-2.3s0-1.2,0-1.8c.7-3.8,1.8-7.5,2.1-11.4s0-6.3.2-6.5c.8-.7,1.4,3.1,1.4,3.4.3,3.1-.2,6.2-.4,9.3,2.9-4.9,5.9-10.4,10.9-13.5.5.3.5.7.2,1.2-3.3,3.5-6.2,7.7-8.4,11.9-2.2,4.2-4,8-3.7,9.2s.4.5.4.8v1.8h1.9l.6,1.4c.5.1.6-.8,1.3-.6,1,.3.6,1.7,1.3,1.6,1.9-1.4,4-2.4,6-3.7,4.6-3.1,8.6-7,12-11.4s1.9-3.6,2.8-3.3c.6.4.4,1,.2,1.6-1.5,3.9-6.1,8.6-9.3,11.3s-3.7,2.7-5.1,3.9-.7.6,0,1c1.9,1.4,4.5,2.3,6.3,3.8s3.1,3.8,4.6,5.7c7.1-2.4,12.2-9.3,13.6-16.5-1.2,0-5.1.2-5-1.5s4.7-4.5,5.9-6l-.2-7.4c-8.8,1.1-5.2-3.6-.7-6.6,0-3.2-.4-5.9.1-9.1.9-5.7,3.4-11.6,4.4-17.4s1-8.4.5-11.7-1.3-.7-1.9-1.4-.3-1.7.7-2c1.5-.5,4.1-.3,5.8-.6,5-.7,10.3-1.7,15.1-3.2s2.5-1,3.9-3c2-3,3.9-6.8,4.4-10.4-12.2,0-23.9,4.1-34.7,9.5l-.5-.2c-1-.9.6-1.9,0-2.5-6.6-4.6-14.7-7.5-22.8-7s-7.1,1.4-8,.7c-.8-2,2.1-1.6,2.8-2.9s1.8-6.5,2.2-8.7c1.2-6.2,1.9-12.7,1.8-18.9v.5h0ZM312.6,164.4c-.5,0-2.9.6-2.8,1.1l2.2,1.5c.4,0,.5-2.1.6-2.6h0ZM302,192.3c-2-1.7-4.4-3.1-6.7-4.3s-3.4-1.9-3.9-1.5c-4,8.6-8.8,16.7-14.6,24.2s-5.9,7.6-7.4,8-1.5-.8-1.8-1.9c-1.2-4.7-.6-9.3-.9-14s.2-.6-.2-.6l-5,7.2c.6.7,3.9,1.4,2.9,2.6-1.1,1.2-5.6-1.5-6.2-1.1.7,1.5,3.3,3.4,1.5,5-2.2-2.4-4-6.1-7.9-4.6s-4.9,7.1-4.7,10.9,1.1,4.3-.3,4.6c-1.7-2.3-1.7-5.8-1.3-8.6s2.1-7.5,5.9-8.5c-3.7-1.4-7.7-1.1-11.6-1.1-.6-.5,2.8-4.5,3.7-4.7,1.7-.4,6.3.7,8.1,1.3,2.6.8,5,2.1,7.6,3-.3-6,.5-12,1.2-18-2.6,2.6-5.4,5.1-8.1,7.7s-2.3,2.6-3.7,3.7-2.3,2-3,1.1.4-7,.7-8.4c-5.1,5.1-8.1,12.9-9.5,20,2,5.6,4.6,11,6.1,16.8,1.4,5.4,1.9,13.8,6.2,17.5s17.7,8.6,23.5,10.3,6,2.3,9.6.7,15.3-9.7,18.4-13,.6-3.1.8-4.9c.5-5.4,2-10.7,4.2-15.6-1.5-2.5-3.3-4.7-4.2-7.6s0-5.9-1.8-9c-2.8-4.7-8.2-5.6-10.7-.2s-.5,2.5-1.3,3.4c-1.9-1.2-.2-4.3.3-5.9l-6.4,3.7c-.5.2-1.4.3-1.4-.5,0-1.4,7.5-7.3,8.9-8.4,2.5-1.8,5.7-3.9,8.6-4.9s4.6.6,6.2,2.6l-9.5,4c.4.5,1.1.3,1.7.5,2.7.9,4.1,2.9,5.7,5.1.6-2.3,4.3-8.6,3.4-10.6s-1.7-2.1-2-2.5c-.5-.5-3.6-2.9-3.1-3.4h2ZM413.9,202.3c-16.7,1.3-33,5.7-48.3,12.3,1.1,6,2.6,11.9,3.7,17.9s1.1,5,1,6.3,0,.7-.3.9c-.3.5-4.8,2-5.7,2.3s-2.4.7-3.5.9l1.7,7.6c.7.6.7-2.3,1.5-2.1l.6,1.9.8-.7.8,1.4.5-4.2,10.8-1.3c.2-.4.2-.8.3-1.3.3-4-.5-9,0-12.8s.3-.9.7-1.2l26.6-1c3.6-8.7,6.1-17.9,8.6-27h.2,0ZM239.3,227.8c-.3-2.2-2.6-6-5.1-4s-1.7,6.7-1,9.1c1.4,4.9,5.1,8.4,9.9,9.8.1-.2-.3-2.4-.5-2.7-.3-.5-2.3-1.3-2.9-2-1-1.1-1.5-2.9-1.2-4.3s1.2-1.8,1.3-2.3c.2-.9-2.6-3.5-3.4-3.4-1.4.1-1,3.1-1.3,4-2-.1-1.1-4.9-.3-5.5,1.7-1.2,3.2.5,4.6,1.2h-.1ZM242.1,237.5c.1-.2-.9-4-1-4.3s-.3-.5-.7-.4c-1,1.9-.3,3.8,1.7,4.7ZM302,252.9l-.6-3.5-2.5,2,3.1,1.5ZM302.4,256c-2-1-4-2-6.3-2.2l-.3,4.7c3.2-.4.8,4.2.2,5.8-2.7,6.4-7.2,13.1-9.5,19.6s-.2.7-.2,1.1c4.3-3.6,7.8-4.4,13.3-3.2s8.9,2.9,13.5,3.9l-3.4-18.7c-.7-1.2-2.4-1.6-3.7-1.2.2-2.2-1.8-.6-2.6-1.8-1.3-1.9.1-2.5,0-4.2s-.8-3.7-1-3.9h0ZM293.5,262.7v-6.4c0-2.1.6-.7-.1-.6-4.4,2.6-9.9,7.8-15.4,7.3s-4-1.4-6.1-1.6c0,1.7.7,3.4.9,5.1s.3,3.5.1,4.4c-.5,2.5-1.9,1.9-2.4-.2l-1.7,3.7c3.5,2.2,8.4,1.7,12.4.8s5.6-1.5,6.9-2.3.5-.3.7-.7c1.2-1.7,2.7-5.3,3.8-7.3s.8-.7.8-2.1h.1ZM259.5,284.7c.3.2.6.4.9.7s1,1.9,1.5,1.1c1.9-6.9,4.3-13.9,8.3-19.8l-.9-5.9c-.2-.3-2.3-1.1-2.7-1.1-.9,0-4.4,1.9-5.4,2.5-5.2,3-11.8,7.6-16.2,11.7s-2.8,2.5-2.4,3c1.9.3,3.8.4,5.7.8,4.6,1.1,7.8,4,11.2,7.1h0ZM336.4,275.9c-.9-1.1-1.6-1.8-2.8-2.6s-3.3-1.9-3.9-2c-.9-.1-2.7,1.9-3.3,2.6-7.2,8.2-11.5,28.5-10.3,39.1s.9,2.2,1.4,3.5c1.5,3.8,2.3,8.5,3.4,12.5s1.8,6.4,2.9,9.5c9.6-.4,18.7-3.7,26.6-9.1s4.3-3,5.4-4.3.4-.4.5-.7-2.7-5.8-3.2-6.8c-1.9-4-7.9-13.7-8.4-17.4s.1-2.6-.4-3.6-4.2-3.1-5.1-3.9-2.3-1.9-2.1-3.2c.6-.6,3.3,1.9,4,2-1.3-5.2-1.4-11.3-4.9-15.6h.2,0ZM240.9,279.8c-.4-.4-2.9,2.3-3.2,2.6-2.4,3-2.1,6.2-2.5,9.8.4,2.7,0,5.5-.2,8.2-.8.1-.8-1.2-1.3-1.4-1.3,1.6-.6,3.6-.9,5.5l-8.2,21.9c0,1.5,3.2,3.4,4.4,4.1,3.3,1.9,7,3.2,10.4,4.8.5,0,.3,0,.3-.4.6-3.7.8-7.8,1.2-11.6s1.4-8.5,1.2-13c-.3-6.4-1.8-13.1-1.9-19.6s.5-7.2.7-10.8h0ZM266.2,295.1c-.8-.8-1.7-.4-2.4.4-1,1.1-1,4.7.5,5.6,2.3.7,3.2-4.6,1.9-6ZM284.6,295c-3,.7-1.7,7.3,1.6,6.1s2.2-7-1.6-6.1Z"/>
    <path d="M346.9,217c9.2-1.5,10,11.7,2.1,12.7s-8.9-11.5-2.1-12.7Z"/>
    <path d="M344.1,203c6.9-.7,8.2,10.5,1.1,11.1-7.2.6-7.8-10.4-1.1-11.1ZM343.3,204.7c-2.1.4-1.7,3.9.6,3.7s2-4.2-.6-3.7Z"/>
    <path d="M314.7,197.1c6.9-1.2,6.7,10,.7,10.6s-5.8-9.7-.7-10.6ZM316.6,199c-2.6.2-1.6,4.4.8,3.4s1.1-3.5-.8-3.4Z"/>
    <path d="M317.3,232.5c2.7,1.9,6.6,2.7,9.8,3.2s2.8.1,3.4.3c1.5.5-1,1.8-1.5,2-4.2,2.1-7.7,1.6-10.7-2.2s-2-2.6-1.1-3.4h.1Z"/>
    <path d="M326.5,216.8c1.6,1.3,2.4,2.7,4.9,2.5s2-1.4,3-.4c-1.7,2.5-4.4,2.5-6.9,1s-2.1-2.1-3-2.2-2.2.5-3.2.6c-2.5.2-4.3-1.5-4.6-3.9l.5-.3c1.3.5,1.5,2,2.9,2.3,2.5.5,3.3-2,6.4.4h0Z"/>
    <path d="M327.5,210.3c.5.9-2,2.3-3.1,1s-.7-1.5,0-1.8c1.1-.4,2.2.2,3.1.7h0Z"/>
    <path d="M254.5,213.2c.8-.7,1.9-.1,2.5.6,2,2.3,3,10.7,2.6,13.7s-.6,2.6-1.8,3c-2,.2-3.6-5.3-3.8-6.8s-.7-6.5-.2-8.6.5-1.6.7-1.8h0ZM255.5,214.3c-.7.2-.7,3.3-.6,3.9.3,3.5,2.2,1.3,1.9-1.4s-.6-2.6-1.3-2.5h0Z"/>
    <path d="M298.1,224.7c-.9.8-2,0-2.6-.9-1.8-2.5-2.9-12.1-1.9-14.9s2.6-1.7,3.7-.1,2.1,9.5,1.9,12.1-.4,3.3-1,3.8h-.1ZM296.1,208.9c-2.7.5-1.4,3.9-.7,5.7,1.9,0,1.1-5.4.7-5.7Z"/>
    <path d="M290.1,238.2c.6-.1,1.1.1,1.2.8-.3,1.7-8.7,3.6-10.4,4-3.1.7-6.7,1.3-9.8,1.6s-4.2.3-4.8,0-.8-.8-.3-1.1c7.5-.9,15.3-1.7,22.4-4.4s1.4-.8,1.7-.9h0Z"/>
    <path d="M255.8,238c.4.4,4.4-3.2,5.4-2.8,0,.3,0,.5-.1.7-.2.4-4.7,3.6-5.3,3.9s-1.6.9-2,.4c-.6-1.3.8-2.3.8-3.6-.3-.3-3.9,2.4-4.5,2.7s-1.1.8-1.4.2c-.1-.5,3.8-3.4,4.4-3.9,5.5-3.5,2.3,2,2.7,2.3h0Z"/>
    <path d="M297.7,232.1l5.2-2.1.2.6-6.1,3.6h-1.5l.7-3.3-5,2.4c-.1-.6,0-.6.4-.9,1.5-1.5,4-2.5,5.7-3.8,1.8.3,0,3.1.3,3.5h0Z"/>
    <path d="M273.9,236.7s-.7-1.2-1-1.5c-.6-.6-2.3-2-2.3-2.8s1.4-2,1.7-2.7.1-1.3.4-1.9c2.6.4.8,3.4.9,4.8s2.4,5.3.3,4.1h0Z"/>
    <path d="M300,225.3c.5,0,2.3-.3,2.4.3,0,.4-.4.6-.7.7-1.5.9-8.5,1.5-10.3,1.3s.6-1.2,1.5-1.4c2.1-.4,5-.8,7.1-.9h0Z"/>
    <path d="M261.3,230.9v.7c-.8.5-7.5,1.6-8.6,1.6s-2.9,0-2.1-1c1.2-.4,10.4-1.8,10.8-1.4h0Z"/>
  </g>
  <path d="M1507.5,217.9c.7.7,1.3,1.5,1.9,2.2,8.4,9,12.6,18.3,8.1,30.7-3,8.5-13.3,20.1-23,19.7s-4.8-.5-4.2-2.2,6-3.7,7.9-4.6c10.6-5.1,15.9-16.2,12.9-27.7-1.9-7.1-8.2-12.4-13.3-17.3-.3,0-.4,1-.5,1.2-.7,3.5-1.3,10.8-3,13.6s-4.6,1.6-5.4-.9.5-8.9.8-11.8-.2-8.5,1.5-11.6,9.4-.3,12.4.4,6.4,1.2,9.4,1.3,8.1-.5,10.8.5,3.8,3.8,1.6,5.5-4.6,1.3-5.7,1.3c-2.9,0-6.1-.2-9.1-.2s-2-.4-3.1-.2h0Z"/>
  <g>
    <path d="M243.1,686.7c1.1,9.1,10.5,15,22.7,15s20.6-5.9,20.6-13.9-5.3-11.1-18.5-14.1l-14.3-3.1c-20.3-4.3-30.2-14.6-30.2-30.7s17.5-33.7,42-33.7,41.7,13.2,42,33.1h-21.6c-.8-9.3-8.9-14.9-20.4-14.9s-19,5.4-19,13.6,5.3,10.6,18,13.5l13.3,2.8c22,4.7,31.6,14.2,31.6,30.9s-17.3,34.8-44.6,34.8-43.3-12.6-44-33.2h22.4Z"/>
    <path d="M318.6,602.8h21.9v46.3h.5c4.7-10.6,13.6-16.2,26.4-16.2,18.6,0,29.3,12,29.3,31.5v53.6h-22.2v-49c0-11-5.5-17.6-16.1-17.6s-17.4,7.7-17.4,19v47.6h-22.2v-115.2h-.2Z"/>
    <path d="M483.5,692.4c-2.4,16.2-17.6,27-38,27s-41.1-16.4-41.1-43,15.7-43.7,40.3-43.7,39.5,16.1,39.5,41.7v6.9h-57.9v1.4c0,12.1,7.8,20.3,19.6,20.3s15-4,17.1-10.4h20.5v-.2ZM426.5,667.4h36.2c-.4-11-7.5-18.1-17.8-18.1s-17.6,7.4-18.4,18.1h0Z"/>
    <path d="M492.8,602.8h21.9v46.3h.5c4.7-10.6,13.6-16.2,26.4-16.2,18.6,0,29.3,12,29.3,31.5v53.6h-22.2v-49c0-11-5.5-17.6-16.1-17.6s-17.4,7.7-17.4,19v47.6h-22.2v-115.2h-.2Z"/>
    <path d="M578.2,693.8c0-15.2,11.7-23.8,33.1-25.1l20.9-1.3v-5.6c0-8.1-5.6-12.5-14.7-12.5s-13.7,4.3-14.8,10.4h-20.3c.6-16,15.1-27,36-27s35.6,11,35.6,27.8v57.5h-21.5v-12.9h-.5c-4.6,8.8-14.9,13.9-25.7,13.9-16.1,0-28.3-10.1-28.3-25.1h.2ZM632.2,687.2v-6.2l-17.6,1.2c-9.3.6-14.2,4.3-14.2,10.4s5.3,10.1,13.3,10.1,18.5-6.4,18.5-15.5Z"/>
    <path d="M688,703.6h-.5v14.3h-21.9v-115.2h22.2v45.6h.5c4.6-9.7,13.9-15.3,25.9-15.3,21.2,0,34.2,16.2,34.2,42.9s-13,43-34.1,43-21.7-5.6-26.4-15.3h0ZM687.8,676.1c0,15,7.6,24.9,19,24.9s18.9-9.8,18.9-25-7.5-24.9-18.9-24.9-19,10-19,25Z"/>
    <path d="M904.2,718h-20.5v-74.2h-.6l-29.9,73.1h-14.5l-29.9-73.1h-.6v74.2h-20.5v-109.9h26.7l31.2,77.9h.6l31.2-77.9h26.7v109.9h0Z"/>
    <path d="M913.5,693.8c0-15.2,11.7-23.8,33.1-25.1l20.9-1.3v-5.6c0-8.1-5.6-12.5-14.7-12.5s-13.7,4.3-14.8,10.4h-20.3c.6-16,15.1-27,36-27s35.6,11,35.6,27.8v57.5h-21.5v-12.9h-.5c-4.6,8.8-14.9,13.9-25.7,13.9-16.1,0-28.3-10.1-28.3-25.1h.2ZM967.5,687.2v-6.2l-17.6,1.2c-9.3.6-14.2,4.3-14.2,10.4s5.3,10.1,13.3,10.1,18.5-6.4,18.5-15.5Z"/>
    <path d="M1001,602.8h21.9v46.3h.5c4.7-10.6,13.6-16.2,26.4-16.2,18.6,0,29.3,12,29.3,31.5v53.6h-22.2v-49c0-11-5.5-17.6-16.1-17.6s-17.4,7.7-17.4,19v47.6h-22.2v-115.2h-.2Z"/>
    <path d="M1089.8,634.1h21.5v15.2h.5c3.6-10.1,12.7-16.5,23.9-16.5s20.6,6.2,23.4,17.1h.5c3.8-10.5,13.9-17.1,26.1-17.1s27.5,11.2,27.5,28.1v57h-22.2v-51.4c0-9.8-5-15.2-14-15.2s-14.6,6.4-14.6,15.9v50.7h-21.5v-52.3c0-9-5.2-14.4-13.8-14.4s-14.9,6.7-14.9,16.2v50.4h-22.2v-83.9l-.2.2Z"/>
    <path d="M1220.7,676c0-26.8,16.1-43.3,41.4-43.3s41.4,16.5,41.4,43.3-15.9,43.4-41.4,43.4-41.4-16.3-41.4-43.4ZM1280.8,676c0-16.5-7.1-26.3-18.7-26.3s-18.8,9.8-18.8,26.3,7.1,26.3,18.8,26.3,18.7-9.6,18.7-26.3Z"/>
    <path d="M1388.3,718h-21.5v-15.2h-.5c-4.3,10.5-12.5,16.4-25.2,16.4-18.1,0-30.1-11.8-30.1-31.3v-53.8h22.2v49.1c0,11.3,5.6,17.4,15.9,17.4s16.8-7.5,16.8-18.8v-47.8h22.2v83.9h.2Z"/>
    <path d="M1396.4,675.9c0-26.3,13.6-42.8,34.4-42.8s21.5,6,25.7,15.3h.5v-45.6h22.2v115.2h-21.9v-14.3h-.4c-4.1,9.2-13.8,15.3-26.1,15.3-20.9,0-34.4-16.6-34.4-43h0ZM1419.1,676c0,15.4,7.4,25,19,25s19-9.8,19-24.9-7.5-25-19-25-19,9.7-19,24.9Z"/>
  </g>
  <g class="st0">
    <g class="st0">
      <path d="M906.9,195.5c-4.6-5.8-8.8-15.5-8.8-28.7s3.9-20.8,9.2-27.6h8.8c-3.7,4.3-8.1,14.7-8.1,27.5s3.8,21.3,8,28.8h-9Z"/>
      <path d="M920.2,150.4h9.2v6.5h.2c1.5-4.4,5.5-7.1,10.3-7.1s8.8,2.7,10,7.4h.2c1.6-4.5,6-7.4,11.2-7.4s11.8,4.8,11.8,12.1v24.5h-9.6v-22.1c0-4.2-2.1-6.5-6-6.5s-6.3,2.7-6.3,6.8v21.8h-9.2v-22.4c0-3.9-2.2-6.2-5.9-6.2s-6.4,2.9-6.4,7v21.7h-9.6v-36Z"/>
      <path d="M978.1,168.4c0-11.5,6.9-18.6,17.8-18.6s17.8,7.1,17.8,18.6-6.8,18.6-17.8,18.6-17.8-7-17.8-18.6ZM1003.9,168.4c0-7.1-3-11.3-8-11.3s-8.1,4.2-8.1,11.3,3,11.3,8.1,11.3,8-4.1,8-11.3Z"/>
      <path d="M1017.4,168.3c0-11.3,5.8-18.4,14.8-18.4s9.2,2.6,11,6.6h.2v-19.6h9.6v49.5h-9.4v-6.2h-.2c-1.8,4-5.9,6.6-11.2,6.6-9,0-14.8-7.1-14.8-18.5ZM1027.1,168.4c0,6.6,3.2,10.7,8.1,10.7s8.1-4.2,8.1-10.7-3.2-10.7-8.1-10.7-8.1,4.2-8.1,10.7Z"/>
      <path d="M1058.2,168.3c0-11.3,5.8-18.4,14.8-18.4s9.2,2.6,11,6.6h.2v-19.6h9.6v49.5h-9.4v-6.2h-.2c-1.8,4-5.9,6.6-11.2,6.6-9,0-14.8-7.1-14.8-18.5ZM1068,168.4c0,6.6,3.2,10.7,8.1,10.7s8.1-4.2,8.1-10.7-3.2-10.7-8.1-10.7-8.1,4.2-8.1,10.7Z"/>
      <path d="M1133.1,175.4c-1,7-7.6,11.6-16.3,11.6s-17.7-7-17.7-18.5,6.7-18.8,17.3-18.8,17,6.9,17,17.9v2.9h-24.9v.6c0,5.2,3.4,8.7,8.4,8.7s6.4-1.7,7.4-4.5h8.8ZM1108.6,164.7h15.5c-.2-4.7-3.2-7.8-7.7-7.8s-7.6,3.2-7.9,7.8Z"/>
      <path d="M1137.2,168.3c0-11.3,5.8-18.4,14.8-18.4s9.2,2.6,11,6.6h.2v-19.6h9.6v49.5h-9.4v-6.2h-.2c-1.8,4-5.9,6.6-11.2,6.6-9,0-14.8-7.1-14.8-18.5ZM1146.9,168.4c0,6.6,3.2,10.7,8.1,10.7s8.1-4.2,8.1-10.7-3.2-10.7-8.1-10.7-8.1,4.2-8.1,10.7Z"/>
      <path d="M1190.5,196l13.6-56.8h8.9l-13.7,56.8h-8.7Z"/>
      <path d="M1230.6,150.4h9.2v6.5h.2c1.5-4.4,5.5-7.1,10.3-7.1s8.8,2.7,10,7.4h.2c1.6-4.5,6-7.4,11.2-7.4s11.8,4.8,11.8,12.1v24.5h-9.6v-22.1c0-4.2-2.1-6.5-6-6.5s-6.3,2.7-6.3,6.8v21.8h-9.2v-22.4c0-3.9-2.2-6.2-5.9-6.2s-6.4,2.9-6.4,7v21.7h-9.6v-36Z"/>
      <path d="M1288.5,168.4c0-11.5,6.9-18.6,17.8-18.6s17.8,7.1,17.8,18.6-6.8,18.6-17.8,18.6-17.8-7-17.8-18.6ZM1314.3,168.4c0-7.1-3-11.3-8-11.3s-8.1,4.2-8.1,11.3,3,11.3,8.1,11.3,8-4.1,8-11.3Z"/>
      <path d="M1327.8,168.3c0-11.3,5.8-18.4,14.8-18.4s9.2,2.6,11,6.6h.2v-19.6h9.6v49.5h-9.4v-6.2h-.2c-1.8,4-5.9,6.6-11.2,6.6-9,0-14.8-7.1-14.8-18.5ZM1337.6,168.4c0,6.6,3.2,10.7,8.1,10.7s8.1-4.2,8.1-10.7-3.2-10.7-8.1-10.7-8.1,4.2-8.1,10.7Z"/>
      <path d="M1369.8,141.4c0-2.8,2.3-5,5.1-5s5.2,2.1,5.2,5-2.3,5-5.2,5-5.1-2.2-5.1-5ZM1370.2,150.4h9.6v36h-9.6v-36Z"/>
      <path d="M1388.9,157.6h-4.9v-7.2h4.9v-3.2c0-6.9,3.3-9.8,11.6-9.8s3.1.1,4.4.3v6.6c-.7-.1-1.6-.2-2.6-.2-2.9,0-4.1,1.1-4.1,3.6v2.6h6.7v7.2h-6.5v28.8h-9.6v-28.8Z"/>
      <path d="M1410.2,141.4c0-2.8,2.3-5,5.1-5s5.2,2.1,5.2,5-2.3,5-5.2,5-5.1-2.2-5.1-5ZM1410.6,150.4h9.6v36h-9.6v-36Z"/>
      <path d="M1459.4,175.4c-1,7-7.6,11.6-16.3,11.6s-17.7-7-17.7-18.5,6.7-18.8,17.3-18.8,17,6.9,17,17.9v2.9h-24.9v.6c0,5.2,3.4,8.7,8.4,8.7s6.4-1.7,7.4-4.5h8.8ZM1434.9,164.7h15.5c-.2-4.7-3.2-7.8-7.7-7.8s-7.6,3.2-7.9,7.8Z"/>
      <path d="M1463.5,168.3c0-11.3,5.8-18.4,14.8-18.4s9.2,2.6,11,6.6h.2v-19.6h9.6v49.5h-9.4v-6.2h-.2c-1.8,4-5.9,6.6-11.2,6.6-9,0-14.8-7.1-14.8-18.5ZM1473.3,168.4c0,6.6,3.2,10.7,8.1,10.7s8.1-4.2,8.1-10.7-3.2-10.7-8.1-10.7-8.1,4.2-8.1,10.7Z"/>
      <path d="M1511.5,166.7c0-12.8-4.4-23.2-8.1-27.5h8.8c5.3,6.8,9.2,14.4,9.2,27.6s-4.3,22.9-8.9,28.7h-9c4.3-7.4,8-16.1,8-28.8Z"/>
    </g>
  </g>
  <g>
    <path d="M195.1,497c0-33.9,25.9-53,73.5-55.9l46.6-2.9v-12.4c0-18-12.4-27.8-32.7-27.8s-30.5,9.5-32.9,23h-45.2c1.4-35.6,33.5-60.1,80.1-60.1s79.3,24.6,79.3,61.8v127.9h-47.8v-28.8h-1c-10.2,19.5-33.2,31-57.1,31-35.9,0-62.9-22.5-62.9-55.9h.1ZM315.3,482.3v-13.7l-39.1,2.7c-20.7,1.4-31.7,9.5-31.7,23.2s11.7,22.4,29.7,22.4,41.2-14.2,41.2-34.6h-.1Z"/>
    <path d="M472,361c46.1,0,76.8,23.6,77.4,59.1h-45.7c-1-14.7-13.4-24.1-32.4-24.1s-29.7,8-29.7,20,8.1,15.6,24.9,19.5l35.1,7.6c37.4,8.5,52.4,22.9,52.4,50.7s-33.4,60.1-82.2,60.1-80-23.7-82.5-59.6h48.3c2.4,15.8,15.1,24.6,35.6,24.6s31.7-7.6,31.7-19.8-6.4-14.7-23.4-18.8l-34.4-7.8c-35.1-8-53.2-26.1-53.2-53.4s30.8-58.1,78.1-58.1h0Z"/>
    <path d="M581.1,294.6h48.6v103h1c10.5-23.6,30.2-36.1,58.6-36.1,41.3,0,65.2,26.8,65.2,70v119.3h-49.5v-108.9c0-24.4-12.2-39.1-35.8-39.1s-38.8,17.1-38.8,42.2v105.9h-49.5v-256.2h.2Z"/>
    <path d="M787.3,364.2h47.8v33.9h1c8-22.5,28.3-36.6,53.2-36.6s45.7,13.7,52,38.1h1c8.5-23.4,30.8-38.1,57.9-38.1s61.2,24.9,61.2,62.5v126.7h-49.5v-114.4c0-21.9-11-33.9-31.2-33.9s-32.5,14.2-32.5,35.4v112.8h-47.8v-116.2c0-20-11.5-32-30.7-32s-33,14.9-33,36.1v112.2h-49.5v-186.5h0Z"/>
    <path d="M1087.2,457.4c0-59.6,35.9-96.4,92-96.4s92,36.6,92,96.4-35.4,96.6-92,96.6-92-36.3-92-96.6ZM1220.9,457.4c0-36.8-15.8-58.5-41.7-58.5s-41.9,21.9-41.9,58.5,15.8,58.5,41.9,58.5,41.7-21.3,41.7-58.5h0Z"/>
    <path d="M1290.7,457.2c0-58.5,30.2-95.2,76.6-95.2s47.8,13.4,57.1,34.1h1v-101.5h49.5v256.2h-48.8v-31.9h-.8c-9.1,20.5-30.7,34.1-58.1,34.1-46.4,0-76.4-36.9-76.4-95.7h0ZM1341.4,457.4c0,34.2,16.4,55.6,42.2,55.6s42.2-21.7,42.2-55.4-16.6-55.6-42.2-55.6-42.2,21.5-42.2,55.4Z"/>
  </g>
</svg>