<svg xmlns="http://www.w3.org/2000/svg" id="Layer_1" data-name="Layer 1" viewBox="-0.03 0.02 2816.07 732.97">
  <path d="M2816,470c-5.5,4.22-11.26,11.21-17.79,13.75-13.11,5.1-17.24-15.19-4.21-18.33,2.99-.72,9.24,5.62,7.96-3.83-1.36-10.03-14.25-15.18-23.34-14.46-21.25,1.69-55.1,37.01-73.16,50.84-19.45,14.89-43.6,31.24-66.1,40.9-11.98,5.14-13.16,5.21-25.82,5.1-28.51-.25-52.34.15-80.75-4.25-22.95-3.55-47.19-8.84-69.8-14.2-30.35-7.19-62.07-15.32-89.99-29.01v-146c0-2.57-5.24-.54-6.51-.5-3.49.11-7-.05-10.48,0-.44-2.32,2.24-2.84,2.79-4.69,2.39-8.05-3.12-11.07-6.83-16.8,0-3.21,8.88-6.63,7.03-11.5-2.12,1.67-4.52,3.15-6.55,4.95s-1.94,4.73-4.94,4.07c-1.19-4.6-5.94-5.78-8.43-9.65l9.44-11.36,9.48,10c2.83-6.97-3.66-7.01-6.92-11.64-.43-2.54,8.23-6.47,6.92-10.36-.62-.67-4.83,2.31-5.49,2.99-1.42,1.47-2.45,5.74-3.99,5l-9.56-10.47,9.55-11.51,7.52,7.98,1.96-1.5-6.99-8.97c3.49-2.15,5.25-4.35,6.98-8.04-3.9-3.92-5.63,5.54-9.48,5.54l-6.43-6.4,9.42-10.48,6.5,5.85,1.02-4.99c-2.11.1-4.28-.87-5.01-2.99,3.5.06,2.54-3.22,3.61-4.92,1.84-2.92,16.57-19.85,18.84-21.15,4.23-2.44,7.84,0,12.01.09,27.81.65,55.74-.57,83.55-.05v10.01h-69.01l3.02,3.48,64.4-.37c2.75.65,1.22,8.55,1.58,10.88h-58l4.45,3.05,51.91.09c2.98.97,1.2,8.26,1.64,10.86h-46c.23.91,3.23,4,3.5,4h42.5v10h-35c.93,3.05,2.91,2.05,4.92,2.56.74.19,1.37,1.44,1.58,1.44h28.5v10h-19.5c-.46,0-2.65-2.8-2.49.48,1.02,1.42,1.82,2.03,3.55,2.46,6.82,1.69,15.66,1,22.7.82l93.08-29.92,1.68-2.32-.18-165.35-85.83-25.18c1.02-3.26,2.74-.99,3.5-.99h149.5v222.5c2.64,2.85,7.43,1.05,11,1.5v-142c11.09,3.78,13.01,15.75,17.49,24.98,14.44-9.46,29.77-9.14,44.43-.4,1.87,1.12,8.79,7.55,10.07,6.42,8.34-35.89,44.1-59.59,80.49-56.99,4.72.34,9.63,2.45,14.52,1.98v140c-10.23-.38-19.88-3.68-28.99-8-1.06,39.32-48.71,66.23-80.97,39.46-1.58-1.31-1.47-3.22-3.03-3.46-3.19,38.77-32.45,75.94-70.97,84.53-23.04,5.14-53.7.43-72.05-15.02-8.43-7.1-14.48-16.28-21.69-24.31l-54.63.42c-2.07-.46-4.47-.51-6.4-1.4-1.68-.77-4.94-5.34-4.86-1.16.18,9.48.91,18.94.64,28.47-.41,14.74-1.09,29.24-1.01,43.9.07,14.14-.91,28.63.97,42.56h28.5c4.47,0,3.43,15.35,3.64,18.36.33,1.3,1.22,1.43,2.36,1.64,5.46,1.01,14.9-.28,21.04-.04,23.93.94,58.79,3.74,81.98,1.06,2.34-.27,5.69-1.01,5.48-4.02h-85.5c-2.57-2.64-2.63-6.57-2.5-10h108.5c.34,0,5.36-2.75,5.5-4h-115.5l-5.49-9.99h156.41s.59-3.01.59-3.01h-158.5c-2.4,0-7.9-6.89-6.5-10,27.17.03,54.36-.04,81.54-.05,7.9,0,16.04.02,23.92,0,20.01-.06,40.01.15,60.02.02,1.85-.33,3.79-1.81,3.52-3.97l-49.99.98c-.37-.27.55-1.09,1.01-1.48,1.22-1,19.04-9.22,20.55-9.45,22.66-3.55,48.59,9.95,65.94-13.04,24.25,37.5,74.14-2.83,44.75-35.5,10.73-16.94,33.03-22.05,51.75-17.51v111ZM2606,490h-69l2.46,3.08c21.62-.3,43.28.2,64.87-.25l1.67-2.83ZM2601,503h-42c.48,1,1.18,2.99,1.99,3.51,3.71,2.34,31.09-.74,37.51.49l2.06-.94.44-3.06ZM2600,517h-37v3c12.36-.19,24.69.41,37.01,0v-3ZM2605,534c.19-3.75-10.25-3.86-13.46-4.04-4.3-.25-33.42-.31-34.54,1.06v2.98s48,0,48,0Z"/>
  <path d="M0,395c7.27-10.22,13.3-19.35,22.98-27.52,27.24-22.98,65.29-26.26,96.69-9.65l17.32,13.16c2.72-8.97,8.25-17.98,14.51-24.99h112.5c.22,2.94-4.48,3.31-6.65,5.35-5.89,5.52-10.42,17.12-10.43,25.15,0,7.43,4.23,14.51.84,22.76-.92,2.24-5.29,4.29-7.28,6.72-11.36,13.95-.07,36.26,16.46,39.58,13.3,2.66,20.95-11.46,34.61-6.61,18.33,6.51,17.01,30.7,8.47,44.61-3.68,5.99-19.46,7.01-26.53,7.43-18.28,1.08-63.96-2.31-66.49-26.48-1.4-13.38,6.95-17.51,19.03-15.94,3.07-8.08-9.15-16.22-15.99-18.11-42.94-11.86-59.11,62.61-105.46,56.46-22.44-2.98-39.19-33.47-19.53-50.36,10.86-9.33,22.61-6.23,32.44,2.47,7.08-2.35,2.1-12.88-.66-17.37-6.73-10.94-21.79-19.21-34.46-20.54-35.81-3.77-61.19,23.27-82.38,47.88v-54Z"/>
  <path d="M0,460c17.73-20.67,37.43-45.19,65.8-50.7,15.63-3.04,34.66,1.38,43.2,15.69-46.65-9.34-54.19,54.85-11.65,67.16,38.52,11.14,54.31-21.92,77.12-42.17,10.92-9.69,27.53-19.58,40.52-7.99-13.89,2.54-17.06,16.74-13.3,28.81,8.27,26.51,51.26,27.14,73.84,26.24,3.34-.13,16.23-3.4,17.45-.54-28.15,25.61-76.37,22.03-106.32,1.32-1.52-1.05-9.33-9.19-10.67-7.82,4.31,10.51,17.21,17.96,27.47,22.02,4.25,1.68,17.08,5.98,21.02,5.98h21.5c.5,2.85-.68,1.64-2.2,2.25-5.22,2.1-21.93,5.74-27.31,5.56-9.5-.32-20.91-8.02-30.49-8.8,5.36,5.6,13.69,8.15,21,10,.25.32-.56,1.29-.98,1.5-3.05,1.52-15.64,3.17-19.98,4.03-33.79,6.64-74.55,17.89-109.25,9.18-7.87-1.98-15.06-5.4-22.78-7.71,5.92,6.51,14.89,7.97,22.62,10.87,1.27.48,3.07.22,3.38,2.11-22.1,1.71-44.25,3.52-66.46,2.97l-2.54-1.95c11.35-2.35,20.77-9.05,30.99-14.03.26-1.29-.4-1.1-1.5-1.01-5.55.45-18.72,7.77-24.97,10.05-4.86,1.77-10.36,3.98-15.53,3.97v-10c11.5-3.89,23.14-10.23,32.31-18.19,1.07-.92,2.86-1.51,2.7-3.3-12.18,3.89-21.93,14.11-35.01,16.49v-11c2.64-.52,5.02-1.86,7.3-3.2,5.69-3.33,27.6-18.73,28.71-24.29.11-.56.25-1.65-.51-1.51-11.71,7.88-21.97,19.51-35.51,23.99v-13c18.16-9.78,30.48-26.37,40.81-43.69,1.05-1.76,6.08-8.73,1.21-8.3-11.16,17.9-23.53,36-42.02,46.99v-14c19.89-14.12,33.92-44.65,56.32-55.18,5.78-2.72,13.41-2.68,17.68-6.81-32.15-.33-50.16,32.01-69.96,52.53-1.16,1.21-2.18,2.42-4.04,2.46v-17ZM57,447c-2.54-.85-2.7,3.03-2.88,4.61-5.08,44.27,42.65,68.26,80.14,53.15,14.56-5.87,32.05-19.37,37.75-34.25l-10,10c-6.26,5.79-13.59,10.45-20.06,15.94-1.29,1.1-1.96,3.43-2.98,4.02-5.47,3.19-24.96,5.05-31.51,4.56-18.81-1.39-50.46-19-50.46-40.54v-17.5ZM250,504c-22.23-3.16-49.28-4.92-58.48-29.03-1.45-3.79-1.07-9.49-4.51-11.98-.73,8.88,3.09,18.97,8.58,25.91,9.55,12.08,34.93,18.03,49.65,17.82.89-.01,7.11-.97,4.77-2.73ZM51.38,493.63c-.95-1.11-8.27-14.48-8.36-7.19-.07,5.5,12.16,17.16,16.65,20.38,30.1,21.59,78.3,23.48,106.35-2.32,3.07-2.83,8.37-7.07,6.49-11.51-28.55,34.4-92.46,34.32-121.13.63ZM178.99,514l-14.01,8.48c-20.1,9.76-42.84,12.43-64.98,11.01,6.37,4.54,16.79,3.85,24.49,3.49,13.37-.61,27.35-3.47,39.2-9.8,1.53-.82,17.54-11.03,15.31-13.18ZM81,531.99c-.29-1.28-1.63-2.2-2.73-2.76-8.1-4.09-18.79-7.46-27.27-11.22,7.63,7.23,19.48,12.77,30,13.98Z"/>
  <path d="M2816,541c-9.5,1.77-20.18,5.5-29.58,6.92-15.48,2.35-27.36-.09-41.87.04-3.47.03-8.16,1.83-12.01,2.07-6.76.42-12.89-1.12-19.54-1.05,3.81-5.16,22.49-11.61,24.5-16.99.47-1.26.93-1.48-.97-.98-9.6,2.52-29.92,18.98-37.02,18.98h-15.5c-.41-2.3.13-1.6,1.28-2.23,5.69-3.14,12.94-5.42,19.02-8.96,7.86-4.58,32.48-21.15,37.74-27.26,1.26-1.47,2.38-2.29,1.94-4.55-14.38,7.94-26.97,18.8-41.07,27.42-8.98,5.49-25.28,15.83-35.45,15.64l-9.46-2.05c28.01-11.31,54.26-27.78,77.46-47.04,4.7-3.91,10.34-10.66,14.99-14.01,1.05-.75,2.28-.99,3.54-.97l-2.49-2.8c-26.31,20.51-53.18,41.39-82.84,56.98-9.87,5.19-18.6,10.3-30.19,8.83-1.38-.17-2.99-.61-1.48-1.99,49.19-18.21,87-56.28,127.98-87.53,8.04-5.22,16.86-5.5,26.01-3.48,1.01,1.1-8.67,8.48-9.86,10.63-6.16,11.06.76,24.79,13.64,25.12,6.55.17,16.39-7.48,21.22-11.75v13c-16.45,10.97-50.31,14.25-54.01-10.99-1.72.21-1.17,5.4-1.04,6.54,1.63,14.02,21.69,18.37,33.53,17.43,7.77-.62,14.45-4.25,21.51-6.98v13c-14.05,6.66-31.15,9.31-46.23,4.73-2.5-.76-14.97-7.38-15.77-6.72,1.26,3.92,4.65,5.58,7.98,7.51,15.88,9.16,37.7,6.23,54.02-.52v12c-16.44,5.88-32.19,6.76-49.48,4.98-7.18-.74-14.56-4.29-21.51-1.97,1.77,2.18,6.66,3.47,9.34,4.15,20.3,5.16,41.67,3.25,61.66-2.16v7Z"/>
  <path d="M0,180l11.79.22,80.22,93.27c.21,2.09-.12,1.31-1.49,1.51-2.32.34-10.45-.11-12.25-1.28-1.34-.87-7.38-9.97-9.31-12.19C46.16,235.2,23.47,208.73,0,183v-3Z"/>
  <path d="M0,189l75,84.99c-4.33,1.22-10.5,1.84-14.02-1.47L0,203v-14Z"/>
  <path d="M0,208l58,65.99c-4.93.32-10.21,2.8-14.5-.99L0,223v-15Z"/>
  <path d="M0,228l41,45.99c-4.85-.65-10.11,1.78-14.53-.96L0,243v-15Z"/>
  <polygon points="0 249 23 273.99 10.72 274.81 0 264 0 249"/>
  <path d="M1026,285l87.06-28.61-.2-158.25-79.29-22.14-.07-2,124.05.96,1.44,209.05h9.01v-60.01c24.65,6.17,43.01,28.09,46,53,34.16-7.12,70.25,14.81,82.01,46.99,6.13-4.25,14.47-1.9,21.52-1.94,30.52-.19,61.18-.23,91.91-.03,27,.17,53.7-1.78,80.55.98.14,1.44-2.35,1.62-3.47,2.01-4.04,1.4-16.73,5.98-20.02,5.98h-167.5v3h155.5c.9,0,3.63-1.86,5.5-.99l-.98,1.5c-10.12.99-20.73,7.49-30.52,8.48-8.47.85-16.82-.96-24.95-1.03-33.95-.32-67.64,1.41-101.54,1.05l1.67,2.82c32.89-.34,65.97,1.04,98.87.21,5.31-.13,14.43-3.52,18.46.95-7.14.76-13.86,5.43-20.73,6.78-1.59.31-8.62,1.24-9.76,1.24h-87.5v3h84c-1.72,2.36-17.91,9-19.5,9h-65.5v3h52.5c.92,0,4.08-3.04,3.5.99-7.41,1.52-14.26,6.74-21.76,7.76-10.95,1.48-25.72-1.56-35.74.26-1.73.31-2.8,1.07-2.51,2.99h28.5c.57,0,4.3-2.65,4.49-.01-12.13,4.08-22.5,11.13-36,9.02v2.99s5,.99,5,.99c-35.5,15.83-70.98,31.86-107.02,46.48-6.51,2.64-43.73,18.31-47.28,17.6-4.17-4.67-7.8-10.12-12.04-14.72-18.13-19.67-37.77-38.73-56.16-58.34-17.13-18.26-33.82-38.99-51.46-56.54-3.08-3.07-5.19-5.2-10.03-4.46l125.99,134.51c.5,2.22-8.97,5.32-10.53,5.09-.89-.13-7.67-7.21-8.98-8.6-38.54-41.11-76.52-86.04-116.44-125.53-3.52-3.48-5.31-6.64-11.05-5.47l131.98,140.49-10.31,4.23-3.32-2.08-108.78-117.54-.04-3.11c-1.19-1.98-3.94,1.13-5.03,1.99l-1.01-.97c-.48-1.24-.43-2.77-1.08-3.92-1.09-1.93-15.29-18.08-16.43-18.57-1.64-.71-3.26-.61-4.98-.51-1.31.96,19.99,21.34,20.88,24.64.51,1.91-.24,1.08-1.14,1.59-3.44,1.94-8.33,3.82-11.38.4l-23.35-26.14-7-.49,29,29.5c.79,1.61-2.28,2.23-3.32,2.65-8.58,3.43-9,1.35-14.71-4.63-8.28-8.68-15.91-18.1-24.42-26.58l-6.55-.94,33.98,35.49c-3.35,2.49-8.83,6.36-12.69,3.19l-34.76-37.76-4.51-.93c-.65,2.58.65,2.59,1.67,3.82,8.08,9.67,23.59,27.37,32.75,35.25,1.46,1.26,2.48,2.08,4.56,1.94-1.27,2.28-5.34,2.22-7.08,4.45-.84,1.07.24,6.66-2.4,5.53l-39.98-44.05c-1.84-2.01-3.09.04-4.51,1.56l45.46,47.52.03,13.99c-1.27,1.74-1.44.37-2.51-.5-2.87-2.31-6.37-6.21-9.03-8.97-13.7-14.27-25.87-30.1-40.48-43.52-2.99,7.09,4.86,9.64,8.5,13.5,14.2,15.07,27.32,31.35,42.02,45.96l1.98,16.53-57.5-60c-3.91-2.56-1.25,3.12.06,4.94l56.44,60.56v15.5l-59.98-64.52c-2.3-1.8-4.23.58-3.82,2.87.24,1.34,13.07,13.21,15.31,15.64l49,53.06-.52,14.96-68.43-74.06c-1.55-1.93-5.04-.63-4.56,1.55l73,78.02v15c0,.13,2.73,3.02,0,2.01l-67.43-73.57c-4-2.72-4.69.23-2.61,3.61l70.05,74.95v15.5l-76.48-80-.71,2.67,73.19,79.32-11.45.98-3.5-1.52-69.53-74.54c-.87-1.33-5.35-.42-4.5,1.58l68.99,74.52h-14.5c-.57,0-5.71-7.65-6.99-9.01-4.82-5.15-10.2-9.82-15.03-14.97-6.09-6.5-49.17-55.13-52.99-54.99l-1.01,2.99,70.52,75.98h-14.5l-69-73.98c-3.23,1.8,1.38,5.98,2.99,7.99,16.16,20.21,37.67,41.15,55.47,60.53,1.76,1.92,5.14,2.68,5.04,5.45-3.96-.35-8.59.55-12.44-.05-5.16-.81-6.83-6.51-10.05-9.95-9.78-10.44-19.5-21.32-29.49-31.51-.96-.98-4.62-4.49-5.53-4.45-2.65.12-.61,3.86.07,4.91,7.3,11.13,23.77,23.57,32.41,34.59.95,1.21,4.35,4.95,1.5,5.48-1.51.28-12.25-1.92-14.01-2.98-3.03-1.83-5.94-7.01-8.45-9.55-5.59-5.68-11.11-11.68-17.54-16.46-.5-.15-1.14,2.19-1.09,2.5.25,1.71,15.41,17.78,18.07,20.54,1.41,1.47,4.97,1.94,3.02,3.96-4.24-1.94-11.62-.89-15.47-2.53-2.1-.89-8.07-9.16-9.53-9.48l-2.49,1.52,3.99,5.99c.22,1.66.09,1.61-1.49,1.5-24.04-1.67-51.91-9.04-76.14-12.88-72.92-11.56-147.44-23.16-221.36-19.14,8.57-42.2,59.79-64.95,98.62-69.87,56.85-7.2,157.98,1.75,193-53,15.32-23.95,11.9-65.13-22.62-66.13-.42-2.28.12-1.6,1.27-2.23,1.63-.89,6-2.51,7.92-3.07,43.57-12.78,83.01,19.39,89.68,61.92.42,2.7-1.04,15.51,5.17,12.87,3.1-1.32,2.09-13.59,1.7-16.73-6.31-49.62-63.22-83.39-109.42-60.93-25.14,12.22-34,32.61-53.3,47.7-16.78,13.12-22.5-1.45-35.7-9.35s-29.58-10.27-39.26,3.39l8.46,6.46c1.33,7.96-4.54,11.77-11.99,12.02-24.4.8-38.28-27.54-54.52-41.57s-38.61-25.37-61-16.97c-8.44,3.16-22.03,15.32-21.1,25,.75,7.78,8.74-.92,13.05-2.04,16.7-4.35,28.94,13.84,21.22,29.21-10.63,21.17-35.71,16.67-55.18,14.33l2.99,5.99c-7.01-1.46-13.95-2.18-20.99-1.01,7.64-11.43,13.19-22.73,14.87-36.62.58-4.83-.57-9.59,1.12-14.37-56.02,43.88-117.69-33.96-65.01-79.5l-2.83-1.65.86-1.84c-39.39-3.01-75.35,28.04-78.05,67.45-.36,5.29-.57,14.97.01,20.07.34,3,4.3,7.87.04,7.48v.97c3.9.61,4.09,6.83,5.99,10.02h-21.5c-.85,0-3.86,2.33-5.49,2.01v.99s27.49,0,27.49,0c1.39,0,6.55,9.01,5.49,9.99-27.83-.19-55.7.25-83.54.05-34.65-.24-69.51-1.19-103.95-1.06-11.97.04-32.95,3.93-43.45-1.54-2.47-1.29-6.79-4.45-7.06-7.44h157l-2.96-2.54-156.55-.45c-3.2-.61-5.23-7.52-7.49-10.01h66.5c.76,0,2.48,2.27,3.5-.99-3.02-.06-5.48-1.73-8.49-2.02-8.7-.84-60.01,1.37-62.57-.43-1.11-1.68-3.3-8.83-.48-9.31l56.54.74c.88-.76-2.06-3.99-2.49-3.99h-56.5c.28-3.02-1.11-6.87,1.5-9h53.5c.4-1.16-.44-4-1.5-4h-53.5l2.63-8.87c16.08-1.68,35.23,1.78,50.92-.08,1.89-.22,3.78-.47,3.45-3.05h-54c.69-2.94,2.26-9.41,5.5-10l51.04,1.04c3.24-.08,6.38-.93,8.46-3.55l-57.48.5-1.08-2.03,8.09-7.94,98.77-.23,2.7-2.31-97.99-1.49c2.26-3.18,7.36-6.21,11.03-7.46,9.01-3.06,39.19-2.97,49.19-1.25,5.08.87,9.72,2.87,14.77,3.73v-4.01h35.5c.2,0,2.48-2.26,2.5-3h-35.5c-2.59,0-.44-7.53,2.24-8.81,1.26-.6,7.88-1.11,9.72-1.21,8.38-.45,21.65,1.44,29.03,0,1.6-.31,3.03-1.4,3.52-2.98h-40.5l-1.01-1.98,7.04-6.99c14.17-1.03,30.01,1.31,43.96-.04,2.2-.21,6.55-.68,7.51-2.99h-51c-.5-2.32,9.76-10,10.5-10h96.5v-3h-34.5l-1.07-2.04,4.21-7.85,34.74.64c2.35-.41,3.04-3.75,1.12-3.75h-35.5l3.67-9.04c11.42-.85,24.66,1.28,35.85.04,3.19-.35,4.58-.71,5.48-4h-36.5c-.3,0-1.4,1.39-2.49,1-1.12-1.29,4.06-8.61,5.66-9.83,12.11-1.55,27.17,1.48,38.89-.11,2.09-.29,3.67-.85,4.45-3.05h-41c4.07-10.83,8.13-10.25,18.54-10.04,9.74.2,19.99,1.02,29.79.66,2.5-.09,8.13-.24,7.67-3.62h-45c-.6-2.34.55-1.67,1.27-2.29,11.59-9.95,11.81-6.78,25.17-6.68,15.87.11,31.92.72,47.56-2.04-.38-1.82-1.97-1.86-3.46-2.02-12.47-1.4-32.98-.41-46.08,0-2.85.09-5.55,1.43-8.45,1.04-.6-2.72.84-1.7,1.99-2.47,4.3-2.85,9.01-5.07,13.55-7.48,28.04,1.8,59.35-2.55,87-.08,7.69.69,21.8,10.04,27.93,15.07,13.17,10.81,21.42,24.48,30.03,38.97.74.34.15-1.41,1.24-1.94,9.69-4.69,19.84-8.35,30.75-8.5,28.37-.38,53.92,21.69,55.51,50.43,41.22-3.58,74.83,28.88,73.99,70.01,16.88-2.85,33.25.73,47.99,8.99.31-8.44,1.89-16.91,9.67-21.83,2.68-1.7,9.56-2.85,10.11-3.39.7-.69,1.97-11.1,2.72-13.78,5.05-18.04,25.69-34.69,44.98-30.98,3.75.72,12.05,10.98,19.02,10.98h238.5v54ZM318,202l-10.99.49c1.93,2.14,8.57,5.28,10.55,2.56l.44-3.05ZM989,270.01l-19.02-2.49-9.48-17.5-8.45,17.53-19.05,2.46,13.85,14.71-2.84,18.28,16.65-8.84,16.83,8.85-2.23-18.26,13.74-14.74ZM1061.65,346.35c-5.96-6.33-12.69-12.38-18.09-19.4l-7.55-.45,93.99,99.5c-.8-6.11-6.47-12.16-10.48-17.01-17.16-20.73-39.18-42.81-57.86-62.64ZM1125.99,399c2.85-6.2-1.57-5.69-4.53-8.96-16.86-18.65-33.55-37.93-50.95-56.05-4.14-4.31-7.01-8.78-13.51-7.98l68.99,72.99ZM1084.8,327.14l-6.8.35c13.12,13.87,26.4,27.61,39.51,41.49,2.31,2.45,9.96,14.54,13.49,12-6.3-12.41-17.63-21.38-27.04-31.47-6.64-7.12-12.92-14.86-19.15-22.38ZM1108.66,332.34c-1.83-1.57-6.23-4-8.65-2.85,6.79,4.57,10.6,15.95,19.01,16.51-.67,1.4-1.07,2.05-.13,3.51,2.36,3.66,14.89,16.42,18.61,19.49,1.13.93,1.61,2.43,3.5,1.99.34-2.3-.78-3.76-2-5.49-4.81-6.83-23.95-27.68-30.34-33.16ZM1153.35,359.65c-4.99-5.64-18.43-22.57-23.8-25.7-1.59-.93-2.7-1.2-4.55-.94l9.48,12.01,24.02,23.98c2.27-5.17-2.97-6.87-5.16-9.34ZM1150.01,339l21,22.56,1.35.36,2.62-2.42c-8.14-6.74-13.99-18.32-24.98-20.5Z"/>
  <path d="M1619,75c-10.12,4.93-23.93,14.2-31.65,22.35-3,3.17-5.69,8.38-8.36,11.14-.95.98-1.32,1.89-2.98,1.51-5.99-35.68,7-68.53,37.47-88.02,7.35-4.7,25.58-12.97,34.03-12.97h19.5c.57,3.04-4.05,2.76-6.35,4.16-22.16,13.43-37.19,36.18-41.65,61.84,57.99-28.24,128.66-4.24,153.85,55.65,1.14,2.71,2.39,5.29,2.15,8.35,5.32-2.43,9.91-5.94,15.45-8.04,44.85-16.97,94.82,11.32,97.55,60.04,32.81-12.11,74.96,3.36,86.91,37.4-11.01,7.9-19.99,18.06-28.58,28.44-17.23,1.04-53.93.45-62.24-18.43-5.35-12.17,3.25-22.39,15.9-18.41,1.72-10.04-10.9-16.41-19.46-17.03-37.48-2.68-47.51,53.98-86.03,51.01-17.46-1.35-32.11-19.42-25.7-36.66,3.8-10.23,14.65-15.44,25.26-12.89,4.08.98,8.33,6.92,11.4,6.6,5.82-7.77-5.28-20.77-11.54-25.46-20.53-15.38-48.33-7.36-67.26,6.6-19.22,14.17-41.25,54.48-64.43,57.57-7.03.94-18.25-1.56-18.3-10.24-.04-7.18,7.17-6.2,8.61-8.45,2.39-3.75-8.51-8.73-11.54-9.56-37.53-10.27-59.55,45.06-96.29,33.29-28.78-9.23-16.99-49.13,11.25-32.77,6.29-10.31-8.21-25.24-17.29-29.19-19.29-8.4-42.87.55-58.16,13.22-16.76,13.89-26.6,35.15-46.46,45.5-1.63.29-6.39-3.39-8.8-4.31-12.05-4.57-23.23-1.47-33.96,4.59-14.08,7.95-25.14,22.76-43.59,15.96-14.65-5.4-15.49-21.38-27.03-26.02-4.4-1.77-12.23,4.68-15.7,7.73-7.99,7.01-11.02,16.68-20.49,21.55l-4.36-3.75c.62-8.37,10.94-10.84,15.79-14.86,1.51-1.25,10.96-13.84,11.52-15.47,2.66-7.74-5.08-27.21-13.73-24.81-5.47,1.51-15.22,20.95-20.71,24.85-.42-8.01,12.48-19.45,10.78-26.24-2.22-8.9-19.38-19.4-28.67-17.89-.36-5.34-4.67-10.04-5.89-14.61-.86-3.22-.41-8.57-1.25-11.57-.32-1.15-1.92-.59-1.99-.69-2.12,25.43-4.52,53.42-23.99,72-1.79-19.74,11.61-36.74,13.03-55.46,1.59-20.99-4.91-41.61-23.02-53.04l12.97-8.5-5.99,8.99c3.69,1.06,5.4-4.28,7.7-4.88,3.02-.79,8.68,7.56,11.28,9.39-2.87,2.64-5.58,5.19-4.98,9.5l7.63-5.93c12.96,7.05,10.05,12.02-.63,19.44-.74,2.61,2.53,1,2.98,1.5,1.44,1.6-2.17,5.52-2,6.46,1.43,2.39,2.85.45,5.01.53-.17-.23-1.93-5.08-1.88-5.36.22-1.37,9.43-11.83,8.72-16l-8.39-8.67-.07-2c1.58-2.4,7.17-9.59,9.92-8.87l9.73,8.42-8.02,11.48c5.67-2.08,7.97-10.38,14.52-5.02,2.23,1.83,4.06,7.82,6.99,2.01-12.06-6.47-6.59-12.05,2.85-16.86,3.36,2.72,4.54,7.53,9.63,7.89-1.84,6.2-9.5,6.6-9.07,13.47.45,7.22,12.55,10.87,9.07,19.51l4.46-2,8.46,9.65c-.15,3.59-10.59,7.65-7.92,11.36l10.49-8.98,10.46,10.59-6.96,8.38c1.31,1.11,8.63-4.71,9.5-4.71.79,0,5.51,4.42,8.5,2.71-3.28-3.24-8.38-6.63-2-9.45l6.47-7.52c5.95,6.66,14.37,9.27,4.53,17.48,5.85,2.14,4.71-6.41,11.99-2.51-2.62-6.01.87-4.78,3.01-7.49,3.56-4.52,2.64-7.99,9.99-5.51-2.74-6.49,4.64-8.96,8.02-13.57,1.83-1.28,3.87,3.3,5.5.58.78-1.3-.57-2.74-.32-4.28.71-4.47,5.54-6.72,8.43-9.66,2.04-.37,7.79,8.51,11.91,8.92,5.92.59,10.5-5.3,14.09-8.91,4.77,2.37,5.79,7.57,12.36,5.91-1.66-3.4-8.63-4.17-8.96-8.46-.17-2.23,6.62-9.69,9.37-9.54,2.55.14,9.41,6.16,9.64,8.57.35,3.62-5.63,6.24-7.05,9.44,6.33,1.62,6.18-4.71,11.36-5.88,5.12,5.19,9.63,9.82,17.59,9.83,16.26-49.23,75.17-66.16,119.6-42.94,3.48-.06,2.6-6.12,4.94-4.99,1.53.74,3.39,14.7,5.8,17.2,20.17,39.76,67.75,59.14,109.96,42.54,1.33-.52,4.51-1.23,4.74-2.74-31.29-2.46-59.15-21.87-72.16-50.34-5.87-12.85-9.25-30.75-6.83-44.67ZM1302.99,194.02c-.69-.78-6.71-4.02-7.98-6.02v8.99c.95,0,10.16-.5,7.98-2.97Z"/>
  <path d="M2470.5,159l1.34,1.66c.17,1.93,1.02,8.68-1.3,9.09l-299.54.74,2.94,2.06,296.38.41,1.67,10.04h-281c.23.91,3.23,4,3.5,4h276l1.34,1.66c.16,2.01,1.08,8.64-1.42,9.23l-256.96-.92-7.46,1.05c.03.73,2.3,2.99,2.5,2.99h263.5v10h-259l1,4h258v10h-94l1-4.99-4.5,1.99-.5-2.99c-1.5.38-7.01,6-7.49,6h-150.5c-.4,1.16.44,4,1.5,4h145.5c.23,2.4-8.33,10-9.5,10h-135.5v4h133l-9.5,10h-122.5v3h115.5c.19,0,2.96,1.07,3.5,1.5l-8.5,9.5h-111.5l.63,3.08c2.57.87,5.18-.36,7.88-.16,29.48,2.22,64.29,2.19,94.04,1.13,1.92-.07,3.61-.72,5.44-1.05.65,2.34-.59,1.69-1.27,2.28-1.5,1.32-8.59,8.71-9.22,8.71h-96.5v4s94,0,94,0c-1.79,1.92-5.48,6.94-7.44,8.05s-14.51,1.86-18.01,2c-22.81.88-45.82-.48-68.55-1.05v4h81c-.69,2.93-8.13,10.52-10.52,10.98l-70.01-.05-1.47,3.08h69c-.8,2.14-5,7.87-6.47,9.03-1.24.98-2.77,1.36-4.27,1.73l-57.27.24v3h55.01c-.39,2.77-5.38,9.04-7.71,9.78l-47.29.23v4h41.5l1.07,2.03-1.42,4.8c8.32,6.46,13.37-5.73,19.28-9.8l4.55,4.47c-1.7,1.57-3.44,2.86-2.97,5.5,6.16-7.35,9.85,2.74,14.97,6.5l-8.61,9.44-6.36-3.94c-.99,2.74,2.61,5.23,2.84,6.68.25,1.61-3.86,4.62-2.84,7.32l5.35-3.93,9.61,9.43-8.99,11.49-2.05-.58c.22-2.03-2.21-5.01-3.92-3.4-.85.8,2.02,3.85,1.96,5.5-.06,1.93-2.48,3.5-2.95,5.02-1.32,4.24,5.18-2.55,6.29-1.41l8.63,8.53-8.56,9.29-5.36-2.92c-1.31,3.78,3.45,5.5,3.07,8.43-.05.37-5.03,2.42-3.07,4.56,1.54,1.68,2.91-2.73,3.12-2.85,2.8-1.57,8.69,6.61,10.8,8.49l-8.63,10.26-5.29-2.89c1.24,5.34,1.96,6.61,0,11.99,3.46.63,1.49-3.87,5.33-2.87l8.27,8.82-5.26,7.13c-5.37-.21-9.57-4.35-13.65-6.28-57.92-27.45-114.37-58.05-173.03-83.97-15.87-7.01-34.86-12.69-49.91-20.09-1.24-.61-7.61-4.66-7.76-5.27,1.38-2.26,6.99-10.5,9.5-10.5,2.17,0,7.42,6.88,9.32,8.52l-3.82,5.5c3.08,1,4.38-3.06,6.49-3.01.4.01,2.13,4.96,6.51,3.01l-3.93-5.35,9.29-8.57,8.55,7.61-3.9,7.32c2.49.78,5.38-3.66,6.48-3.74,1.95-.15,4.51,4.75,7.51,3.74l-4.96-6.49,9.46-8.16,9.26,8.15-3.75,6.51c3,.25,4.05-1.96,5.51-4,2.84.97,3.78,3.93,7.49,2.99l-3.93-5.35,5.92-5.64v11h52.01v-114.5c-7.34-7.02-14.92-13.7-22.03-20.97-12-12.28-17.6-21.12-32.94-30.06-2.28-1.33-2.32-5.22-6.54-5.36-3.61-.11-7.63,7.86-10.99,9.88l-10.06-10.05c-4.63-.32-13.93,11.09-15.42,10.06l-3.89-5.7c-.59-1.97,4.14-8.99,5.49-9.23l5.38,1.92c-.05-1.73-2.64-1.29-3.56-2.98-2.19-4.03,8.34-13.01,12.07-13.01h379Z"/>
  <path d="M1941.5,263l1.1,2.07-5.26,11.77c-26.13,3.23-50.95,1.74-73.07-13.61-2.56-1.78-4.08-4.01-6.27-5.73-1.07-.84-2.14-2.37-2.99.02-.33.93,6.38,7.23,7.51,8.46,20.06,16.47,51.07,19.87,75.47,13.02-2.75,6.09-1.25,14.55-3.16,20.33-.59,1.79-10.64,2.56-13.29,2.71-18.56,1.07-38.8-1.98-56.53-7.04-.56,2.67.68,1.72,1.97,2.48,5.48,3.23,12.39,3.9,18.51,5.52,1.64,1.35-1.15,1.08-1.96.98-9.85-1.13-19.68-3.71-29.52-5,.93-1.72,3.67-1.08,5.78-2.67,1.58-1.2,1.41-1.1,1.2-3.31-10.03,4.12-15.73,6.63-26.83,3.33-1.33-.4-4.37-1.4-2.19-2.85,2.41-1.6,9.53-3.57,13.33-5.67,4.83-2.67,10.57-6.25,13.69-10.8-3.95-1.08-4.82,2.13-7.06,3.43-11.5,6.71-23.66,13.07-37.49,13.57-5.93.21-12.99-1.65-18.97-2-10.47-.62-22.58.86-31.97-4.07l-1.15,2.1c-5.58.46-22.07-12.14-26.37-9.03,1.09,2.79,4.88,1.67,7.73,2.76,1.91.73,6.29,2.9,7.98,3.99.98.63,1.79-.1,1.28,2.24h-30.99c-.31-3.17,3.25-2.92,5.01-4.73.61-.63,1.89-2.83-.52-2.28-3.66.82-6.94,5.93-11.22,6.79-7.24,1.45-15.93.49-23.27.22l11.04-4.45c12.25-6.08,21.06-15.06,28.95-26.05-4.81-1.44-8.43,6.7-11.5,9.5-19.86,18.09-49.95,28.41-76.53,22.54-11.64-2.57-18.54-10.76-29.96-12.53,5.97,8.17,18.27,8.62,25,15.98-1.13,1.49-20.9,1.61-23.99.01l.68,2.52-1.33,1.34-11.36.13c1.73-2.9,5.84-4.1,9.01-4l-1.53-4c-25.57,14.7-60.56,20.12-87.83,6.86-4.98-2.42-8.57-6.15-13.64-7.85,8.93,12.75,23.49,14.81,37.51,18.01,1.56.36,1.74-.66,1.5,1.98-7.42-.14-14.92,4.99-22.43,3.95-7.21-1-14.6-9.08-21.57-10.93,3.56,6.09,9.35,8.29,14.71,11.75.98.63,1.78-.11,1.29,2.24-4.79-.56-15.42,4.74-19.3,3.84-1.8-.42-7.35-6.22-9.71-7.36l4-9.46c-2.61.39-4.09,2.6-6.62,3.87-8.4,4.22-9.81-1.95-16.37-6.38,10.15-1.91,17.15-10.57,22.99-18.48-5.15.33-8.09,6.44-12.07,9.42s-13.98,8.53-18.95,6.07c-.35-.17-4.82-5.67-4.97-6.03-.71-1.67.66-1.34,1.26-1.69,8.05-4.73,15.49-7.64,22.73-14.27,1.58-1.45,13.23-14.25,11.98-15.51-5.57,2.35-9.39,8.59-13.98,12.51-3.74,3.19-22.88,17.16-26.9,14.38l-3.13-8.37c16.58-5.74,34.52-21.69,42.82-37.21,1.07-2,2.47-3.83,2.19-6.3l-16.34,19.64c-3.94,3.97-25.62,21.17-30.06,20.42l-2.58-7.03c6.21-1.81,11.73-6.78,16.52-11.01,21.09-18.66,25.3-37.9,55.13-47.92,1.55-.52,2.86.88,2.34-2.1-29.48.66-42.24,31.51-61.98,48.51-2.04,1.76-11.73,9.94-13.92,8.41-1.42-3.39-1.41-6.82-5.07-8.42,26.37-18.06,44.34-61.01,81.32-60.43,9.72.15,26.12,5.9,27.65,16.92-23.72-5.8-35.5,21.46-20.42,38.93,11.47,13.28,31.35,13.15,46.43,6.57,21.42-9.35,39.38-37.49,66-30.49-9.55,18.36,2.27,29.84,21.49,27.98,25.26-2.45,45.99-39.85,64.5-55.5,19.73-16.68,51.99-25.57,70.01-1.98-7.72-.35-12.78-1.42-20.22,1.77-26.57,11.39-17.07,50.34,8.43,58.03,46.66,14.08,60.48-51.24,95.26-49.35,1.54.08,10.66,2.96,8.54,5.04-16.05,3.14-15.84,24.95-5.49,35,6.62,6.43,26.97,14.01,35.99,14.01h22ZM1764.99,197.01c-4.08-1.88-7.03-.48-10.99.5-24.49,6.02-37.92,35.52-56,51-20.28,17.38-56.41,26.95-73.45.43-1.4-2.19-1.62-5.05-2.83-6.67-.45-.6-3.35-2.3-2.71.21,5.9,23.23,31.92,30.12,52.74,24.79,38.24-9.8,48.35-50.48,81.56-66.44l11.67-3.81ZM1750,235.5c-.31-6.14.23-12.37,0-18.5-1.69.58-2.75,5.1-2.92,6.58-3.98,34.47,29.72,53.36,60.33,49.33,14.78-1.94,38.03-17.51,42.59-32.41l-8.36,9.14c-6.45,3.43-15.69,14.13-21.72,16.78-13.1,5.74-37.62,3.49-49.84-4.01-1.51-.93-13.09-9.64-13.55-10.37-.41-.64.37-2.22-.02-3.05-1.12-2.38-3.29-4.19-3.53-6.99l-1.97,1.99c-1.35-2.32.06-4.42-.09-6.4-.08-.98-.9-1.76-.92-2.09ZM1739,223.01c-1.79-.38-2.44.92-3.51,1.98-6.39,6.31-12.23,18.12-18.52,25.48-20.91,24.49-58.8,37.52-87.89,18.95-4.31-2.75-10.17-10.07-13.6-11.41-4.08-1.59,2.77,7.53,3.62,8.38,26.22,26.5,73.91,17.07,96.92-8.87,9.02-10.17,15.12-23.44,22.98-34.51ZM1607.99,259c-11.43,5.11-20.58,13.67-32.47,18.02-20.14,7.36-43.19,1.51-56.5-15.55-8.41-10.79-8.21-18.12-10.28-30.73-.15-.9-.42-3-1.74-2.74-5.03,33.14,23.3,58.05,55.53,56.03,14.51-.91,33.22-10.35,43.38-20.62,1.16-1.17,2.28-2.64,2.08-4.41ZM1921,269.01c-16.78-1.75-35.26-4.15-47.43-17.08l-9.55-19.93c-.13,25.66,27.87,39.39,50.52,39.05,1.38-.02,6.02-.3,6.47-2.04ZM1739.72,251.28c-.37-.56-3.23-2.37-2.73.22,2.54,13.23,23.87,26.25,35.74,30.27,22.47,7.61,69.92,3.52,81.27-21.29.2-.43.25-1.64-.49-1.48-17.3,15.05-35.35,24.39-58.99,22.98-18.99-1.13-41.11-10.96-52.98-26.03-1.2-1.52-1-3.44-1.81-4.68ZM1566.5,269c-4.5.56-9.88-.41-14.5,0-.21,3.19,2.19,2.86,4.45,3.05,15.79,1.32,31.86-6.23,43.03-17.07.78-.76,2.64-2,1.01-2.99-9.52,6.3-22.41,15.57-33.99,17.01ZM1608,275.01l-13.33,9.16c-28.75,15.4-59.99,12.4-83.16-11.17-4.58-4.66-7.21-11.15-12.5-14.99,3.65,18.8,31.68,36.91,49.6,38.89,20.08,2.23,48.59-3.13,59.39-21.88ZM1921.99,291c-20.42.9-40.87-2.43-58.98-12-1.52,1.61,5.51,6.2,6.67,6.82,13.82,7.41,35.54,9.98,50.82,7.15,1.63-.3,1.73.65,1.5-1.96Z"/>
  <path d="M566,323.5c-2.77,20.62-21.39,27.87-38.99,32.01-13.56,3.19-19.52.45-30-8.02-.42-2.16,1.01-1.53,2.52-1.52,4.26.03,9.53,1.85,13.94,2.08,14.67.77,29.13-2.99,37.35-15.73,14.05-21.76-2.43-47.31-27.81-41.32,17.59-25.05,50.13-12.41,69.01,4.5,18.7,16.74,31.97,46.59,62.4,42.42,12.35-1.69,17.53-15.83,9.58-25.39,19.38-10.78,34.21,17.93,51.49,18.54,28.58,1.01,38.88-56.05,77.08-43.13,12.42,4.2,21.53,23.52,14.93,35.05-14.51-15.41-28.82-18.17-47.42-7.4-16.22,9.39-30.62,30.56-51.07,26.43-.48,2.6.49,1.76,1.99,2.45,21.77,10.05,44.97-32.09,69.45-31.49,9.92.24,30.27,8.41,25.55,21.03-7.64-3.07-14.8-8.91-23.49-8.99-6.43-.06-18.95,3.58-23.32,8.67-.62.73-2.24,2.84.31,2.31,11.37-7.5,24.08-9.23,36.75-3.72,10.77,4.69,6.67,8.7.13,15.57-11.16-5.83-18.26-6.27-29.35.18l.5,1.99c6.58-2.03,12.9-3.78,19.9-2.93,9.16,1.11,7.46,4.04,2.09,8.91-16.14,14.65-37.24,21.05-58.29,24.71-38.23,6.65-76.96,9.11-115.75,10.37l-1.3-.24-5.73-9.8,1.11-2.03c24.6,8.57,57.25,11.08,77.46-8-4.73.57-8.06,4.3-12.45,6.04-22.05,8.75-40.79,5.52-62.27-.84-1.92-.57-4.77.31-6.08-.43-.51-.29-5.74-7.88-7.17-9.32-4.02-4.04-11.25-9.15-16.35-11.65-2.29-1.12-9.25-2.54-10.21-3.79s6.7-10.79,5.52-14.03c-3.98,1.88-6.61,10.94-10,12.48-4.05,1.85-8.77-.82-12.99-.49.5-1.61,2.64-1.89,4.05-3.44,4.25-4.68,9.29-15.81,9.94-22.06.47-4.53,1.22-13.94-2.99-16.49-.49,5.2.68,11.45,0,16.5ZM603.65,322.35c-11.52-12.02-27.32-32.29-45.14-34.35-1.8-.21-7.57-1.08-6.51,2,25.81,1.77,38.51,26.64,55.53,41.98,6.23,5.61,17.73,13.93,25.67,16.33,20.41,6.16,44.29-1.34,49.79-23.3-5.59,6.11-7.79,12.34-15.68,16.81-23.83,13.48-47.49-2.59-63.66-19.46ZM803,307.99c-7.34-13.58-30.8-13.73-42.33-5.82-2.5,1.71-5.57,5.64-1.01,4.02,4.17-1.48,8.15-4.47,12.93-5.1,7.53-.99,15.97-.08,22.94,2.89,1.59.68,6.71,4.7,7.47,4.02ZM686.12,339.13c-8.7,12.09-25.44,20.38-40.66,19.91-22.79-.7-40.47-13.81-54.43-30.57-4.85-5.83-8.12-14.07-15.02-17.47-.6.72,1.61,4.46,2.16,5.33,18.67,29.42,52.54,58.23,89.81,42.16,10.65-4.59,12.73-11.57,19.34-16.23.66-.47,1.85-.27,2.67-.26l-.98-2.51-2.9-.35ZM691.01,343c-.44,3.03,2.44,5.23,4.52,6.97,8.24,6.92,18.39,9.23,28.98,8.03,8.05-.92,25.27-10.86,25.49-20-16.1,19.99-39.68,22.3-58.98,5ZM588.65,346.35c-.9-.86-2.5-1.73-3.64-2.35-1.96,2.55,7.53,11.32,9.52,12.97,2.62,2.18,19.18,13.09,21.47,11.02.42-2.05-1-2.32-2.3-3.19-10.71-7.19-15.28-9.11-25.05-18.45ZM764,345.01c-6.66-.18-8.86,4.48-13.08,7.41-17.96,12.44-29.95,18.44-52.14,11.3-3.13-1-9.82-6.51-11.78-2.73,5.14,1.9,9.37,5.13,14.79,6.72,19.27,5.66,35.41-1.39,50.71-12.71l11.5-9.99ZM780.99,359.01c-14.43-7.44-27.22,7.66-40.01,12.47-7.47,2.81-13.69,3.03-21.42,3.7-1.18.1-4.17-.66-3.55,1.31,4.59,3.15,12.13,1.4,17.2.22,14.69-3.41,25.76-14.57,40.44-17.65l7.35-.05ZM683.99,359c-.66-.57-12.9,7.17-15.31,8.18-9.48,3.94-17.82,5.36-28.22,4.86-6.44-.31-13.01-2.55-19.45-2.55,2.21,2.95,5.39,3.47,8.77,4.23,18.24,4.08,38.22.29,52.35-12.12.44-.39,3.62-1.08,1.87-2.6Z"/>
  <path d="M831,602c-.41,7.04-8.01,9.54-11.75,14.48,2.1,3.88,23.76,27.63,20.75,30.51-13.11-1.12-21.3-15.03-29.64-23.89l-16.36,7.91c-1.38,1.55,14.15,29.94,12.92,35.36l-2.4,1.63c-3.82-.84-19.5-26.9-21.54-32l-19.88,5.11c-.79,11.2,3.23,23.29,1.95,34.45-.16,1.43-.12,2.61-1.56,3.44-3.26,1.39-6.7-9.09-7.53-11.45-2.72-7.79-4.31-16.37-6.06-24.43l-21.89-1.09c-1.09,8.32-3.61,18.03-6.55,25.95-.74,1.99-3.54,10.61-5.95,10.04-.92-.77-1.7-1.81-2.06-2.95-2.39-7.57,2.27-25.03,2.59-33.56l-1.02-2.01-22.94-6.42c-1.29,3.96-3.74,8.02-6.04,11.47s-14.11,21.21-18.02,18.47c-1.2-3.01.3-5.38,1.25-8.25,3.22-9.69,9.94-18.13,12.32-27.77-3.88-1.45-15.8-10.73-18.9-10.04-.84.19-1.03,1.85-1.77,2.42-5.23,4.07-10.68,9.43-15.98,13.07-2.04,1.4-12.26,8.2-13.93,6.56-.31-2.38.29-3.98,1.54-5.95,5.4-8.52,16.1-15.57,22.44-23.54l-12.54-12.56c-8.16,3.95-16.29,10.18-24.91,13.1-2.88.98-9.9,3.94-10.58-.54.03-5.1,24.68-17.25,29.03-21.06.5-2.26-11.82-12.83-5.5-17.42,7.59,7.05,14.85,14.55,23.03,20.95,46.82,36.6,102.75,41.34,157.15,18.2,3.27-1.39,18.49-10.84,20.32-8.17Z"/>
  <path d="M1660,421.01c-.98,7.43-6.68,11.93-9.76,18.5.13,1.9,27.65,19.85,26.76,23.97-.74,3.41-7.6.07-9.35-.63-8.92-3.57-17.93-9.53-25.15-15.85l-14.45,12.6c2.46,4.03,23.2,27.84,19.95,31.39-13.02-3.23-20.48-16.87-30.64-24.83l-17.21,7.98c-1.43,2.27,8.73,28.81,9.22,35.07.1,1.3.86,1.67-.89,2.78-4.92,1.04-13.7-16.37-15.66-20.32-1.85-3.72-3.93-8.6-4.84-12.67l-21.93,4.04c-.52,11,.72,25.45-2.57,35.98-.44,1.4-.08,2.31-2,2-2.69-.34-3.36-3.85-4-6.02-1.37-4.66-4.22-30.52-5.44-31.55l-22.08-1.05c-4.13,9.73-6.76,21.65-12.44,30.61-1.27,2.01-1.91,4.33-4.98,4-1.15-.21-1.53-4.11-1.48-5.37.37-9.21,5.58-20.95,6.74-30.4l-.78-1.75-20.34-6.57c-4.42,4.94-19.81,28.17-25.18,29.08-2.2.37-1.53-1-1.55-2.54-.09-8.97,12.74-23.87,17.02-31.98l-15.04-9.08c-10.19,7.71-19.01,21.22-32.93,21.58-.84-7.05,25.98-26.33,25.98-28.49-3.84-4.88-11.54-8.46-10.98-15.49,1.91-1.88,16.36,8.59,19.32,10.17,51.47,27.34,115.03,26.24,162.99-8.36,3.47-2.5,20.9-18.97,23.68-16.81Z"/>
  <path d="M1961.99,484.99c-13.89-1.24-21.04-14.63-30.64-22.89-.97-.17-8.48,5.37-10.31,6.44-2.06,1.21-6.98,1.35-5.56,4.45,4.28,9.38,10.93,18.12,13.83,28.19,2.69,9.34-3.99,3.77-7.28.29-7.07-7.49-11.36-17.25-18.03-25.05l-20,4.58,5.03,32.52-2.56,5.47c-3.09.69-7.05-9.75-7.95-12.02-2.96-7.45-5.21-16.02-6.56-23.94l-20.51.21c-2.27.41-6.72,31.51-10.37,36.15-1.44,1.82-4.13.12-4.03-1.95-1.75-11.23.03-23.47.84-34.88l-23.73-6.44c-1.16,3.08-19.19,35.24-23.15,30.86-.32-12.35,7.55-24.75,12.89-35.5l-19.25-11.4c-10.58,7.57-18.59,20.63-31.63,23.9-2.85-3.06,10.02-17.2,12.48-20.01,2.78-3.18,6.2-5.89,9.08-8.99,1.03-2.31-10.52-11.77-13.05-13.02-8.75,4.1-22.19,15.42-31.99,15.05-1.47-.05-2.97.66-2.5-1.52.9-4.15,23.53-17.69,27.92-21.16-1.38-6.69-8.97-10.57-6.94-18.35.68-.79,4.59,2.33,5.47,3.02,7.24,5.71,13.85,12.85,21.61,18.39,45.7,32.57,108.6,36.2,158.59,10.76,2.91-1.48,13.66-9.41,15.68-9.02,9.48,1.86-9.45,13.47-9.21,16.16,2.02,3.9,24.99,26.57,21.85,29.67Z"/>
  <path d="M447,668.5c-.24,2.62-3.57,22.5-5.5,22.48-7.44-10.61-5.91-26.36-7.49-38.99l-22.42-1.82c-5.16,9.28-7.79,20.14-13.42,29.5-1.49,2.47-2.71,6.03-6.15,5.33-4.04-2.67,5.73-32.54,6.99-37.98l-21-6.59c-3.83,4.78-21.47,28.82-26.51,28.55-1.45-1.04-1.54-1.67-1.46-3.37.29-6.11,19.32-29.78,17.96-31.59l-14.5-9.97c-6.95,6.57-15.62,15.43-24.2,19.76-1.16.59-8.58,4.7-8.35.67.41-7.21,20.3-20.99,25.02-26.97,0-1.22-14.33-11.14-8.46-15.5l24.1,14.88c54.63,28.14,116.04,23.23,164.85-13.91,1.14-.87,14.85-15.12,15.49-8.49l-9.94,17.48c5.25,3.8,11.69,7.82,16.51,12.01,2.03,1.76,11.83,10.68,9.47,13.02-12.96-.99-23.27-10.86-33.5-18.03l-14.45,12.45c7.32,9.63,16.01,18.91,19.95,30.58-1.96,2.53-9.34-3.52-11.21-5-6.8-5.41-13.12-13.17-18.38-20.07l-18.43,7.59-.8,1.77,8.72,35.07-2.37,1.65c-9.55-8.84-14.59-21.74-18.61-33.91l-21.9,2.92c-.36,5.35.49,11.22,0,16.5Z"/>
  <path d="M1103.99,613c2.53,2.56-9.05,14.01-8.91,17.32.37,1.42,16.26,12.72,18.93,15.17,12.9,11.83,6.17,12.23-6.23,6.23-7.47-3.62-13.54-9.03-20.29-13.75l-13.33,10.21c-.72,1.22.02,3.31.59,4.57,1.92,4.24,21.74,25.61,18.23,29.25-12.07-3.69-21.04-16.06-29.69-24.88l-19.31,7.9c-1.09,1.44,10.47,28.28,10.09,34.5-.58,9.52-9.77-4.78-11.5-7.59-4.3-6.97-7.03-14.98-11.22-22l-20.36,3.08c.07,13.42-.48,27.16-4.49,40-2.01-1.75-3.34-3.14-4.24-5.76-3.16-9.2-3.48-23.47-4.26-33.24l-23.02-1.55c-4.85,9.39-7.33,20.14-12.82,29.22-1.89,3.12-2.79,6.2-7.16,5.33.22-12.71,4.61-24.63,7.8-36.74l-.78-1.76-19.37-6.41c-4.89,5.37-21.05,28.52-28.15,27.93-3.49-6.25,19.08-31.9,17.49-34l-15.36-8.94c-6.85,6.13-19.79,19.28-28.6,21.49-4.92,1.23-1.69-4.78-.05-7.07,2.7-3.77,20.61-19.26,20.94-21.13-3.14-5.69-10.67-8.84-9.92-16.36,1.28-1.32,22.58,12.81,25.97,14.52,58.61,29.72,116.57,20.29,167.5-18.56,3.66-2.79,5.81-7.89,11.53-6.96Z"/>
  <path d="M271.99,671.99c-12.68-.06-23.12-9.89-33.67-15.85l-14.24,10.97c-1.65,2.41,22.78,25.65,19.91,32.88-2.06,2.25-28.23-20.74-29.09-24.92l-19.9,8.94c1.07,5.11,14.04,34.88,11,36.99-4.63.5-6.43-3.63-8.81-6.69-5.66-7.28-10.28-16.48-13.3-25.2l-20.93,4.4-.67.92c1.76,12.51.53,25.41-2.29,37.56-3.78.67-4.27-2.31-5.27-5.23-3.5-10.21-4.08-22.1-5.77-32.72l-22.82-.92c-3.02,8.19-5.11,16.83-8.67,24.83-1.16,2.6-5.84,14.66-8.99,10.06-2.58-3.78,4.61-31.86,5.52-38.01l-20.05-5.48c-2.09.77-16.27,22.04-19.99,25.93-1.54,1.61-5.58,6.21-6.88,1.88-1.59-5.34,13.12-26.94,15.88-32.86l-15.27-8.39c-9.04,8.46-17.33,18.04-29.22,22.62l-2.42-2.36c-.1-.56,5.44-8.23,6.43-9.38,2.8-3.26,16.81-14.41,17.4-16.69.98-3.75-11.98-10.72-10.89-16.29,1.07-.06,2.02-.69,3.13-.51,3.42.53,15.71,9.4,20.2,11.68,51.6,26.22,111.67,20.62,158-13.34,3.38-2.48,20.48-18.15,22.15-17.83,1.79.34,1.43,2.61,1.07,4.03-.84,3.33-8.69,13.11-8.47,14.35,4.73,5.04,11.73,7.83,16.93,12.11,1.7,1.4,11.76,10.8,9.98,12.51Z"/>
  <path d="M2779.99,647c2.42,4.91-11.98,15.17-11.98,16.5,3.6,3.74,24.72,24.39,23.99,27.98-2.35,3.28-6.02.02-8.53-1.45-8.17-4.81-15.93-12.72-23.12-18.92l-16.36,8.91c4.21,8.26,10.48,16.92,14.19,25.3.48,1.08,3.93,9.81,1.27,9.72-12.01-6.11-17.69-19.89-26.44-29.57l-19.02,5.54c-1.02,1.03,4.69,24.31,4.99,28.51,1.21,17.28-4.64,9.71-9.15.16-3.64-7.7-6.49-17.23-7.87-25.62l-21.96.94c.66,4.5-7,37.98-9.5,37.99-3.86-2.47-4.13-8.08-4.49-12.49-.72-8.96,1.21-17.9.41-26.61l-23.3-4.77c-1.49,4.98-16.11,32.83-20.61,31.88-2.11-1.45-1.52-3.14-1.28-5.23,1.12-9.64,8.94-20.89,11.64-30.46.27-.91-.27-1.27-.86-1.8-.98-.89-18.35-8.73-19.36-8.43-1.67,3.65-27.16,27.72-29.65,24.91-.65-3.93,1.13-6.4,2.97-9.52,3.53-5.97,14.54-15.77,16.54-20.53,1.49-3.53-10.16-10.61-12.02-13.93-3.87,4.39-30.02,20.91-34.49,16.98-.11-2.19,1.55-4.07,2.95-5.54,5.84-6.1,15.89-11.48,22.58-17.48.68-.61,1.55-.94,2.46-1v-1.46c-4.02-4.2-8.64-9.47-8.99-15.52,2.75-2.64,13.89,8.93,16.54,10.95,51.19,39.03,109.46,45.48,167.13,15.21,2.76-1.45,19.66-12.93,21.32-11.17Z"/>
  <path d="M2492.99,639c1.32,5.01-12.36,13.86-11.92,16.36,7.25,9.5,18.11,16.93,21.92,28.63-4.16.78-6.2-1.25-9.31-3.18-8.45-5.25-14.99-12.91-22.18-19.64l-15.51,7.84c-1.25,1.43,15,26.48,14.03,34.48-.18,1.46.46,1.73-1.54,1.53-11.18-6.9-15.4-19.89-23.5-29.58l-19.94,4.61c-1.3,1.35,3.87,27.93,3.99,32.5.07,2.53-.57,4.76-2.54,6.43-9.33-10.04-10.65-24.31-14.63-36.85h-20.73c-3.49,11.07-4.52,25.76-10.89,35.58-.63.96.11,1.79-2.22,1.28-4.35-3.95-.6-32.33-.01-38.99l-23.01-5.58c-5.25,7.99-9.64,17.92-16.02,25.04-1.07,1.2-6.3,7.27-7.97,5.52-.41-4.95,1.57-9.69,3.23-14.26,2.22-6.12,7.93-14.98,9.36-20.69.29-1.16-.3-1.39-1.05-2.05-1.19-1.04-16.9-10.04-17.9-9.85-3.4,3.69-27.59,26.93-31.64,22.85l.52-3.97,21.37-24.72c.91-3.47-10.42-10.01-12.54-13.2-10.88,6.3-21.43,14.63-34.35,15.89l1.3-4.7,26.51-19.79c-3.73-2.15-14.14-22.21-3.27-15.56,3.45,2.11,10.47,10.36,14.44,13.56,51.83,41.83,114.97,46.47,173.71,15.68,3.91-2.05,6.72-6.42,12.3-5.19Z"/>
  <path d="M1365.99,491c2.23,8.09-6.96,12.52-5.53,20.01,7.48,4.59,16.86,7.9,23.87,13.16,2.05,1.54,5.48,4.1,5.67,6.82-2.39,3.22-32.34-7.2-35.49-11.98-1.92,4.26-10.47,10.91-12.06,13.99-.75,1.45-.23,1.47.5,2.52,5.66,8.23,17.85,14.45,24.06,23.98,2.68,4.11-4.49,1.5-5.97.97-10.32-3.73-19.52-12.23-28.53-18.31-3.03,4.53-12.84,7.75-15.58,11.29-.87,1.13-.85,1.19-.51,2.54,1.33,5.24,8.19,14.89,10.78,20.32.74,1.54,5.32,12.22,4.82,12.67-5.21.35-9.72-4.9-13.02-8.47-5.7-6.15-9.69-13.66-14.57-20.4l-19.93,7.81c.57,5.46,5.77,36.77,2.52,39.05-3.57-.38-6.13-6-7.48-9.01-3.5-7.85-6.24-18.55-7.51-26.99l-24.01,2c-.69,12.5-2.79,27.82-10.5,37.98-4.64.02-1.59-33.96-1.94-38.05l-20.62-3.43-19.46,32.49c-1.11.24-2.02-.68-2.33-1.65-2.13-6.68,7.53-27.07,10.75-33.86l-16.87-8.46c-1.93,5.49-21.34,27.04-25.58,26.97-1.33-.02-1.64-.57-2.42-1.47,4.71-11.46,13.32-20.68,19.95-31.01-.02-1.09-16.09-7.62-11.98-13.5,16.06,5.31,30.97,11.75,47.81,14.68,47.67,8.3,96-7.29,130.2-41.17,5.62-5.57,10.39-13.66,15.45-18.55,1.46-1.41,3.35-3.07,5.53-2.96Z"/>
  <path d="M2060.75,472.27c16.98,36.44,47.09,65.99,85.48,79,21.1,7.15,46.07,10.28,68.26,7.71,7.82-.9,17.03-4.44,24.17-4.92,9.04-.6,2.12,5.78-1.94,8.14-1.74,1.01-9.64,3.51-9.79,4.41,2.34,12.26,11.89,22.78,12.08,35.38-2.18,2.27-10.53-8.84-11.82-10.66-4.12-5.84-8.15-13.46-10.23-20.29l-17.28,3.12-1.55,1.42c1.05,11.09,4.7,22.82,3.89,33.94-.11,1.49.78,2.89-1.49,2.48-6-2.44-13.1-30.06-14.65-36.86l-20.86-1.14c-1.12,9.55-2.68,21.84-5.48,31.02-.84,2.74-1.63,5.16-4.02,6.96-6.29-11.77-2.78-26.94-2.63-39.85l-19.38-6.89c-2.11.17-18.69,33.66-22.97,32.76-3.12-2.96-1.01-8.37-.02-12,2.42-8.83,8.38-17.3,10.59-26.36l-19.59-12.47c-3,3.45-29.46,26.96-32.49,23.83.11-6.42,6.3-13.19,10.48-18.01,2.38-2.74,11.08-9.9,12.05-12.01.61-1.32.61-1.64,0-2.96-.43-.93-13.01-14.71-14.02-14.78-6.18,3.87-29.72,14.36-35.89,12.68-.56-.15-2.01-1.25-1.19-1.95,1.33-5.41,24.15-14.97,29.59-18.47,2.34-2.37-2.99-8.11-4.41-10.6-1.15-2.01-1.91-4.66-2.68-6.86-7.11,1.6-14.1,4.35-21.45,4.96-2.61.21-15.99.78-16.48-1.5-.02-2.08,1.94-2.78,3.44-3.53,4.79-2.39,29.17-7.52,30.13-8.91.54-5.79-5.33-12.66-.09-18.02l2.26,1.25Z"/>
  <path d="M396,231c.45.42-4.84,9.27-5.47,11.02-18.59,50.82,28.33,96.7,78.48,78.99-8.16,10.31-19.66,20.23-32.56,23.93-53.82,15.42-97.63-47.1-66.07-93.07,5.8-8.46,15.66-18.06,25.63-20.86Z"/>
  <path d="M2093,155l14.97-9.53c23.13,1.23,51.97-3.25,74.55-.5,5.35.65,8.97,4.68,13.46,7.02.17-7.09,2.47-6.66,8.44-7l266.64.44.94,9.56h-379Z"/>
  <path d="M712,141.01l-20.82,21.75,4.81,28.24-26.49-13.06-27.5,13.05,5.84-28.29-20.82-21.2c.95-1.63,2.12-1.21,3.48-1.5,5.75-1.25,22.7-1.41,26.06-3.94l12.95-26.05,12.91,26.08,29.58,4.93Z"/>
  <path d="M2472,131c-.36,2.35,1.18,10.22-1.58,10.88l-270.42-.89,5.49-9.99h266.5Z"/>
  <path d="M2471,126.99l-264.01.5c5.12-16.38,23.45-9.53,36.5-9.41,10.03.09,20.12-.09,29.97-.04,63.03.31,126.07-.28,189.1-.11,4.32.52,5.37,6.17,8.44,9.05Z"/>
  <path d="M1060,201h-286c-.21-3.31.07-8.11,4.44-8.06h278.11s3.02.99,3.02.99l.44,7.06Z"/>
  <path d="M2462,113.99l-246.01-.5c1.89-4.33,6.54-10.22,11.59-10.42,2.04-.08,4.36.98,6.88.98,72.42.11,144.61-.28,217.1-.1,4.43.59,8.07,6.48,10.45,10.04Z"/>
  <path d="M2228.5,100c-.46.02-1.74,2.57-1.49-.49,4.46-3.3,8.5-9.53,14.44-9.56l195.07.02c5.11.61,11.84,8.28,15.48,12.01-1.75.7-3.72-1.99-4.5-1.99-71.69,0-147.89-3.28-219,0Z"/>
  <path d="M773,204c5.66-1.55,10.92,0,16.45.02,43.66.24,87.82.05,131.08.05,41.62,0,84.51,1.18,126.03-.04,3.67-.11,8.5-1.97,11.8-.89s.86,8.66-2.79,7.9h-276.11c-4.24.49-6.55-3.19-6.45-7.05Z"/>
  <path d="M250.16,93.83l23.83,2.17c.45,1.73-.72,2-1.49,3-2.23,2.9-15.1,13.64-15.34,14.69l4.83,24.3-21.66-10.83-22.34,10.83c1.1-4.32,5.5-19.83,4.79-23.26-.79-3.81-18.82-16.92-16.79-18.72l24.01-2.49,9-21.51,11.15,21.83Z"/>
  <path d="M1059.99,190.99l-282-1.48c4.73-2.89,9.67-6.27,15.47-6.55l260.1-.02c2.66-1.26,6.86,7.68,6.44,8.05Z"/>
  <path d="M1054,214c1.76,1.53-9.39,8.03-11.45,7.05l-256.07-.03c-3.52-.17-7.84-3.36-8.48-7.02h276Z"/>
  <path d="M2137.99,22l-13.02,10.47c-17.05,18.73-11.61,50.4,9.32,63.72l15.7,6.79c-66.62,17.53-81.37-80.44-12-80.98Z"/>
  <path d="M2433,86h-190c-.55-2.32.43-1.65,1.26-2.29,3.11-2.42,9.48-7.29,13.21-7.74l163.56.49c3.9,2.36,10.34,5.09,11.97,9.53Z"/>
  <path d="M802,180l.44-6.07,3.02-.98h230.08c6.37.71,12.69,2.01,17.46,6.56.16,3.28-2.04.49-2.49.49h-248.5Z"/>
  <path d="M1028,160h-219c1.41-3.91,5.43-7.3,9.56-7.94,6.97-1.08,35.96-1.12,42.99-.12,4.81.69,5.46,3.19,11.88-.02h148.13c4.07.03,4.96,5.04,6.44,8.07Z"/>
  <path d="M1030,170h-226c1.39-9.83,5.01-7.06,11.46-6.95,53.66.92,107.27-1.06,160.91-.71,14.81.1,36.2-1.08,50.18.62,4.74.58,3.36,2.96,3.45,7.05Z"/>
  <path d="M2024.86,70.16c.64,1.13-.34,3.52-1.17,4.55l-112.31,103.12c-3.96,2.58-10.96,3.31-15.61,3.47-1.03.04-1.4,1.34-2.75-.8l124-115.49h1.46s6.39,5.16,6.39,5.16Z"/>
  <path d="M1968.42,106.42c-22.07,20.39-46.29,45.7-69.41,64.09-2.04,1.62-4.21,3.78-7,3.49.1-3.39-3.51-6.71-1.51-10l115.69-106.82c4.33-1.09,7.18,2.58,9.79,5.32-15.54,14.97-31.72,29.28-47.56,43.92Z"/>
  <path d="M1005,358l106.01,113.49-11.84,3.37c-9.45-13.1-21.69-24.05-32.69-35.85-13.17-14.14-25.77-28.92-38.97-43.03-2.99-3.2-22.51-20.9-22.51-22.49v-15.5Z"/>
  <path d="M1902.99,18c.39,1.63-.56,2.04-1.46,3.03-2.99,3.31-9.04,7.25-12.55,10.45-29.57,27.07-58.96,54.37-88.51,81.49-7.26,6.66-9.45,11.51-19.82,15.21-.94.33-1.16,1.49-2.16-.17-.42-.71-1.28-3.93-1.27-4.73.06-3.55,26.35-25.62,30.78-29.76,25.84-24.16,51.65-48.33,77.48-72.52,5.39-4.52,11.44-2.12,17.5-2.99Z"/>
  <path d="M1526.01,21l18.99-10.99c-1.57,2.58-11.4,16.97-9.98,18.96l20.98,6.02-21.99,4.02,9.99,19.99c-2.43-1.77-17.08-12.89-18.98-11-.81,4.9-1.53,10.01-2.66,14.85-.32,1.36-.68,4.96-2.33,5.15l-4.02-19.99-18.99,9.99,9.99-17.98c-1.73-2.23-18.98-2.69-21-7l21-4.02-11-18.98,18.99,10.99,5.02-20.99c1.91.35,1.66,2.08,2.04,3.45,1.54,5.53,2.49,11.92,3.96,17.55Z"/>
  <path d="M1958.37,83.38c12.58-11.6,25.82-22.55,37.65-34.95l8.93,5.18-29.45,27.46c-2.17,2.54,1.21,4.68-5,4.82l-79.97,74.16-2.55.52c-2.03-2.58-5.67-5.77-3.03-9.12,24.85-22.28,48.91-45.44,73.43-68.06Z"/>
  <path d="M1994,45.01l-114.02,104.52-4.91-6.17,108.42-101.46c3.25-2.14,7.3,2.45,10.52,3.11Z"/>
  <path d="M1916,179.99c-.37-1.61.55-2.04,1.46-3.03,16.85-18.18,40-36.38,58.54-53.46,14.48-13.33,33.39-28.79,46.53-42.47,1.73-1.8,3.2-3.38,3.5-6.01,2.35-1.65,9.61,6.06,7.5,8.96l-103.99,96.06c-4.09,2.51-8.91-1.03-13.55-.05Z"/>
  <path d="M1923,20.01c-19.97,17.82-40.27,35.41-60.04,53.45-15.89,14.51-31.23,30.19-47.41,44.59l-16.54,2.95c-.36-1.75.9-2.47,1.98-3.51,34.56-33.39,71.93-64.12,106.47-97.53,4.47-2.53,10.78-.2,15.55.06Z"/>
  <path d="M1962.42,56.42c-29.43,27.4-59.2,54.46-88.5,82.02l-2.94,1.1-6.98-5.56,106.13-99.89c2.12.44,11.39,2.98,10.85,5.38-.28,1.23-16.08,14.62-18.57,16.94Z"/>
  <path d="M1859.45,119.41c16.94-16.85,35.88-31.76,53.07-48.39,3.27-3.16,2.37-3.07,5.99-5.99,13.82-11.19,25.97-25,39.53-36.59l9.95,4.06-106.01,98.04c-1.7,1.54-9.94-3.37-9.95-4.04,2.66-2.21,4.99-4.66,7.43-7.08Z"/>
  <path d="M1838,121.99c-.46-1.92.71-1.92,1.68-2.81,29.14-26.58,58.11-53.23,87.33-79.67,3.72-3.37,11.11-12.62,14.44-14.58,2.83-1.67,13.59,1.33,13.53,2.57l-105.04,95.96c-3.88,3.37-7.62-1.57-11.93-1.46Z"/>
  <path d="M1939,22c.38,1.67-.54,2.02-1.51,2.98-22.48,21.86-48.79,40.78-68.73,64.79-.77.93-2.83.27-4.25,1.19-7.21,4.63-17.64,17.95-25.02,24.01-6.75,5.54-8.33,6.06-17.47,4.02-1.16-1.1,6.8-8.38,7.98-9.51,31.58-30.16,64.96-58.41,96.5-88.58l12.51,1.1Z"/>
  <polygon points="2037.98 85 2042.92 92.64 2042.56 93.99 1943.86 185.91 1932 182.99 2037.98 85"/>
  <path d="M1881,20l-104.45,97.05-3.59.51c-1.51-2.49-4.01-6.44-2.04-9.09l92.02-85.02c4.69-3.25,12.5-2.47,18.05-3.44Z"/>
  <path d="M1096,476.99c-4.64.07-9.91,4.17-14.08.58l-75.37-81.62c-2.85-4.29-1.1-10.03-1.54-14.95,1.73-.45,2,.72,3,1.49,6.75,5.18,16.13,16.07,22.39,22.61,18.25,19.07,35.28,39.35,54.12,57.88l11.48,14.01Z"/>
  <path d="M1452.32,311.66c4.14,2.65,8.75,3.69,13.34,5.23,1.55.52,2.86-.88,2.34,2.1l-162.99-1.01,17.47-9.01,126.09-.04c2.66-.66,2.95,2.21,3.75,2.73Z"/>
  <polygon points="2045.85 97.19 2051 105.98 1956.02 192.53 1947.47 188.02 2043.21 97.28 2045.85 97.19"/>
  <path d="M2413,72h-149c2.36-2.37,6.91-4.17,10.03-5.47,4.67-1.95,9.4-3.81,14.48-4.52,31.9,1.8,66.45-2.43,98.03-.05,6.61.5,17.47,4.51,23.44,7.56,1.16.59,2.78.93,3.02,2.48Z"/>
  <path d="M189.35,219.64c-12.27-12.65-24.07-29.16-35.84-42.66-12.9-14.81-33.51-41.31-48.01-51.99-.65-.48-2.89-2.66-2.5-2.99l3.99,1.99.56-3.07c2.96.41,6.7-.66,9.43.59,1.03.47,13.52,14.23,15.53,16.47,18.65,20.83,36.64,42.75,54.97,64.03,3.07,3.57,9.86,7.64,9.49,12.36-.09,1.14-1.88,6.75-2.47,7.64-1,1.51-4.34-1.53-5.16-2.37Z"/>
  <path d="M111.65,134.35c24.43,26.7,46.48,55.93,70.81,82.69,1.15,1.26,2.74,1.92,4.06,2.95l-1,1.97c-2.99-1.62-6.26-.7-9.58-1.41-7.09-1.5-7.14-5.72-10.96-10.04-21.49-24.24-42.43-48.98-63.57-73.43-1.48-1.71-13.55-11.87-11.41-14.09l9.29-.82,12.37,12.17Z"/>
  <path d="M1959.14,195.87c-1.78-3.1,4.47-5.15,6.36-6.88,18.18-16.58,36.35-33.72,54.52-50.48,10.52-9.7,20.51-20.59,31.49-29.55,2.95-.03,5.82,7.62,4.59,9.55l-89.1,82.04c-2.64,1.36-4.75-4.41-7.85-4.68Z"/>
  <path d="M115.42,159.58c16.6,18.86,35.87,38.66,51.09,58.41.77,1,1.94,1.27,1.49,3-5.02-.17-10.81,1.07-15.06-2.43-10.67-14.82-23.5-27.82-35.45-41.55-11.27-12.95-22.41-26.95-33.46-39.49-1.22-1.38-9.2-8.22-8.02-9.51l10.99-1.51c9.66,10.86,18.82,22.19,28.42,33.09Z"/>
  <path d="M2057.67,122.11c2.44-.22,5.43,7.39,3.41,9.42l-85.71,79.4c-1.63.29-8.07-6.25-5.45-8.47l87.76-80.35Z"/>
  <path d="M1977.07,214.1l86.92-80.1c.91,4.05,3.65,8.43,1.06,12.55l-77.04,71.96-6.49,4.49-4.45-8.9Z"/>
  <path d="M75.56,148.41c-1.7-2.02-11.33-12.13-11.52-12.98-.48-2.15,5.63-4.53,7.42-4.47l2.09.97c23.91,27.65,49.1,54.44,72.42,82.59,1.26,1.52,5.29,5.6,3.06,7-3.46.67-8.33,1.45-11.09-.97-20.35-24.43-41.89-47.85-62.39-72.14Z"/>
  <path d="M26.79,181.72l1.7-1.71c23.91,26.81,46.66,54.68,71.04,81.02l-2.54,11.97L15.01,180.48c-.38-2.25.77-1.44,2.27-1.27,2.5.28,7.97,3.42,9.52,2.51Z"/>
  <path d="M2710.15,101.84l17.85,2.16c.63,2.34-.61,1.69-1.28,2.28-3.88,3.45-7.83,6.84-11.59,10.42l3.87,18.28-16.59-8-16.4,8.01,2.78-17.23-12.77-13.27c-.05-2.15,15.76-2.15,18.02-2.96l7.46-15.52,8.65,15.82Z"/>
  <path d="M61.85,137.13l74.14,87.37-9.84,3.36-72.71-83.84-.35-2.34c.49-1.9,7.09-5.52,8.76-4.55Z"/>
  <path d="M360.5,333c.36.1,5.78,4.85,3.99,6.02-1.65-.49-3.17-1.02-4.93-1.07-68.24-2.01-136.82,1.59-205.09.1l-19.46-5.04h225.5Z"/>
  <path d="M1855.99,24c.42,1.84-1.58,2.74-2.8,3.92-4.63,4.47-33.22,28.59-33.92,31.72-.16.71.9,2.24.74,2.35-5.69-1.31-4.61,1.63-7.45,4.06-14.1,12.08-27.11,25.75-40.91,37.6-.77.66-4.02,3.35-4.66,2.88l-4.99-9.51c1.74-.14,3.19-.9,4.51-2.01,21.87-18.38,43.17-44.36,65.58-61.42,7.06-5.37,15.54-7.27,23.91-9.58Z"/>
  <path d="M48.65,197.34c-.71-.83-2.28-1.23-3.19-2.29-5.34-6.21-10.04-13.22-15.93-19.01l2.43-9.49,2.05-.08,71.07,81c2.29,1.66-3.69,10.51-4.59,10.51-17.69-19.87-34.58-40.42-51.85-60.64Z"/>
  <path d="M40.5,155.02l73.07,82c1.16,2.28-4.37,7.24-6.07,8.96l-37.51-44.48c-8.82-10.19-23.03-22.57-30.41-33.6-3.93-5.88-5.35-7.52.91-12.89Z"/>
  <path d="M49.64,145.07l73.9,85.95c-2.2,1.14-5.95,5.17-8.53,3.52l-71.55-81.53,6.18-7.94Z"/>
  <path d="M1005,401l74,79.48c-3.49,2.35-9.02,5.08-12.5,1.51l-61.5-66.49v-14.5Z"/>
  <path d="M199.99,208.99c-1.75.35-2.46-.91-3.5-1.98-21.52-22.2-40.94-49.11-61.97-72.03-2.38-2.59-5.39-5.68-8-8-2.31-2.05-5.46-1-4.5-4.99,3.85.36,7.34.15,11.21,1.29,8.3,2.44,9.2,7.18,14.27,12.73,18.01,19.71,35.19,40.11,52.94,60.05,3.93,4.4.99,8.21-.44,12.93Z"/>
  <path d="M1021,149.99l-25.54.06c-2.02,0-3.85-.91-5.85-.95-32.27-.56-65.57-.66-98.14-.13-6.1.1-13.11,1.79-19.01,1.08-4.97-.6-3.4-2.99-2.21-6.81,1.98-.8,4.1-1.1,6.23-1.28,33.66-2.77,71.03,2.2,105.09-.02,7.04,4.91,7.57,1.32,14.21.32,8.83-1.33,19.29.93,25.24,7.73Z"/>
  <path d="M1330.5,306c-1.07.06-4.04,3.01-3.5-.99,6.62-2.24,11.4-5.75,18.6-6.91,29.04-4.67,64.21,1.25,93.95-1.16,3.19.15,6.58,6.14,7.45,9.06h-116.5Z"/>
  <path d="M2068.99,149l1.1,11.51c-15.73,15-31.88,29.51-48.14,43.94-1.25,1.11-1.79,2.85-3.06,3.94-7.82,6.73-15.17,7.03-24.9,9.59l74.99-68.99Z"/>
  <path d="M1005,422l58.01,63.49c.02.85-9.85,4.14-11.57,1.56-6.79-7.44-13.41-15.35-20.42-22.58-3.4-3.5-26.03-24.14-26.03-25.97v-16.5Z"/>
  <path d="M982,140l-108.95-1.48c1.52-2.3,1.24-6.08,4.45-6.52l100.06-.06c4.36-.05,4.66,4.75,4.44,8.05Z"/>
  <path d="M977,129h-98c1.1-4.1,4.41-6.66,8.44-7.06,26.15-2.58,56.5,2.09,83.11.01,3.41.08,6.15,3.81,6.45,7.05Z"/>
  <path d="M172.65,144.35c9.81,9.43,26.91,29.37,28.66,42.87.16,1.27,1.23,1.39-.81,2.76l-54.49-60.5c-.87-2.58,2.92-.36,3.96.05,8.94,3.56,15.8,8.21,22.68,14.82Z"/>
  <path d="M1006.98,445.01l41.02,44.98c-3.71-.07-9.73,3.18-13,1.54-1.23-.62-6.76-8.7-8.48-10.54-9.71-10.38-24.98-19.09-21.52-35.48l1.98-.49Z"/>
  <path d="M1373,294c.53-2.14,3.1-1.68,4.48-3.02,1.58-1.54,1.63-5.79,5.04-5.96l54.58.6,2.9,8.38h-67Z"/>
  <path d="M970,119.99h-82c8.62-12.99,20.98-8.11,33.45-7.94,10.3.14,30.28-2.34,39,.01,2.65.72,7.81,5.63,9.55,7.93Z"/>
  <path d="M1821.99,38.98c-.11.13-1.69.26-2.47.99-18.9,17.77-38.04,35.32-56.97,53.08l-5.55.94c-.8-.7,1.97-4.01,2.6-4.89,15.8-22.29,37.21-40.36,61.91-52.09l.48,1.97Z"/>
  <path d="M2019,212.99l50.99-46.99c-1.38,5.09-5.39,9-7.87,13.62-3.27,6.12-2.44,9.29-8.11,14.89-6.47,6.38-15.49,12.36-22.06,19l-12.96-.52Z"/>
  <path d="M1383,282c-.28-1.56.17-2.31.95-3.55,6.5-10.18,37.9-3.73,48.89-4.29l3.16,7.84h-53Z"/>
  <path d="M1005,466l26.98,26.5c.05,1.39-11,3.17-12.96,3.02l-14.02-14.02v-15.5Z"/>
  <path d="M424.99,112.01l-8.45,2.03c-19.83-.76-39.97,1.51-59.56-1.55,22.04-6.35,45.9-6.19,68-.49Z"/>
  <path d="M280,188.01c1.5,1.39-.1,1.82-1.48,1.99-14.58,1.86-32.75-1.13-47.53-1.5,15.79-8.44,32.76-6.5,49.01-.49Z"/>
  <path d="M2305,58c-.23-1.46,1.76-1.4,2.8-1.69,16.7-4.68,45.56-4.23,62.42-.02,1.02.25,3.01.28,2.78,1.71h-68Z"/>
  <path d="M1938,314.99c-15.29-2.43-30.25-6.3-45.5-9.02-1.66-.3-1.71.62-1.5-1.97l43.52.96,3.47,10.02Z"/>
  <path d="M1373.35,102.34c-.88.79-1.24,2.43-2.31,3.22l-1.41.37-9.52-9.63c-.7-2.66,6.83-9.05,9.55-10.09,2.44-.12,9.84,6.97,10.24,8.49.81,3.08-4.64,5.93-6.55,7.65Z"/>
  <path d="M1354.99,96.98l-11.36,8.95-9.38-10.44c2.32-2.65,6.34-9.58,10.27-9.47,1.78.05,11.36,9.7,10.47,10.96Z"/>
  <path d="M1365.65,75.35c-1.74-1.64-6.36-3.55-5.54-6.65.16-.61,6.47-7.18,7.35-7.77,4.52-3.04,10.28,5.97,12.47,9.43l-9.57,9.56c-2.15.38-3.49-3.42-4.71-4.57Z"/>
  <path d="M1314.69,136.7c-.9,1-9.41,8.34-10.05,8.22l-9.57-10.3,10.43-9.66,10.02,9.02c.4.93-.22,2.04-.84,2.72Z"/>
  <path d="M1383.94,46.04l9.1,10.45c0,2.02-8.53,9.61-10.35,9.34-4.23-2.27-7.44-5.95-9.61-10.2,1.69-1.62,9.26-10.7,10.87-9.59Z"/>
  <path d="M1457.86,120.13c1.63,2.81-7.6,9.61-9.5,11.8l-10.39-10.42,9.53-9.53,10.36,8.16Z"/>
  <path d="M1409.98,46l8.79,10.47-10.13,10.45c-2.28-2.58-10.01-8.05-9.69-11.35,2.28-.96,9.07-11,11.04-9.57Z"/>
  <polygon points="1370.67 138.14 1380.98 147.5 1369.64 157.93 1360.07 147.63 1370.67 138.14"/>
  <path d="M1356.75,99.14c2.96-.73,9.2,7.31,10.15,10.21l-9.53,9.57-10.28-10.57c-.3-1.69,7.89-8.77,9.66-9.21Z"/>
  <path d="M1447.53,85c1.83-.47,9.15,8.54,10.3,10.51l-9.35,10.49-11.45-10.5,10.51-10.5Z"/>
  <path d="M1435.94,144.95c-1,.69-10.32-7.53-10.98-9.45l9.54-11.45,10.26,10.44-8.82,10.47Z"/>
  <path d="M1330.7,151.1c2.91-.76,9.28,7.37,10.19,10.25l-9.53,9.57-10.29-9.56c-.19-1.1,8.48-9.96,9.63-10.26Z"/>
  <path d="M1366.86,133.16c2.01,3.54-7.63,9.14-9.5,11.76l-10.26-9.57c1.69-4.57,5.55-7.79,9.58-10.23l10.17,8.03Z"/>
  <path d="M1356.02,46c1.57-1.12,9.25,8.03,10.91,9.63.23,1.34-8.72,11.19-10.44,11.18l-9.25-10.3,8.78-10.51Z"/>
  <path d="M1402.42,117.58c1.12,1.35,3.38,2.42,3.47,4.78l-9.52,9.57-10.29-9.56c-.19-1.1,8.49-9.96,9.63-10.26,2.82-.74,5.17,3.6,6.72,5.48Z"/>
  <path d="M1389.45,91.42c1.42-1.68,5.86-5.83,7.85-5.32,2.04,2.06,9.33,7.4,8.59,10.2l-10.39,9.69-9.43-9.62c-.17-1.04,2.5-3.9,3.38-4.94Z"/>
  <path d="M1330.66,73.2c3.56-.33,8.78,7.25,10.3,10.19l-9.49,9.61-10.34-10.69,9.52-9.11Z"/>
  <path d="M1433.02,92.99l-7.91-11.35c8.37-10.81,12.3-10.83,19.82.72-1.73,1.64-10.29,11.75-11.91,10.63Z"/>
  <path d="M1435.98,66.99c-1.7,1.21-9.88-8.57-10.85-10.68l9.35-9.32,10.45,8.65-8.95,11.36Z"/>
  <path d="M1304.7,99.1c2.91-.76,9.28,7.37,10.19,10.25-8.7,10.93-11.1,10.85-19.82,0-.19-1.1,8.48-9.96,9.63-10.26Z"/>
  <path d="M1371.82,112.22c.43.2,6.17,6.16,6.62,6.84.62.96,1.64,2.1,1.41,3.29l-10.21,9.57-9.46-10.44c2.5-2.04,8.48-10.74,11.64-9.27Z"/>
  <path d="M1317.02,105.99l-9-10.49c3.08-3.85,7.91-6.98,9.48-11.5l11.49,11.5c-1.96,1.42-10.28,11.69-11.96,10.49Z"/>
  <path d="M1420.02,59h1.46c12.95,9.54,11.14,10.95.02,20.98l-9.36-10.66,7.88-10.32Z"/>
  <path d="M1319.98,183.99h-1.46c-1.69-2.68-9.55-6.44-9.53-9.48s7.41-9.12,9.51-11.5l10.48,10.48-9,10.49Z"/>
  <path d="M1394.7,60.1c2.2-.58,10.15,7.42,10.35,9.44.31,3.14-6.73,8.78-9.57,10.26l-9.52-10.31c0-1.33,7.55-9.08,8.73-9.39Z"/>
  <path d="M1342.7,165.15c4.86-1.17,8.68,5.41,11.22,8.49l-9.4,10.41-10.44-9.7c-.2-1.15,7.49-8.94,8.63-9.21Z"/>
  <path d="M1344.67,112.14c1.62-.15,9.39,9.42,9.25,10.22l-10.29,9.56-9.56-10.29c2.27-2.14,7.8-9.23,10.6-9.49Z"/>
  <path d="M1399.36,154.37c-1.37,1.06-2.67,3.97-5.32,3.61l-7.96-9.62c-.22-1.22,8-9.95,9.58-10.24,1.79-.33,10.07,8.5,10.24,9.52.51,2.99-4.88,5.45-6.54,6.73Z"/>
  <path d="M1407.7,73.1c2.2-.57,11.25,7.15,11.06,9.41-3.26,3.39-5.42,8.04-10.28,9.49l-9.42-9.64c-.2-1.08,7.47-8.96,8.63-9.26Z"/>
  <path d="M1472.7,86.1c3.01-.79,8.62,7.5,11.28,9.39l-11.38,10.46-8.64-10.46c0-1.27,7.48-9.06,8.74-9.39Z"/>
  <path d="M1317.02,131.99l-9-10.49,10.5-10.26c2.06,2.05,9.87,8.34,9.33,11.12-1.47,1.62-9.29,10.73-10.83,9.64Z"/>
  <path d="M1316.72,139.13c4.07-1.11,9.33,5.21,11.15,8.55l-9.5,10.24-10.29-9.56,8.65-9.23Z"/>
  <path d="M1294.41,113.57l7.64,7.9c-1.44,2.77-8.78,11.03-11.47,10.6l-7.41-10.39,8.35-10.68,2.9,2.57Z"/>
  <path d="M1343.68,60.16c2.31-.35,10.76,8.29,10.3,10.27l-10.38,9.53-9.36-10.44,9.44-9.35Z"/>
  <path d="M1326.65,140.34c-1.81-1.75-4.77-2.64-5.41-5.86l10.12-9.41,9.49,10.25-9.49,9.6c-2.13.38-3.5-3.4-4.71-4.58Z"/>
  <path d="M1356.02,172c-1.36-4.14-5.52-7.18-9.05-9.52.07-2.11,8.66-11.72,10.39-11.41,13.12,8.76,9.06,12.53-1.35,20.93Z"/>
  <path d="M1433.7,99.11c2.9-.76,8.89,7.5,11.22,9.53l-10.43,10.35-9.43-9.62,8.63-10.26Z"/>
  <path d="M1430.82,119.18c2.24,3.84-5.68,10.84-9.33,11.83l-9.41-8.65,9.43-11.34,9.32,8.16Z"/>
  <polygon points="1344.51 138.24 1354.03 147.5 1343.64 157.93 1334.04 147.5 1344.51 138.24"/>
  <path d="M1334.56,115.54c-.92.85-2.86,3.67-4.01,3.44l-9.53-10.48,9.68-9.39c2.7-.71,9.02,6.88,10.15,9.57.13,1.49-4.77,5.46-6.3,6.87Z"/>
  <path d="M1459.02,92.99l-7.86-11.35,9.35-8.68,10.48,9.54c-1.96,1.42-10.28,11.69-11.96,10.49Z"/>
  <path d="M1464.65,101.35c.44.38,4.73,5.34,4.89,5.68,1.33,2.88-1.52,5.64-3.52,7.48-8.26,7.6-7.54-.3-14.88-3.64-1.37-2.38,6.34-9.01,7.88-11.42,1.91-1.11,4.14.61,5.63,1.9Z"/>
  <path d="M2326.14,301.13c.42-.72,8.86-5.86,9.36-9.11l10.46,11.38-10.43,9.6c-1.19-3.26-11.37-8.49-9.39-11.87Z"/>
  <path d="M1452.72,62.29c1.42,1.11,3.38,5.7,5.1,7.22l-10.19,9.42c-2.04-2.46-10.16-6.8-9.48-10.29.11-.55,7.26-7.91,7.8-8.11,1.12-.42,5.71.93,6.77,1.76Z"/>
  <path d="M1403.65,113.35c-1.19-1.19-4.94-2.61-4.57-4.71l9.56-9.53c4.88,1.49,7.09,5.91,10.29,9.39-2.7,2.47-5.79,8.79-9.66,9.37-3.43.51-3.91-2.83-5.62-4.52Z"/>
  <path d="M1373.01,83.98v-1.46c8.32-10.99,11.8-12.43,19.82-.01-2.74,2.18-5.92,9.02-9.49,9.31-3.84.32-6.44-7.69-10.33-7.84Z"/>
  <path d="M1310.58,155.41c1.75,1.57,4.88,3.7,4.31,5.89-.3,1.14-9.14,9.81-10.25,9.62l-8.19-8.95-.07-2,8.26-8.91c.89-.15,4.91,3.42,5.95,4.35Z"/>
  <path d="M1295.01,83.98c-.94-1.32,7.58-10.09,10.49-10.09,3.36,0,7.92,5.75,9.36,8.78l-9.36,10.31-10.49-9Z"/>
  <path d="M1381.36,143.59c-.99-.59-7.4-8.32-7.4-9.09l9.35-9.37c4.03,2.44,7.89,5.65,9.58,10.23l-8.88,9.18c-1.15.55-1.85-.45-2.66-.94Z"/>
  <path d="M1414.65,129.35c1.39,1.38,2.38,3.92,4.33,5.15-3.03,1.75-8.53,11.05-11.44,10.55l-8.47-10.42,8.49-9.7c1.62-.26,5.76,3.1,7.09,4.42Z"/>
  <path d="M2322.7,332.1c2.94-.77,8.03,7.14,11.3,8.42-6.57,11.14-13.42,11.16-20.97.9-.15-.66,9.02-9.16,9.67-9.33Z"/>
  <path d="M1347.2,81.16l9.27-8.15c3.7-.1,8.94,7.35,10.53,10.46l-10.37,8.46c-1.76-2.69-11.03-7.91-9.44-10.77Z"/>
  <path d="M1379.35,101.36c.99-.87,2.2-1.54,3.34-2.2l10.06,9.33c.11,1.38-7.11,9.03-8.46,9.38-3.24.84-11.77-6.7-9.8-10.85.16-.34,4.41-5.26,4.86-5.66Z"/>
  <polygon points="1421.5 85.02 1431.04 95.5 1421.48 105.76 1412.07 95.64 1421.5 85.02"/>
  <path d="M2320.99,328l.5-1.99c1.59,1.48,1.62.92.53,2.51-1.79,2.61-8.47,6.15-10.66,9.41l-10.32-9.43,8.47-10.51,11.48,10.01Z"/>
  <path d="M2332.86,314.13c1.69,2.89-7.68,9.43-9.36,11.85l-10.45-9.59c-.5-2.74,9.85-6.7,8.97-11.39,1.2-.89,6.5,6.13,7.97,7.55.82.79,2.78,1.41,2.87,1.57Z"/>
  <path d="M1295.62,140.39c2.3,1.83,7.09,5.94,6.44,8.94l-9.42,7.58-10.63-9.42,10.29-9.35c1.21.59,2.27,1.41,3.32,2.24Z"/>
  <path d="M2345.99,331l-2.98-1.01c.52,2.54-6.44,10.1-7.99,9l-8.05-10.49,9.4-9.43c1.78,2.5,12.15,8.88,9.63,11.93Z"/>
  <path d="M2300.35,348.36c-.89.75-.99,3-2.81,2.61l-8.46-9.62,7.94-10.35c1.58-1.12,9.31,8.09,10.91,9.63.35,2-5.97,6.36-7.58,7.73Z"/>
  <path d="M2348.5,331.02l9.16,9.45c-2.36,9.02-9.48,11.95-16.2,4.57-6.18-6.78,4.24-8.34,7.04-14.03Z"/>
  <path d="M2306.81,367.83c-.22.38-2.1.77-2.85,1.59-1.47,1.63-2.88,4.59-4.39,5.64-4.03,2.81-8.11-5.61-10.61-8.57l9.54-9.53c2.76,1.31,10.24,7.61,8.31,10.86Z"/>
  <path d="M1308.01,70.98c-1.17-1.66,9.49-9.63,11.68-9.82,1.43-.12,8.34,6.73,8.35,8.34l-10.55,9.56-9.48-8.08Z"/>
  <path d="M1292.7,87.1c2.97-.78,7.81,6.65,10.28,8.39l-11.34,10.43-7.36-7.41c1.05-2.95,5.48-10.63,8.43-11.41Z"/>
  <path d="M2297.64,382.07c12,6.37,11.09,12.02-.14,18.59-2.36.15-7.15-6.73-8.35-8.99l8.5-9.61Z"/>
  <path d="M1240.76,115.2c5.03-.7,6.97,2.36,9.1,6.48l-8.5,10.25c-8.84-5.4-16.04-14.58-.6-16.72Z"/>
  <path d="M2297.49,432.2c4.08,3.14,10.99,6.42,7.56,12.35-5.35,9.24-12.6,5.84-15.88-2.89,1.66-4.24,4.75-6.87,8.32-9.46Z"/>
  <path d="M1987.42,254.42c-8.02,7.02-7.45,1.09-13.33-5.06l8.55-9.28,9.25,8.63c.74,2.83-2.75,4.21-4.48,5.72Z"/>
  <path d="M2019.98,299c-.05,4.21,8.04,5.91,8.05,9.5l-9.54,9.48-9.48-9.48c1.92-1.41,9.29-10.66,10.96-9.49Z"/>
  <path d="M2298.89,425.92c-5.44-.42-7.12-5.91-9.76-9.61,6.38-10.43,10.52-10.15,17.8-.68l-8.03,10.29Z"/>
  <path d="M2088.02,228c1.66-1.18,9.11,8.16,10.97,9.49l-8.62,9.43-10.32-8.53,7.98-10.39Z"/>
  <path d="M2073.66,278.34c-1.68-1.6-4.59-2.37-4.45-5.66l8.16-8.61,9.56,9.29-8.62,8.53c-3.04.8-3.23-2.2-4.65-3.55Z"/>
  <path d="M1970.53,252l10.28,8.49c.12,1.45-7.56,9.55-9.31,9.55l-9.42-8.67,8.45-9.36Z"/>
  <path d="M1971.5,299.02l9.46,8.59c-1.56,2.96-5.87,9.47-9.49,9.37l-9.46-8.48,9.48-9.48Z"/>
  <path d="M860,148.99l-21.54,1.05c-5.23-1.74-10.95-.39-15.98-1.04-1.38-.18-2.99-.6-1.48-1.99,12.94-4.58,22.82-6.06,35.77-.28,1.21.54,2.96.5,3.23,2.26Z"/>
  <path d="M2111.71,182.13c2.04-.53,7.41,3.4,8.74,4.95,3.42,3.98-4.6,9.45-6.95,12.9l-9.53-9.48c0-1.38,6.56-8.06,7.74-8.36Z"/>
  <polygon points="2018.5 252.01 2027.93 260.64 2018.5 270.03 2009 260.53 2018.5 252.01"/>
  <path d="M1981.13,264.14c2.84-1.64,8.77,7.27,11.87,8.37l-9.64,9.42-9.29-8.56,7.06-9.22Z"/>
  <path d="M2102.36,210.4c-.61.47.17,2.19-1.85,1.59l-8.44-9.63c6.47-10.2,10.75-10.46,17.82-.72-1.22,3.97-4.46,6.38-7.54,8.76Z"/>
  <path d="M2112.64,205.07c1.57-.27,8.98,7.09,9.24,8.58.46,2.6-6.5,7.69-8.53,9.27l-9.28-8.56,8.57-9.29Z"/>
  <path d="M2076.13,234.86c-.34-3.9-7.04-5.23-7.11-8.34-.08-3.59,5.85-7.5,8.5-9.36l9.42,9.19c-2.03,1.83-8.07,10.11-10.8,8.5Z"/>
  <path d="M2078.98,211.99c-1.19.85-12.1-8.72-9.79-11.82,2.92-1.38,6.11-3.91,6.83-7.17,1-.7,10.87,7.98,10.74,9.51l-7.78,9.47Z"/>
  <path d="M1960.98,287l7.07,10.44-8.56,8.37-8.53-9.32c1.23-1.75,8.51-10.57,10.02-9.49Z"/>
  <path d="M2032.37,304.41c-.57.44.06,2.18-1.83,1.56l-8.38-8.62c-.55-2.82,6.56-8.13,8.35-10.34l9.32,9.47c-1.98,3.55-4.35,5.53-7.45,7.93Z"/>
  <path d="M2089.5,252.01c2.03,3.19,8.95,5.35,8.55,9.43l-8.55,9.53-9.48-9.48,9.48-9.48Z"/>
  <path d="M2086.42,291.57c-.94-.7-6.4-5.63-6.4-6.07l9.47-10.48,9.45,10.5-8.59,8.37c-1.21.19-2.93-1.56-3.94-2.31Z"/>
  <path d="M2023.63,322.35c-.55-.66-2.59-1.25-2.62-1.85l9.48-9.46c11.85,8.17,9.78,10.23,0,18.94-2.73-2.18-4.66-5-6.87-7.63Z"/>
  <path d="M2041.64,276.11c1.64-.28,9.39,6.36,9.39,8.39l-8.67,9.43-9.33-8.49,8.62-9.33Z"/>
  <path d="M1959.5,263.02l9.42,9.62-8.56,9.29c-1.31.23-9.4-7.9-9.4-9.43l8.53-9.48Z"/>
  <polygon points="2066.98 322.01 2075.98 332.5 2065.64 340.93 2057.18 332.51 2064.92 322.64 2066.98 322.01"/>
  <path d="M2052,332.98c-3.86.05-5.9,8.06-9.5,8.06-1.64,0-8.54-7.03-8.54-8.53l7.56-9.53c2.55.07,11.36,8.85,10.48,10.01Z"/>
  <path d="M2112.5,252.04c9.8,6.59,12.48,12,.14,17.85l-8.68-8.39,8.54-9.46Z"/>
  <path d="M2087.04,205.03c2.39-1.68,9.14,6.84,10.8,8.61.41,2.09-6.41,9.39-8.35,9.39l-9.48-8.54c2.63-2.94,6.45-5.21,7.03-9.46Z"/>
  <path d="M2024.65,233.35c1.12,1.16,1.82,3.08,3.3,4.15l-9.44,9.48-9.48-9.48,9.48-9.48c1.48,2.28,4.52,3.66,6.15,5.33Z"/>
  <path d="M2006.5,240.02l9.46,10.38-9.46,7.64c-1.64,0-8.53-7.03-8.54-8.54l8.54-9.48Z"/>
  <polygon points="2052 260.02 2042.5 270.03 2033.07 261.37 2042.5 252.02 2052 260.02"/>
  <path d="M2029.18,281.81c-.7-.28-10.96-10.38-5.74-11.88l7.03-5.91,9.51,9.48c-2.09,1.67-7.94,9.46-10.8,8.31Z"/>
  <path d="M2067.35,277.63c1.62,1.35,7.93,5.75,7.58,7.73l-9.29,8.56-8.56-9.29,8.43-9.62c.58,0,1.25,2.11,1.85,2.61Z"/>
  <path d="M2059.36,305.35c2.57-.26,5.71-6.91,7.13-6.34.63.25,8.58,8.59,8.36,10.35-.11.54-6.21,6.88-6.86,7.18-2.86,1.3-9.36-5.38-10.83-7.84l2.21-3.34Z"/>
  <path d="M2113.94,276.06c.04,2.92,5,3.78,6.11,5.63,3.73,6.23-3.03,9.18-7.41,12.23l-8.56-9.29,7.9-8.17,1.96-.41Z"/>
  <path d="M2112.49,299.18c10.03,6.38,12.67,11.18.84,17.68l-9.15-8.35,8.31-9.33Z"/>
  <path d="M2048.35,253.65c-1.13-1.17-1.82-3.08-3.3-4.15l8.55-9.46,9.25,9.63-8.53,8.19c-.78.07-5.21-3.42-5.97-4.21Z"/>
  <path d="M2041.02,317.99l-7.05-9.49,8.54-9.48,9.48,9.48c-1.85,1.34-9.3,10.67-10.96,9.49Z"/>
  <path d="M2096.65,268.65c1.42-1.42,2.13-4.46,4.71-4.57.52.09,7.12,6.52,7.69,7.37,2.68,4.01-5.36,7.79-8.41,10.48l-8.56-8.57c-.37-2.1,3.38-3.52,4.57-4.71Z"/>
  <path d="M2109.86,227.87l-9.22,7.06-8.56-9.29,9.29-8.56c1.84,2.05,10.09,8.05,8.5,10.8Z"/>
  <path d="M1993.13,245.87l-7.16-8.37,7.05-9.5,10.91,9.64c.34,1.93-8.58,9.56-10.8,8.23Z"/>
  <polygon points="2054.5 311.02 2063.04 320.5 2054.5 329.03 2045 319.53 2054.5 311.02"/>
  <rect x="2047.68" y="266.68" width="12.64" height="12.64" transform="translate(461.05 1598.12) rotate(-47.33)"/>
  <polygon points="2042.5 228.02 2051.04 237.5 2042.5 246.98 2033.02 237.5 2042.5 228.02"/>
  <rect x="2000.68" y="290.68" width="12.64" height="12.64" transform="translate(428.26 1571.3) rotate(-47.33)"/>
  <polygon points="2077.5 311.01 2087.04 320.5 2077.49 329.06 2069.24 320.51 2077.5 311.01"/>
  <polygon points="2030.5 240.02 2039.98 249.5 2030.5 258.03 2021.02 249.5 2030.5 240.02"/>
  <path d="M1993,297.98l-9.5,8-9.48-9.48,8.47-9.32c4.6,2.49,7.3,6.86,10.51,10.8Z"/>
  <path d="M2112.64,229.07c10.48,6.65,10.53,10.44.73,17.85l-9.42-8.41,8.7-9.44Z"/>
  <path d="M2064.71,253.13c3.41-.88,8.08,5.24,10.22,7.5l-8.43,10.35-9.43-9.62c-.2-1.16,6.52-7.94,7.64-8.23Z"/>
  <path d="M1970.02,293.99c-.42-4.17-7.12-4.86-7-9.52.04-1.55,6.97-8.64,8.33-8.39l8.68,8.42c0,1.77-8.8,10.36-10.02,9.49Z"/>
  <path d="M1406,41.01c-.84,5.68-5.95,8.28-9.63,11.92-1.18.21-14.65-11-8.69-13.97l18.33,2.05Z"/>
  <path d="M1996.37,316.41c-.56.43.07,2.18-1.83,1.56l-8.3-9.46,7.32-8.51,10.36,7.63c-1.67,3.73-4.45,6.37-7.56,8.77Z"/>
  <path d="M477,368.02l-9.64,9.91-9.29-8.57,8.52-9.32c2.23-.48,7.2,8.24,10.4,7.98Z"/>
  <path d="M396.65,362.63c.69-.58,1.14-2.45,1.87-2.64l.94.03c9.49,7.84,9.67,10.18-.1,17.91l-9.42-9.44c0-2.01,5.11-4.51,6.71-5.85Z"/>
  <path d="M2017.63,276.06c2.14-.65,9.3,6.55,9.35,8.42.08,3.1-5.43,7.37-7.62,9.45l-9.29-8.57,7.56-9.3Z"/>
  <path d="M2009.35,266.63c1.51,1.28,6.93,4.72,6.58,6.73l-9.29,8.57-8.56-9.29,9.41-8.64c.73.18,1.17,2.05,1.86,2.64Z"/>
  <path d="M285.98,359l7.03,9.48c-1.02,3-5.17,8.59-8.54,8.5l-8.32-8.29c.13-.94,6.23-7.44,7.41-8.64.82-.83.91-1.42,2.42-1.05Z"/>
  <path d="M538.22,402.18l8.28-7.22,9.48,8.54-9.48,8.54c-1.48,0-9.68-7.31-8.28-9.86Z"/>
  <path d="M2100.64,288.1c1.64-.28,9.39,6.36,9.39,8.39l-8.54,9.48-9.48-9.48,8.62-8.39Z"/>
  <path d="M2075.65,256.36c-9.74-8.17-7.75-7.55,1.81-15.42l9.52,8.55-9.48,9.48c-.6-.02-1.19-2.06-1.85-2.62Z"/>
  <path d="M2092.01,248.02c4,.11,5.38-7.08,8.49-7.06l10.48,8.54-9.48,9.48c-1.41-1.92-10.66-9.3-9.49-10.96Z"/>
  <path d="M2102.84,328.82c-2.9,1.66-8.48-6.69-10.82-8.32l9.48-9.48,8.53,9.48-7.19,8.32Z"/>
  <path d="M1993.11,293.88l-7.1-9.38,8.46-8.55,9.45,9.41c-2.02,1.83-8.09,10.11-10.81,8.52Z"/>
  <path d="M1360,42.01c17.53-5.36,29.51-3.71,9.5,11.02-2.4-.94-11.04-8.81-9.5-11.02Z"/>
  <path d="M2074.86,236.13c1.54,2.64-6.65,9.67-9.43,9.91l-8.41-8.54,8.48-9.48c.85,2.25,9.05,7.56,9.36,8.1Z"/>
  <polygon points="2090.85 323.19 2098.8 332.52 2090.48 341.01 2080.97 332.5 2088.16 323.19 2090.85 323.19"/>
  <polygon points="1994.02 271 1986.03 260.59 1994.5 252.02 2003.93 261.36 1994.02 271"/>
  <path d="M2077.64,288.07c1.3-.23,9.51,8.01,9.29,9.29l-9.43,8.62-8.43-9.35,8.56-8.56Z"/>
  <path d="M1322.01,58.98c-1.38-1.94,12.2-8.69,13.68-8.83,2.08-.2,4.61,4.44,5.33,6.36l-9.58,10.45-9.43-7.98Z"/>
  <polygon points="2089.5 299.02 2098.04 308.5 2089.5 317.97 2081.07 308.36 2089.5 299.02"/>
  <path d="M449.43,377.42c1.33-1.78,4.7-5.88,6.87-5.31l8.68,8.39c-8.19,8.83-9.48,11.83-17.87.86-.19-1.2,1.56-2.94,2.31-3.94Z"/>
  <path d="M2061.68,294.3c3.68,4.25-5.09,8.47-7.18,11.68l-9.48-9.48,8.48-9.48c1.74,2.82,6.41,5.24,8.18,7.28Z"/>
  <path d="M452.86,367.13c1.39,2.4-6.66,8.45-8.34,10.62-11.51-6.97-10-10.59.05-17.72l1.46.44c.17,2.89,6.59,6.24,6.83,6.66Z"/>
  <path d="M317.13,365.86c-.18-.1-.77-2.06-1.57-2.87-1.05-1.06-5.77-4.35-5.6-5.46.41-2.4,7.76-8.71,9.41-8.42l8.57,9.26c-1.73,1.83-8.64,8.76-10.8,7.5Z"/>
  <polygon points="2089.52 182.23 2098.98 190.5 2089.5 199.03 2080.02 190.5 2089.52 182.23"/>
  <polygon points="2006.5 311.02 2015.92 319.64 2007.36 328.93 1998.07 320.37 2006.5 311.02"/>
  <path d="M545.64,372.1c1.64-.28,9.39,6.36,9.39,8.39l-8.54,8.54-8.39-7.68,7.54-9.25Z"/>
  <polygon points="273.5 371.02 281.93 379.64 273.51 389.06 264.02 380.5 273.5 371.02"/>
  <polygon points="466.64 383.07 475.93 392.36 466.53 401 458.96 391.5 466.64 383.07"/>
  <path d="M358.71,478.27c.88,1,1.12,2.45,1.3,3.74l2.97.47c-6.04,10.3-11.15,11.96-17.9.87l7.83-7.92c1.12-.23,5.13,2.07,5.8,2.84Z"/>
  <path d="M398.63,429.07l9.37,7.46-8.64,9.4c-11.59-7.34-11.89-8.77-.73-16.86Z"/>
  <path d="M299.57,374.43c1.27.98,5.3,5.09,5,6.63-1.29,2.17-3.54,5.03-5.62,6.38-6.34,4.1-6.66-3.6-11.93-6.95l8.62-8.39c1.2-.19,2.96,1.57,3.93,2.32Z"/>
  <path d="M364.65,349.08l9.34,8.42c-5.3,4.1-6.84,11.42-13.51,5.52-8.47-7.49-1.98-8.49,4.18-13.94Z"/>
  <path d="M425.38,401.36c.86-1.34,6.52-6.5,7.97-6.25l8.58,8.25-9.29,8.57-8.17-7.91c-.52-1.12.39-1.85.91-2.66Z"/>
  <polygon points="410.5 463.01 418.91 472.35 409.61 480.96 401.97 471.5 410.5 463.01"/>
  <path d="M395.65,420.35c-9.6-8.55-4.86-6.66,3.71-14.28,10.91,8.46,8.03,9.67-.86,17.91-1.4-.79-1.86-2.75-2.85-3.63Z"/>
  <path d="M388.8,395.21l7.13,8.15-9.29,8.57c-1.95-1.82-7.9-6.57-7.43-9.25,1.24-2.61,6.12-9.11,9.59-7.46Z"/>
  <path d="M348.36,373.64c-1.15-1.14-2.1-3.08-3.24-4.36v-1.58s7.37-7.68,7.37-7.68l9.42,7.65c.68,2.1-6.48,8.93-7.61,9.22-1.58.4-4.7-2.02-5.94-3.26Z"/>
  <path d="M308.82,360.23l7.21,8.27-8.52,9.28c-1.4.05-8.92-8.03-8.59-10.2l7.23-7.39,2.67.04Z"/>
  <path d="M375.02,377.99c.25-3.48-8.47-6.4-7.94-9.36l9.4-8.62,7.57,8.48c-.65,1.85-7.22,10.84-9.02,9.49Z"/>
  <path d="M398.64,383.07c1.65-.29,8.46,7.09,8.38,9.47l-8.51,7.49-8.43-8.4,8.56-8.57Z"/>
  <path d="M388.98,480.99c-1.76,1.25-8.74-7.65-9.8-9.5l8.31-8.31,9.48,8.39-7.98,9.43Z"/>
  <path d="M351.62,430.57c.33-.26.36-1.02.47-1.48,12.02,5.43,12.16,9.47,1.28,16.84l-9.35-8.43c2.28-2.63,4.88-4.78,7.61-6.92Z"/>
  <path d="M2068.55,207.43c1.47,1.63,6.68,5.2,6.38,6.93l-9.39,9.61c-4.46-3.09-6.01-9.34-4.47-14.4,1-3.27,4.26-3.91,3.95-7.57,1.76-.11.68,2.3,1.55,3.98.28.54,1.47.87,1.99,1.45Z"/>
  <path d="M363.13,372.13c2.65-1.56,7.89,5.7,9.81,7.5-6.14,11.18-9.95,12.02-16.97.86l7.16-8.36Z"/>
  <path d="M361.86,416.87l-8.36,6.16c-11.81-5.76-9.15-10.14-.14-16.96,1.84,2.04,10.09,8.05,8.5,10.8Z"/>
  <path d="M337.58,352.58c1.38-1.2,2.43-3.33,4.78-3.47l8.62,8.39-9.29,8.37-8.6-8.51c-.34-1.86,3.25-3.69,4.49-4.77Z"/>
  <path d="M2010.14,333.87c-1.59-2.76,6.66-8.74,8.49-10.8,16.45,9.51,4.67,21.96-8.49,10.8Z"/>
  <path d="M445.88,468.86c-2.04,1.17-8.99-6.14-9.73-8.54l8.36-8.36,9.48,8.54c-2.99.41-7.59,8.07-8.11,8.37Z"/>
  <path d="M433.5,371.02l8.48,9.48-9.48,8.54c-2.52,0-6.82-6.53-8.32-8.55l9.32-9.47Z"/>
  <path d="M471.34,455.66c1.71,1.63,4.55,2.39,4.52,5.71l-6.89,7.62-1.34-.1c-10.39-6.63-10.9-9.22-.94-16.77,3.04-.8,3.26,2.23,4.65,3.55Z"/>
  <path d="M374.13,399.87l-6.94-7.36,9.18-9.44c10.07,7.03,9.9,13.51-2.24,16.8Z"/>
  <path d="M362.65,478.36c-1.51-1.27-6.92-4.73-6.56-6.72l8.4-8.44,8.55,8.29-8.54,9.48c-.6-.02-1.19-2.06-1.85-2.62Z"/>
  <path d="M409.73,441.12c1.73-.25,5.99,2.98,7.3,4.34,5.5,5.74-4.28,7.5-6.53,12.52l-8.54-9.48c0-1.91,5.89-7.11,7.77-7.38Z"/>
  <path d="M422.99,405c.29,4.82,5.48,5.92,7.99,9.5l-9.33,8.42-8.57-8.28c2.01-1.24,8.18-10.92,9.91-9.64Z"/>
  <path d="M318.64,372.07l9.17,8.42c0,1.38-7.8,8.54-9.31,8.55l-8.5-7.57,8.64-9.4Z"/>
  <path d="M433.5,417.02l8.43,9.34-9.29,8.57c-10.65-8.36-7.94-9.92.86-17.91Z"/>
  <path d="M1986.84,327.85c-1.85,1.07-11.1-4.12-11.73-6.56-.9-3.5,6.82-6.51,6.91-10.29,1.54-1.09,8.45,7.14,9.88,8.64l-5.05,8.21Z"/>
  <polygon points="365.51 417.24 372.9 426.36 364.49 434.81 356.07 425.63 365.51 417.24"/>
  <polygon points="557.64 360.07 566.04 368.5 557.5 377.03 549.07 368.63 557.64 360.07"/>
  <path d="M408.71,418.11c2.8-.69,8.51,5.4,10.22,7.53l-8.42,9.18-8.55-8.32,6.75-8.39Z"/>
  <path d="M2113.98,323l7.05,9.49-8.4,8.43-8.66-9.42c2.6-.7,8.27-9.73,10-8.5Z"/>
  <path d="M522.63,372.06c2.42-.74,8.36,6.01,9.41,8.44-6.34,10.27-10.37,10.57-16.86-.01l7.45-8.43Z"/>
  <path d="M409.7,395.1c2.76-.72,7.01,5.45,9.06,7.38l-8.39,9.44-8.4-8.43c0-1.28,6.49-8.07,7.74-8.39Z"/>
  <path d="M493.2,424.17l8.32-6.14,8.41,8.33-8.29,8.56c-1.87-2.11-10.03-7.9-8.44-10.75Z"/>
  <path d="M418.42,443.57c-1.21-.91-5.39-4.55-5.27-5.9l9.21-8.6c9.41,7.59,9.53,9.25,0,16.81-1.2.19-2.94-1.56-3.94-2.31Z"/>
  <path d="M501.5,440.01c11.34,8.59,9.85,8.88,0,17.97l-8.56-9.5,8.56-8.47Z"/>
  <path d="M1256.01,121.02l7.48-5.03c2.05,0,4.27,3.33,6.29,3.83,2.33.58,5.39-1.98,6.14,2.54l-9.4,9.45c-.63,0-8.2-7.14-9.45-8.37-.83-.82-1.42-.91-1.05-2.42Z"/>
  <path d="M379.24,447.18c.21-.47,7.03-6.14,8.29-6.19l8.51,7.5-8.54,9.48c-1.84-2.63-9.73-7.53-8.26-10.8Z"/>
  <path d="M363.7,395.1c2.52-.66,8.22,5.94,9.36,8.41l-8.56,9.47-8.43-9.62,7.63-8.26Z"/>
  <polygon points="512.49 406.18 521.04 414.5 512.5 423.03 504.07 415.36 512.49 406.18"/>
  <polygon points="330.51 383.18 338.82 392.51 330.5 400.98 321.02 391.5 330.51 383.18"/>
  <path d="M413.14,461.87c-1.44-2.47,6.03-8.97,8.36-9.91,10.94,7.2,10.34,9.76,0,16.99-.79-2.11-8.08-6.61-8.36-7.09Z"/>
  <polygon points="418.99 381.98 409.64 388.93 401.02 380.5 410.5 371.02 418.99 381.98"/>
  <path d="M374.63,429.05c2.14-.65,8.6,5.38,10.12,7.43l-8.39,9.44-8.4-8.43,6.66-8.44Z"/>
  <polygon points="466.64 429.07 475.76 437.48 467.33 445.85 458.96 437.5 466.64 429.07"/>
  <path d="M490.94,383.05l7.1,8.45-8.53,8.54-8.43-8.4c1.58-1.53,8.25-9.67,9.87-8.59Z"/>
  <path d="M534.61,383.04c1.24-.26,9.55,8.04,9.32,9.32l-9.43,8.59-7.43-9.31,7.54-8.59Z"/>
  <path d="M455.06,457.93l-8.02-9.43,8.44-7.51,9.5,7.51c-2.43,1.13-7.84,10.62-9.92,9.43Z"/>
  <path d="M481.54,409.56c-.87.9-1.67,2.65-2.88,2.33l-8.57-8.54,7.62-8.24c2.8-.73,7.11,5.6,9.22,7.53.16.89-4.39,5.89-5.39,6.93Z"/>
  <path d="M501.98,412.99c-2.86.71-1.63-2.09-3.41-4.05-1.93-2.15-4.67-3.27-6.57-5.45l8.63-8.38,9.29,7.53-7.95,10.36Z"/>
  <path d="M522.7,395.1c2.73-.72,7.24,5.59,9.14,7.54l-7.48,9.28-9.18-8.42,7.52-8.4Z"/>
  <path d="M422.98,377.99c-1.19.85-9.62-7.56-9.83-8.64-.46-2.37,4.28-6.78,6.58-7.2,4.04-.74,8.55,3.67,11.24,6.35l-8,9.49Z"/>
  <polygon points="556.02 383 566.98 391.5 557.5 400.03 549.24 392.51 556.02 383"/>
  <path d="M477.71,441.1c2.18-.56,9.33,5.1,9.33,7.39l-8.53,9.48-8.43-8.62,7.63-8.26Z"/>
  <path d="M455.5,417.02l8.43,8.62-7.57,9.29c-10.55-6.75-10.41-10.22-.86-17.91Z"/>
  <path d="M432.75,441.14c2.87-.7,6.88,5.44,9.07,7.34-5.56,10-11.91,10.76-16.8-.02.05-1.99,5.98-6.9,7.73-7.33Z"/>
  <path d="M499.13,372.14c2.36-1.37,8.62,5.97,10.83,7.47l-8.59,9.32-8.4-8.43,6.16-8.36Z"/>
  <path d="M296.67,349.14c2.69-.24,6.1,6.78,8.28,8.36l-9.32,8.43-7.67-8.43c0-1.84,6.88-8.19,8.71-8.36Z"/>
  <polygon points="330.64 360.07 338.93 369.36 330.5 377.03 322.07 368.63 330.64 360.07"/>
  <path d="M382.69,411.29c.59.69.95,1.43,1.07,2.34l-7.29,10.34-8.36-8.68c-.73-2.79,5.6-7.12,7.53-9.23.48-.08,6.54,4.61,7.06,5.22Z"/>
  <path d="M340.7,441.1c2.29-.6,8.16,5.67,10.28,7.39l-8.59,9.46c-1.68.36-8.44-7.18-8.38-9.48.04-1.35,5.38-7.03,6.68-7.37Z"/>
  <path d="M482.6,431.61c-.83.86-3.12,3.72-4.06,3.36l-8.46-8.61,8.43-9.34,8.43,8.62c.14.79-3.46,5.06-4.34,5.98Z"/>
  <path d="M490.98,360l8.02,9.98-9.5,8-8.43-9.34c1.48-1.46,8.36-9.73,9.91-8.63Z"/>
  <path d="M479.94,372.06l6.73,8.43-8.17,8.54-8.26-8.55c1.53-1.5,7.95-9.42,9.69-8.42Z"/>
  <path d="M315.35,397.36c.9-.76,2.9-2.34,3.97-2.19l8.61,7.47c-6.62,12.51-10.28,8.48-17.91-.14,2.52-.98,3.88-3.92,5.33-5.14Z"/>
  <path d="M443.02,383c1.25-.88,10.05,7.81,10.04,9.51l-8.56,7.52-8.43-7.67,6.95-9.36Z"/>
  <path d="M455.65,395.11c3.91,1.02,5.87,4.68,8.27,7.53l-7.56,9.28-8.41-8.47c-.37-3.78,5.41-5.91,7.7-8.33Z"/>
  <path d="M285.84,383.19c.76,3.68,7.78,6.72,7.23,10.23-.09.57-8.26,6.65-9.43,6.42l-7.57-8.21,7.08-8.44h2.69Z"/>
  <path d="M386.64,372.07l9.29,7.57-8.56,9.29-8.26-7.57c-.32-1.84,5.73-7.99,7.53-9.29Z"/>
  <path d="M308.99,383c-.16,4.84,5.86,4.99,6.87,9.31-.28,1.81-6.58,7.72-8.36,7.73l-8.43-8.4c1.44-1.44,8.43-9.77,9.92-8.64Z"/>
  <path d="M466.64,406.07l9.34,8.43-9.48,9.48-7.53-9.48c0-2.08,5.99-6.66,7.67-8.43Z"/>
  <path d="M488.13,406.14c2.84-1.66,8.56,6.75,10.85,8.36l-8.62,8.43-9.34-8.43c2.13-.77,6.63-8.08,7.11-8.36Z"/>
  <polygon points="342.94 388.95 333.04 381.39 341.64 372.07 350.03 380.5 342.94 388.95"/>
  <path d="M400.82,452.19c.48.28,6.23,8.07,6.02,9.16-7.17,9.96-9.83,7.07-16.83-.86,3.12-1.78,6.65-10.72,10.81-8.31Z"/>
  <path d="M563.42,377.42c1.43-1.92,3.91-6.02,5.89-5.27,1.31.49,8.88,8.13,8.64,9.25l-9.32,7.53-7.52-7.57c-.19-1.2,1.56-2.94,2.31-3.94Z"/>
  <path d="M338.42,477.54c-7.73-5.81-2.07-9.56,3.08-14.5l9.25,8.45-8.4,8.39c-1.23.21-2.93-1.57-3.94-2.33Z"/>
  <path d="M420.02,383c1.55-1.1,8.43,7.17,9.91,8.63l-8.43,8.4-8.43-7.67,6.95-9.36Z"/>
  <polygon points="364.69 441.13 373.04 449.5 364.5 457.98 356.24 448.48 364.69 441.13"/>
  <polygon points="512.5 383.02 520.93 391.63 512.5 400.03 504.07 391.63 512.5 383.02"/>
  <polygon points="386.63 417.07 396 425.53 387.33 433.85 379.07 426.36 386.63 417.07"/>
  <path d="M445.87,406.14l7.06,9.22-9.29,7.57-7.56-8.29c2.52-1.61,6.66-10.3,9.8-8.49Z"/>
  <path d="M445.87,445.86c-2.65,1.53-8-6.63-9.78-8.52l7.47-8.41c2.96-.48,6.43,6.06,9.4,7.67l-7.09,9.26Z"/>
  <polygon points="489.64 429.07 498.04 437.5 490.36 445.93 481.96 437.5 489.64 429.07"/>
  <path d="M340.7,418.1c2.19-.58,9.33,6.62,9.33,8.39,0,1.88-6.11,7.01-7.71,7.29-2.93.51-7.94-5.97-8.16-8.48-.11-1.24,5.34-6.89,6.54-7.21Z"/>
  <path d="M356.64,454.36c7.78,6.86,2.73,9.72-4.01,14.57l-7.48-9.28,7.78-7.21c1.11-.22,2.88,1.19,3.71,1.93Z"/>
  <polygon points="375.64 452.07 384.98 460.5 375.53 469 367.02 460.5 375.64 452.07"/>
  <path d="M318.71,487.13c3.55-.92,7.55,4.68,8.96,7.37-3.54,8.13-12.56,9.77-16.53,1.18.21-1.34,6.14-8.18,7.57-8.55Z"/>
  <polygon points="520.98 435.03 513.39 445.96 504.02 437.5 512.5 428.96 520.98 435.03"/>
  <path d="M332.84,490.85c-2.36,1.38-7.49-3.39-8.7-5.49-3.08-5.32,3.13-6.17,5.46-10.43,4.53.48,6.75,4.62,9.32,7.71l-6.07,8.21Z"/>
  <path d="M352.02,399.99c.13-3.98-7.06-5.38-7.06-8.49l7.55-8.53c9.74,6.43,11.69,10.15.95,16.99l-1.44.03Z"/>
  <path d="M537.65,375.64c-.66.64-2.8,2.29-3.65,1.92l-6.85-8.24,8.5-8.24,8.34,7.42c-2.58,1.78-4.35,5.2-6.34,7.14Z"/>
  <path d="M433.51,463.24l8.44,9.15c-5.74,6.88-12.96,6.84-17.92-.82l9.48-8.32Z"/>
  <path d="M343.2,397.85c.51.32,3.32-1.52,4.79,1.65l-3.99,2.49c12.95-.74.25,6.39-2.5,10.99l-8.32-8.47,8.32-9.49c.79.05,1.12,2.47,1.7,2.84Z"/>
  <path d="M951,109h-37.5l-6.49-1.99c13.56-2.91,25.37-4.2,39-.52,1.75.47,4.39.34,4.99,2.51Z"/>
  <path d="M491.87,467.87c-2.04,1.19-9.9-4.98-9.91-7.37l7.05-9.5,9.96,9.5-7.11,7.37Z"/>
  <path d="M515.01,425.02c4.02-.7,5.04-5.83,8.5-7.97l8.43,8.31c-2.29,2.12-6.18,8-9.38,7.69-1.93-.19-8.43-6.8-7.55-8.03Z"/>
  <polygon points="535.94 406.06 543.05 413.47 534.5 422.98 526.96 414.5 533.97 406.47 535.94 406.06"/>
  <path d="M1441.45,143.42c3.91-4.66,6.98-6.02,11.46-.76l-6.48,13.33c-3.78-1.29-6.41-4.31-8.3-7.68-.16-1.1,2.43-3.83,3.32-4.89Z"/>
  <path d="M2056,198l-5.01,20-12.98-3.01c-1.18-.95,4.17-5.74,4.98-6.51,2.58-2.46,7.36-6.95,10.01-8.99,1-.77,1.27-1.94,3-1.49Z"/>
  <path d="M1494.99,106.98c-7.22,2.64-12.75,10.29-18.97,1.52l10.48-10.48c1.04,2.06,9.98,6.83,8.49,8.97Z"/>
  <path d="M580.5,383.02l8.42,9.34c-2.28,3.05-5.45,5.7-9.28,6.48l-7.61-7.27,8.47-8.55Z"/>
  <path d="M479.69,352.28c2.18-.01,7.36,2.84,7.35,5.21-.01,1.62-6.95,8.48-8.36,8.36l-8.6-8.22c1.77-2.96,6.24-5.33,9.62-5.35Z"/>
  <path d="M384.94,484.94c-4.4,1.34-11.11,4.87-15.02,1.63-5.42-4.48,4-8.84,6.57-12.56,1.57,2.15,10.19,8.35,8.44,10.92Z"/>
  <path d="M1950.26,314.32c-.47.66-.27,1.85-.27,2.68-8.3-1.85-8.78-13.04-2.49-17.99l9.43,8.62c.42,2.49-5.78,5.43-6.67,6.68Z"/>
  <path d="M2557.76,180.23c6.56,6.62-5.11,23.08-9.32,9.81-2.23-7.03,4-15.18,9.32-9.81Z"/>
  <path d="M329.75,407.14c2.92-.71,6.9,5.57,9.22,7.41l-7.47,8.42-8.53-9.48,6.78-6.36Z"/>
  <path d="M2122,141c.41-1.73,4.42-2.23,5.95-2.55,12.19-2.58,26.03-2.01,38.04,1.07,1.15.3,3.24-.07,3.01,1.48h-47Z"/>
  <path d="M591.51,373.24c6.58,5.77,9.44,11.17-.01,15.79l-8.46-8.53,8.47-7.25Z"/>
  <path d="M577.72,363.14c3.13-.87,9.01,4.33,10.03,7.38l-7.24,7.31-8.38-8.51c-.19-1.26,4.45-5.86,5.58-6.17Z"/>
  <path d="M1281.6,102.07c2.61.35,8.01,4.49,7.3,7.23-.16.62-8.16,8.85-8.91,9.2-9.71,4.53-1.58-13.7,1.61-16.43Z"/>
  <path d="M2021,223c3.29.22,18.09-1.4,18.05,3.48l-8.54,8.3c-2.24-.94-11.19-10.15-9.51-11.79Z"/>
  <path d="M2342.41,280.44c-2.05,2.11-3.71,4.61-6.05,6.49l-6.29-5.57,9.61-10.22,6.26,5.48c.4,1.77-2.48,2.75-3.52,3.82Z"/>
  <path d="M1427,270h-29.5c-.45,0-.27,1.19-1.5.51s-1.11-1.28,0-2.02c6.78-4.55,26.02-6.98,31.01,1.51Z"/>
  <path d="M460.65,466.35c.76.7,4.92,5.86,4.35,6.64-14.52,4.41-25.23,1.75-8.65-9.9,1.27,1.26,3.02,2.09,4.3,3.27Z"/>
  <path d="M304.99,403.98c-6.32,3.67-9.3,4.13-15.72.27-4.44-2.67,5-8.02,7.23-9.29,1.72-.01,9.36,7.77,8.5,9.02Z"/>
  <path d="M1949.4,292.45c-.84.62-.36,2.42-3.35,1.52-2.65-6.2.42-11.97,1.96-17.97l9.03,8.5c-.01,2.09-5.78,6.57-7.64,7.95Z"/>
  <path d="M507.73,365.16c3.18-.9,14.44.44,11.14,6.18-5.62,9.77-9.43,4.22-14.79-1.98-.23-1.29,2.49-3.87,3.65-4.2Z"/>
  <path d="M1430,45c1.3,1.4-7.13,8.45-9.3,7.89-1.43-.37-11.31-10.22-9.7-11.89l18.99,4Z"/>
  <path d="M331,497.99l3.98-5.5,6.65-6.42,9.34,7.43c.03,1.97-17.38,5.26-19.97,4.49Z"/>
  <path d="M2315.75,298.14c2.85-.41,4.08,2.09,5.01,4.37l-11.22,10.49c-7.09-4.58.29-14,6.21-14.85Z"/>
  <path d="M2016,223c2.01,1.96-7.81,9.67-8.53,12l-8.46-7.53c-.84-3.64,14.5-5.14,16.98-4.47Z"/>
  <path d="M395,358.01c.89,1.21-7.53,8.06-8.36,7.91-2.62-3.16-10.26-6.81-6.17-10.96,5.06-5.14,9.18,2.52,14.53,3.05Z"/>
  <polygon points="2327.49 284.24 2333.98 289.5 2322.69 298.86 2318.09 294.66 2327.49 284.24"/>
  <path d="M1099.76,173.21c3.28,5.17,2.44,12.12-4.12,13.62-6.64-3.95-6.3-13.17,1.88-14.4l2.24.78Z"/>
  <path d="M461.79,354.22l2.1,4.14c-.08.49-6.24,6.86-6.9,7.2-1.73.89-8.31-4.58-7.82-6.91.63-2.98,10.2-5.84,12.61-4.42Z"/>
  <path d="M1477.78,76.82l-4.76,3.16-10.01-11.96c1.73-.02,3-1.9,4.57-2.05,2.66-.25,11.45,8.2,10.2,10.85Z"/>
  <path d="M2302.64,311.07l5.35,4.43c-3.57,3.09-5.4,8.05-10.34,9.39-8.37-4.94,1.05-9.37,4.99-13.82Z"/>
  <path d="M1967.99,321.99c-1.17,1.13-11.72-1.79-13.73-2.77-.97-.48-1.66.31-1.14-1.58.59-2.18,4.79-7.33,7.25-6.59.65.2,8.93,9.68,7.62,10.94Z"/>
  <path d="M332.98,467.99c-6.41.65-5.91-14.2-2.45-15l8.45,7.5-6,7.49Z"/>
  <path d="M1482.87,78.14l6.88,10.37-3.4,3.41c-5.49-3.23-14.99-12.26-3.49-13.78Z"/>
  <path d="M2286.98,337.99c-7.99-1.7-3.64-8.13.37-11.64s5.51-2.78,8.61,1.14l-8.99,10.49Z"/>
  <path d="M362,346c.59.49-4.4,6-4.94,6.52-1,.95-2.04,2.51-3.56,2.51l-7.5-6.55,1.5-2.49h14.5Z"/>
  <path d="M272.5,394.04l9.48,8.45c-6.12,7.75-20.43-1.91-9.48-8.45Z"/>
  <path d="M1472.7,112.1l5.26,3.39c-2.48,1.93-10.19,10.87-12.99,9.06-5.05-3.27,5.43-9.75,7.73-12.45Z"/>
  <path d="M486,470.99c-4.11,0-9.91,1.88-13.76,1.81-1.34-.02-2.57-.98-2.24-2.29l9.37-7.44c2.12,2.83,7.28,3.91,6.64,7.93Z"/>
  <path d="M576,400.99c-1.83-.47-16.1,8.03-15.98,3.51l7.64-9.56c2.05-.9,9.49,4.5,8.34,6.05Z"/>
  <path d="M1461.79,125.26l2.16,3.16c-4.44,3.61-8.47,16.46-12.88,6.21,2.67-1.96,6.95-11.12,10.72-9.37Z"/>
  <path d="M337,346c1.07,1.03-5.04,8.99-5.58,9.07-2.48.39-9.12-6.01-8.42-9.07h14Z"/>
  <path d="M406,481.99c-3.18.37-7.41,2.29-10.51,2.09-7.93-.51-.32-8.01,3.83-8.92,1.38.76,7.97,5.04,6.68,6.83Z"/>
  <path d="M2292,463.99c-.97-1.08,5.08-7.34,6.47-6.99l8.51,9.5c-4.32,3.96-10.03-2.92-14.98-2.51Z"/>
  <path d="M2064.01,198.99c-1.44-1.5,5.06-14.04,6.5-13.98l4.43,6.34c-1.19,1.57-9.48,9.14-10.92,7.64Z"/>
  <path d="M2004,332.99l-13.99-3.01,3.01-6.99c1.47-1.14,12.49,8.69,10.98,9.99Z"/>
  <path d="M277.74,356.17c8.3-1.24-1.56,8.49-4.37,9.76l-5.35-4.43c.02-.94,8.28-5.11,9.72-5.33Z"/>
  <path d="M313.99,347c.87.76-4.44,8.3-6.54,8.05-1.2.19-8.61-7.4-3.98-8.06,3.21-.46,7.19.33,10.52,0Z"/>
  <path d="M543.43,363.57c-.66-.49-4.02-2.97-2.45-4.09,1.44-1.03,11.46-3.59,12.02-.96l-4.99,7.07c-1.7.9-3.39-1.13-4.58-2.02Z"/>
  <path d="M2311.84,344.19l3.16,4.8h-8c-.65.65,1.33,7.66-1.49,8.99-10.44-5.4,1.49-7.8,3.65-13.78h2.69Z"/>
  <path d="M562,358c3.81-.07,12.38-.47,10.58,5.03-3.05,9.34-11.8-3.97-10.58-5.03Z"/>
  <path d="M2038.99,346l-13.98-5.49,5.5-5.49c1.38,1.89,10.3,8.57,8.49,10.98Z"/>
  <path d="M1013.99,495.02l-.56,2.03-8.43,1.94c.63-5.3-.39-9.12-2-13.99l10.98,10.01Z"/>
  <path d="M1351.99,44c2,2.05-6.75,9.63-9.29,8.89-1.97-.91-3.12-2.64-2.65-4.84l11.94-4.05Z"/>
  <path d="M1451.49,55.02c.62,0,9.95,5.27,10.86,6.12,3.17,3.01.5,3.13-1.85,5.83-1.67-1.01-2.28-3.34-3.5-4.48-.51-.48-10.38-7.41-5.5-7.48Z"/>
  <path d="M334.7,441.68c-9.22,7.54-5.71-15.89,3.25-5.07.11.56-2.71,4.63-3.25,5.07Z"/>
  <path d="M1957.01,260c-.9-1.09,5.36-10.44,6.67-11.77,2.53-2.57,4.66-.85,4.35,2.23s-8.4,7.42-11.02,9.55Z"/>
  <path d="M380,350.01c1.1,1.15-3.63,5.89-5.41,5.04l-6.57-7.55c3.9-4.24,7.82,2.61,11.98,2.51Z"/>
  <path d="M270.99,367.02l-7.49,9.96c-3.91-3.96,3.88-8.63.5-12.97l6.99,3.01Z"/>
  <path d="M2057.99,232.99c-3.86,4.31-14.31-6.61-12.98-7.99,1.7.42,15.04,5.25,12.98,7.99Z"/>
  <path d="M505,469.99c-4.06-.83-8.62,1.91-12-.49l8.52-5.48c3.09.49,3.82,3.2,3.48,5.97Z"/>
  <path d="M2121.99,268c-.13,2.81.21,5.7,0,8.51-.11,1.49.78,2.89-1.49,2.48l-5.27-6.5c.43-1.46,5.83-5.48,6.75-4.48Z"/>
  <path d="M268.36,394.39c-.38.33-.41,1.06-.39,1.58-2.8,1.76-5.99-9.03-5.97-10.97l8.98,6.53c.32,1.59-1.62,1.99-2.62,2.86Z"/>
  <path d="M604,393.99h-8.99c-.51-3.7,3.38-5.43,5.5-7.98.94.01,4.41,7.09,3.5,7.98Z"/>
  <polygon points="2123 315 2121.5 326.99 2115 319.02 2123 315"/>
  <path d="M2121.99,196l-.49,11.99-5.54-6.5c-.09-1.59,5.08-6.57,6.03-5.49Z"/>
  <path d="M2121.99,291l-.49,11.99-5.54-6.5c-.09-1.59,5.08-6.57,6.03-5.49Z"/>
  <path d="M2306.99,398c.19,4.38.06,8.85-1.49,12.99l-4.36-7.35c1-.51,4.61-7.19,5.85-5.64Z"/>
  <path d="M504,362.01c-1.51,8.87-9.68-1.9-13-5,5.2-.77,8.27,4.1,13,5Z"/>
  <path d="M1970.01,246.99c-.52-6.1,6.12-9.44,10.98-10.99,1.14,1.2-9.93,12.18-10.98,10.99Z"/>
  <path d="M2121.99,254.99c-1.14,1.28-5.96-4.67-6.98-5.49l6.49-5.5.49,10.99Z"/>
  <path d="M2305.99,461c-5.63-4.7-6.63-8.15-.49-12.99l.49,12.99Z"/>
  <path d="M2121.99,230.99c-1.01,1.13-5.28-3.6-5.92-4.63l5.43-6.36.49,10.99Z"/>
  <path d="M439,360c1.82,1.57-6.09,5.11-6.68,5.86l-4.29-3.37c-.03-1.63,9.13-2.26,10.98-2.49Z"/>
  <path d="M303,504.99l5.49-6.74,4.49,3.25c-.02,1.46-8.21,4.1-9.98,3.49Z"/>
  <polygon points="2305.99 384 2301.1 379.36 2305.5 372 2305.99 384"/>
  <path d="M2305.99,434c-6.88-3.04-5.19-6.46-.48-10.99l.48,10.99Z"/>
  <path d="M1496.99,102c-2.95-1.39-9.73-5.45-5.48-8.99,1.82-.36,6.61,6.77,5.48,8.99Z"/>
  <path d="M2337.87,344.15l2.13,4.84-7.99,1c-.89-.8,2.86-7.59,5.86-5.84Z"/>
  <polygon points="511 454 508.52 463.01 504.01 461.98 504.98 459.48 511 454"/>
  <path d="M370,488.01c-2.14,3.4-7.35,4.09-11,3.98,2.72-4.88,6-5.13,11-3.98Z"/>
  <path d="M414,362.01c-2.11,7.2-7.54,3.04-8.99-2.01l8.99,2.01Z"/>
  <path d="M425,478.99l-8.99,1c.73-1.65,3.79-4.63,5.49-4.64,1.74.46,3.88,1.42,3.5,3.64Z"/>
  <path d="M2736,368.01c.55,2.38-.43,1.61-1.3,2.22-9.47,6.57-12.27,4.94-10.7,19.76l-11.55-8.02-13.44,3.02c-.52-.49,4.82-10.31,4.53-13.49-.27-2.87-8.17-10.82-6.52-12.5,12.86,3.68,15.72-.33,22.49-9.98,1.61-.05,2.29,11.57,4.05,13.93,1.84,2.49,9.39,4,12.45,5.06Z"/>
  <path d="M2560.5,425c.96.2,16.95,7.49,17.86,8.14.39.28.83.49,1.15.86l-1,1.97-68.85-.93-3.67-10.04h54.5Z"/>
  <path d="M2505,421c3.44-12.22,23.46-5.36,33.26-6.76l12.74,6.76h-46Z"/>
</svg>