<svg xmlns="http://www.w3.org/2000/svg" id="Layer_1" data-name="Layer 1" viewBox="0 -0.01 1981.12 802.93">
  <path d="M780.71,638.9c-1.01.07-2.28-1.26-3.96-.53-2.92,1.28-5.37,8.19-9.02,9.53-.3-2.98,5.02-6.29,5.04-8.51.02-2.33-3.95-3.61-5.79-2.78-1.53.69-14.06,16.57-15.25,15.29,1-3.74,4.24-7.82,6.57-10.92,2.99-3.98,9.59-6.36.9-8.81-.67.05-4.13,3.78-5,4.71-3.92,4.24-9.56,13.2-13.46,16.53-.69.59-1.75,1.04-2.01-.01,3.12-4.49,6.02-9.26,9.48-13.52,2.89-3.55,8.09-6.09,8.6-10.89,8.66,2.06,11.04,3.04,16.89-4.61-1.7-1.44-7.53-1.02-6.99-4.49l10.82,1.85,5.15-6.36-3.98-3.49,6.54,1.94,5.45-3.95-2,4.46,4.44,2.6,4.54-5.57-5.97-5.49,8.89,2.92,4.87-6.43-1.77-3.5c4.2,1.4,6.25-2.07,8.51-2.99,3.65-1.49-1.29,4.29-.37,5.85,3.81,3.52,8.62.67,9.85-3.84-1.79.31-7.1-4.83-5.98-6.02l8.49,4.75c3-2.81,6.79-2.98,4.5-7.75,3.6.32,9.21,4.69,12.26,3.85.89-.25,4.48-3.76,4.49-4.35.01-.87-2.43-1.71-1.76-3.5,3.68,2.82,6.28,1.9,8.49-2.01,1.6.2-.44,4.16-1.48,4.51,5.57,5.15,8.97,3.82,13.95-1,.04-1.42-6.88-2.38-5.97-5.5,2.27.84,4.9,3.28,7.45,3.03s2.95-3.36,5.53-3.02l-2,4.98,8.35,3.9,5.63-4.39-6.98-6.49c2.71-.2,4.92,2.93,7.5,2.92,3.54,0,7.68-5.8,10.36-6.43,3.06-.71,7.19,2.94,9.41,2.37l8.35-7.77,7.76,3.82c.12-1.52,9.34-8.86,8.59-6.43l-6,8,4.53,2.38c2.2-3.54,8.35-7.14.48-7.37,1.66-2.77,4.52-.48,6.05-1.05,1.29-.47,8.56-8.29,8.95-10.45,2.01-.13.86,3.02.44,3.95-1.32,2.95-4.46,5.17-6.39,7.68l1.93,3.36c-4.63-3.45-9.47,6.87-12.5,6.84-.98,0-2.27-4.3-6.47-2.34-1.28.6-4.93,5.64-4.01,6.5,1.68-.23,3.56.74,5.12.47,2.38-.42,21.75-10.65,25.17-12.66,24.97-14.65,49.87-35.28,46.66-67.3-1.19-11.91-11.04-27.65-23.98-28.5,12.13,11.07,17.05,36.61,12.52,52.02-2.55,8.68-18.32,15.33-26.69,17.29-5.88,1.38-20.46,3.55-25.88,2.24-8.1-1.96-15.36-21-17.41-28.58-3.27-12.11-5.37-26.73,8.1-32.87l30.86-13.12c-5.29-.45-10.36.61-15.51,1.48-40.99,6.95-78.31,18.5-117.7,30.24-61.23,18.24-120.63,6.75-181.91,23-48.28,12.8-66.63,30.38-103.69,60.26-39.62,31.94-86.84,31.12-135.91,35.02-113.51,9.01-231.02,12.53-344.78,16.05-16.81.52-33.72.2-50.52.96v-10.01c80.26-2.81,160.11-5.3,240.37-9,70.53-3.26,143.74-5.38,213.9-14,25.69-3.15,45.64-7.37,66.39-23.58,25.27-19.74,42.67-38.67,73.37-52.59,71.31-32.34,138.67-14.35,209.78-33.11,43.68-11.52,86.46-26.61,131.53-33.4,27.45-4.14,56.03,1.63,65.43,30.9,14.93,46.49-36.84,82.56-73.57,97.96-33.52,14.05-69.9,17.55-102.63,33.34.04,1.92,9.25,7.47,11.33,8.66,14.87,8.5,31.77,13.67,46.59,22.39,24.59-.95,48.68-1.36,72.37,6.19,10.04-4.84,19.49-10.93,29.95-14.94,8.69-3.33,19.5-4.93,27.65-8.33,9.37-3.92,21.23-22.2,29.01-29.97,10.37-10.34,18.79-12.99,25.84-27.15,10.47-21.03,16.57-42.32,36.21-57.77,11.27-8.86,23.54-11.86,37.7-9.8,9.54-19.61,19.62-42.11,39.97-52.5,11.62-5.93,25.22-8.14,37.25-1.84,20.53,10.75,13.37,27.93,8.88,46-5.03,20.25-11.57,42.3-17.67,62.32-2.48,8.15-5.37,16.23-8.25,24.23,6.7-6.09,16.62-12.26,21.98-19.5,3.34-4.52,6.06-11.7,9.2-16.8,20.37-33.07,49.71-82.77,95.24-78.68,13.15,1.18,29.1,13.47,29.57,27.48.5,15.12-21.42,46.24-29.23,60.83-12.02,22.44-20.77,47.06-38.8,65.67l21.66-16.82c26.79-22.21,96.33-51.83,115.76-7.16,7.99,18.37,1.62,25.52-10.96,38.03-25.24,25.11-55.99,46.81-79.46,74.47l-103.96,80.49h-18.99l3-3.99-3.99-1.02c-2.63,10.07-3.27-.28-4.17-.85-1.1-.69-5.02.49-6.35-2.08l-4.48,7.93h-15.99l-3.99-5,6,.54,6.49-10.54-3.5,11.98,7.86.88,2.02-5.39c-.16-1.52-5.76-1.39-4.89-4.47l6,.57c1.39-2.54,3-5.04,4.38-7.58.79-1.46.08-1.06,2.01-4.05,1.32-2.03,2.04-4.42,4.1-5.94l-1.5,7.99,7.54.75,4.44-8.27-1.98-2.47c3.34.68,4.14-2.26,5.01-5l1.99.51-1.01,4.47,8.05,1.55,4.92-7.03-6.97-3c1.85-2.58,5.49-.5,7.51-2.49s3.17-8.78,5.98-11.01c2.34,2.34-3.26,12.15-2.51,12.99l6.91.93,4.16-11.37c-1.46-1.02-2.61.05-2.07-2.55l3.86-.13,3.64-7.87-1.5,8.99,7.05.58c.54-2.98,4.29-9.02,4.65-11.24.18-1.09-1.02-3.03-.71-3.33.35-.33,4.4.86,4.02-4l.98,5,7.9-.1c.41-3.38,1.27-6.26,4.08-8.4-1.32-1.6-3.7-.79-2.98-3.5,5.2,1.17,3.66-2.16,6.5-4.98l.47,5.51,7.93.37c1.27-6.77,2.51-13.19,7.08-17.9v6s6.87-.14,6.87-.14c.96-7.02,4.29-12.51,7.15-18.86l1.99.5-2.01,8.47,7.06.6c2.67-6.82,3.33-14.9,8.44-20.58,1.08,6.86-2.05,14.15-4.46,20.51.16,1.91,6.25,1.73,7.85,1.38,2.25-11.55,5.57-24.42,12.6-33.89.06,9.31-6.46,19.91-7.5,28.51-.55,4.54,5.19-2.35,5.83-3.19,7.87-10.38,8.31-25.78,15.16-36.84,1.82-1.43.83,1.98.72,2.72-.26,1.67-.8,3.31-1.01,4.99l-6.2,20.79,14.04-14.04c-6.78-18.34,29.5-55.05,44.95-55.04,2.25,0,4.25,1.14,6.48,1.08-2.13-28.33-35.3-28.57-56.18-21.7-35.88,11.8-67.74,43.01-93.72,69.21,3.5.04,12.1,13.14,10.96,14.5l-17.03-10.61c-13.48,7.38-27.62,13.32-40.85,21.19-8.4,5-16.7,10.7-24.8,16.19-15.07,10.22-29.28,23.62-46.16,30.31,1.21,8.69,2.66,17.04,1.9,25.91-3.32-3.18-4.65-9.57-5.52-13.96-.7-3.54-2.03-7.82-.47-11.03l-27.53.95c-24.69.85-88.67,2.98-107.93,16.02-5.57,3.77-9.81,9.32-15.46,13.02-.3-4.42,3.37-9.1,6.01-12.48,1.06-1.35,8.23-7.3,6.97-8.52-13.72-2.57-26.55-8.26-40.16-11.32-21.08-4.75-43.71-5.74-63.29-15.68-.87,3.16,5.73,9.73,5.48,12.5l-2.45,1.48c-11.03-13.69-23.96-25.29-37.02-36.97-13.18-11.78-17.31-17.15-28.49-30.49-7.31-8.73-15.77-17.18-21.98-26.52-1.32-.94-5.92,3.76-4.98,4.98l7.99,5c-6.11.16-11.63-5.23-15.97,1.51,4.22,2.62,8.99,4.18,13.27,6.7,1.74,1.02,6.02,2.48,5.69,4.8-5.5,1.64-22.71-8.66-25.99-6.53-.56.36-2.12,3.36-1.99,3.52l34.98,15c-5.2-.42-10.96-1.14-16-2.48-7.45-1.98-24.41-13.88-26.92-4.1l35.91,16.58c-8.95,1.95-35.15-13.78-40.41-13.02-1.92.28-2.55,2.36-4.56,2.02l2-3.98c-8.93-4.55-12.2,1.84-19.98,4.99-.48-5.08,5.12-5.87,7.97-8.5-9.27-7.62-14.78,1.23-22.97,5-1.4.64-10.5,3.96-10.99,3.49.49-4.08,4.65-7.23,7.46-10.02,10.17-10.11,22.36-18.48,33.5-27.53.91-.61,1.07-1.42,1.02-2.45,3.9-.25,6.3-4.51,9.99-5.49l-5.99-4.07c-1.44,1.66-3.93,3.43-4.6,5.56-.74,2.36.56,3.06.6,4.01ZM1280.46,599.9v14.5c5.94,4.15,7.33-2.63,6-7.84-.2-.8-2.06-.58-2.04-1.17.03-.85,2.29-4.84,2.78-7.25.69-3.35-1.32-9.21,3.26-9.24v23.5c0,.46-2.8,2.65.49,2.49,6.03-6.13,3.78-18.32,4.52-26.48.27-2.94.77-6.87,1.24-9.77.15-.91.42-3,1.75-2.74v18.5c0,1.08,2.01,4.35,1.01,6.5,1.19-.69,3.4-4.68,3.71-5.77,2.4-8.18,1.13-20.54,2.28-29.73.23-1.82-.38-1.63,1.99-1.49v22l2.92-6.58,2.09-24.41c4.32-.7.99,4.34.99,5.49v14.5l4.78-10.72c-3.62-11.7,1.33-24.85,6.36-35.63,4.24-9.09,11.46-22.17,22.85-21.65-2.22-12.12-15.36-19.2-27.39-17.89-27.16,2.97-46.61,25.73-61.39,46.58-3.44,4.86-27.51,42.69-25.17,45.31,8.68,1.67,15.94,7.82,21.99,14-9.28-1.27-16.63-7.16-25.07-10.56-31.99,24.15-58.82,54.01-83.86,85.09v1.46c3.52-.59,12.72,14.31,11.98,15.01-3.96-1.05-6.31-5.32-9.67-7.82-1.17-.87-5.9-3.98-6.84-3.89-.3.03-4.91,3.03-4.46,4.19l11.97,14.52-17.9-13.55c-36.89,10.74-71.74,27.36-104.03,48.07l3.99,5.48c-2.56,1.94-19.43-7.8-22.68-9.8-4.89-3-10.91-6.64-14.3-11.19l22.4,5.07,2.66-7.05,8.77.81c.51-2.06,3.24-6.61,5.1-7.29,1.64-.6,4.74,1.41,8.03-.07,2.44-1.1,4.28-5.78,6.52-7.47l-2.5,6.99c9.1-.63,10.64-6.81,14.01-13.98l2,.51-3.01,6.99,6.73-1.76,7.27-11.74,2,.51c-.04,1.8-1.61,3.53-1.97,5.04-.86,3.59,3.4-.41,4.23-.78,1.45-.63,3.89-.59,4.74-1.25.8-.61,3.45-9.37,6.48-10.52l-2.5,7.99c2.22-1.29,7.37-2.37,8.95-3.53,2.67-1.97,3.9-10.22,7.55-12.45l-2.5,9.98c10.32,1.25,8.51-8.39,12.98-13.5,3.58-4.1,9.56-1.51,10.02-9.48,3.83-1.03.55,5.05,3.49,5.99,5.03.5,3-4.89,3.74-8.24s1.92-6.48,2.76-9.75l1,4.99,5.83-2.16,2.17-13.84c.88,2.44,7.18.63,7.84-.15.94-1.12.78-8.84.57-10.86,1.78-3.09,8.85.25,9.56-6.59.23-2.2-1.16-5.15-.55-6.4,1.47-2.97,9.39-1.62,7.57-9,2.86,3.8,3.36,3.49,7.99,1.98.31-.43-1.87-8.25-1.7-10.36.25-3.19,4.17-8.07,3.71-1.61l4.99-2.01v-14c3.38,1.8,2.22,8.93,3.47,11.03,1.07,1.79,4.4.11,5.09-1.03.65-1.06-2.33-14.64-2.55-17.51-.09-1.18-.84-5.47.97-5.48,2.41,7.32,2.91,14.92,4.04,22.48.2,1.36.37,3.02,1.96,1.51,4.61-12.01-1.95-26.36-1.97-38.99l2.71,4.78,4.27,17.21c.35-2.87,2.09-6.65,1.95-9.43-.11-2.05-1.65-4-1.85-6.14-.62-6.45-.26-12.93-2.07-19.41,2.69-.46,1.74.48,2.27,2.17,1.42,4.52,1.9,9.46,3.01,14.05.24,1,.3,3.01,1.7,2.77-.01-4.32,3.7-9.68,3.73-13.68.02-2.68-3.19-6.81-3.66-9.87-2-13.21,3.97-42.61,17.93-48.46-14.63-21.22-40.32-8.92-52.95,7.54-16.35,21.31-25.61,51.66-32,77.44l19.97,11.03c-6.89.32-15-1.01-20.71-4.85l-2.28.31c-19.79,23.35-37.82,48.75-48.95,77.5l13.97,8.06c.52.76-.67,2.76-1.47,2.86-3.9.49-14.12-8.11-20.53-6.43-8.68,2.29-27.43,12.36-35.98,17.03-4.65,2.54-9.39,5.3-13.89,8.11-3.35,2.09-26.04,17.23-26.86,18.64-.59,1.02-.13,2.6-.22,3.78-1.68,1.87-23.74-8.86-26.69-10.76-.98-.63-1.79.1-1.28-2.24l17.87.88c.12-2.05,2.58-7.49,4.12-8.44,2.26-1.4,12.19,4.68,13.47-6.46,1.99-1.97,7.1-1.25,9.49-2.51,1.83-.96,4-6.2,6.52-7.47l-1.01,5.99c4.54-.25,6.62-7.29,7.52-7.99,3.37-2.63-.19,2.73,2.46,1.98,8.15-5.02,18.63-7.1,20.52-17.98,4.44-.86.27,5.12.99,6,4.45-1.96,8.06-3.28,6.98-8.99l-4.98.99c-.79-3.32,4.54-2.38,6.96-4.52,1.24-1.1,1.83-2.86,2.03-4.47l1,3.99c6.55-.72,5.13-8.24,7.48-13.01l1.01-.97c5.72,5.32,6.91-3.2,6.5-8.02,4.82-.88-.82,8.87,3.98,8,2.04-1.32,5.24-24.41,7-22l-1,7.49,2,.51,5.02-18.99c2.86.87-1.36,8.01,2.97,6.99.5-3.24,2.84-5.7,3.73-8.78.28-.98,2.38-17.84,4.27-15.22l-.49,12c6.81-6.38,3.28-17.1,8.49-22.99l.02,11c6.88-4.54,5.35-13.67,6.99-21,1.7-.02,2.17-.56,1.92,1.42-.39,3.14-1.59,6.17-.92,9.59.21.3,1.23-.51,1.5-.99,1.9-3.39,4.48-17.83,5.99-23.01,1.24-4.25,2.84-8.38,4.49-12.48-9.49-5.56-23.15,1.96-30.45,8.51-16.98,15.21-25.9,39.89-34.53,60.45l12.01,7.51c-4.6,1.35-10.5-2.52-14.42-1.99-7.18.97-25.6,20.13-30.9,26.12-1.99,2.25-12.06,13.87-12.64,15.4-.81,2.15,6.76,1.86,7.71,4.26l2.27,3.22c-5.82.53-12.02-2.08-17.78-1.38-8.11,1-26.2,7.54-34.18,10.89-7.2,3.03-14.32,8.21-22,10.5,2.65,3.41,7.59,4.77,10,8.49.83,1.28,1.1,2.17-.52,2.5-1.9.38-23.77-9.43-28.25-10.72-19.24-5.55-39.46-3.52-59.18-3.28l10.2,17.29.3,3.7c-6.91-4.27-10.9-12.92-16.45-18.54-9.11-9.23-24.31-14.32-36.02-19.45l24.46,31.01c8.86,7.31,17.09,15.8,26.03,22.96,22.71,18.19,70.84,20.43,99.86,29.09,5.51,1.64,20.35,8.7,24.04,9.03,8.54.75,37.62-7.49,49.12-8.94,6.01-.76,12.9-1.72,18.86-2.13,5.22-.36,15.71,1.06,19.8-.19,1.76-.54,5.42-7.05,8.15-7.42,1.97-.27,7.59,2.79,8.56,2.18l4.46-6.55c2.78,1.77-1.48,4.8-1.5,6.97l6.36,1.1,2.63-5.07c-1.79-.77-5.79-.03-4.99-3.01,3.22.33,5.49.15,7.96-1.98-.12,3.33,5.26,1.77,7.56,3.86l3.47-6.88-3.99-.99c4.68-2.18,8.6-.05,13.31-.13l4.91-7.23,9.64.23,3.28-8.71,8.77.8,3.21-7.82c6.86-.12,9.21-.43,11.35-7.15l.5,5.99c4.71.24,6.86-2.89,7.99-6.99-2.01.2-3.95-.23-5.93-.43-1.39-.14-2.39,1.41-2.06-1.07,5.28-2.92,9.1-.32,11.49-7.51l.49,5,7.96-.05,2.04-8.94-4.99-.51c4.59-2.71,6.58-3.66,7.01-9.5,4.59-.79-.8,4.87,1.98,6.52l6.31-.51,1.76-7.49-3.06-1.03c3.17-1.86,4.66-3.71,5.01-7.5,4.23-.93.74,4.81.99,4.99h8s0-9,0-9l-4-.49c4.08-2.19,5.26-3.44,7.49-7.48l.5,4.97,6.83-1.17c.46-.71,1.88-18.97,4.16-15.82l.02,5c7.69-1.98,8.06-2.07,8.48-9.97.07-1.28-1.23-2.11-1.19-2.53.04-.46,4.41-7.87,4.69-7.5l-.99,5.99,7.99-1c.02-3.09-.17-6.15.26-9.23.22-1.58.99-6.15,2.74-6.76ZM974.44,529.74c2.23-14.5,2-30.45-6-43.15-1.07-1.7-5.38-7.5-6.84-8.17-3.38-1.55-16.45,4.54-20.66,6.3-4.57,1.92-22.21,9.46-23.78,13.21-4.07,9.72,6.9,35.23,13.42,43.43,15.33-.79,29.92-5.55,43.86-11.62ZM1210.49,512.4c-.64,4.37.47,9.96,0,14.5l13.01-42.49c-.9-1.58-2.3.17-3.02.98-2.8,3.15-9.34,22.56-9.99,27ZM1347.42,511.91c-7.63,2.09-12.69,11.62-16.18,18.31-3.85,7.39-7.91,16.2-7.8,24.69,3.33-3.81,25.72-41.25,23.97-42.99ZM916.5,576.03l-4.36-3.08-5.5,6.94c5.17,1.57,9.43,3.44,9.86-3.86ZM895.14,577.08l-6.47,6.33,7.34,3.39,5.62-5.39-6.49-4.33ZM915.64,587.9c-2.41-4.39-14.94-7.5-15.03-.49-.08,5.96,11.93-.85,15.03.49ZM892.36,593.59c.75-.61,1.16-2.53,2.27-3.19-4.63-3.41-7.38-3.73-11.97-.48-1.14,1.61,5.37,7.24,9.7,3.67ZM1191.5,586.91l-5.85,1.14-.14,9.85c2.06.64,3.86-3.86,4.37-5.12.79-1.92,1.89-3.67,1.61-5.87ZM876.66,591.92c-6.89-1.12-10.13-8.27-13.99,1.97l7.5,3.73,6.48-5.7ZM1182.38,598.78l-.33-7.92-5.53.06,1,8.98,4.86-1.12ZM847.4,591.05c-1.4.38-2.58,2.4-3.7,3.36,1.67,1.84,5.46,4.8,8.01,4.1,8.32-2.29.45-8.76-4.3-7.46ZM827.77,598.79c4.52,3.38,6.29.98,9.89-2.38-4.68-4.33-8.72-4.69-9.89,2.38ZM867.66,598.92l-9.3-2.08-3.68,6.06c3.31-1.01,6.88-1.39,10.19-2.3,1.02-.28,3.02-.25,2.79-1.68ZM852.67,602.92l-11.48-4.63c-2.46,1.04-4.65,2.65-4.51,5.61l7.49,2.64,8.5-3.61ZM830.69,602.92l-5.5-2.77c-8.79,7.07.81,11.71,5.5,2.77ZM1183.5,600.91l-5.93,2.09.94,8.9c1.44-.5,2.59-3.92,3.15-5.33.41-1.04,2.37-5.13,1.83-5.66ZM814.7,605.92l-7.34-1.93-3.64,5.35c3.85,4.49,6.3,1.94,9.69-1.14.64-.58,1.93.07,1.28-2.27ZM836.68,608.89c.79-1.08-1.93-4.24-3.39-3.94l-4.6,5.94,7.99-2ZM1174.51,604.91l-4.84,1.15-.14,7.85,4.55-.94.43-8.06ZM1161.53,616.9c5.61-.74,6.91-5.97,3.4-9.94l-3.45,1.62.05,8.33ZM823.69,610.92l-6.51-2.84-4.48,6.82c4.73,2.86,9.38,1.36,10.99-3.97ZM805.64,614.97c-4.88-2.45-9.02-2.92-8.86,3.84,4.71,2.85,8.56,2.21,8.86-3.84ZM783.29,619.48c-1.17,1-2.59,1.68-3.56,2.92l3.66,2.35,6.3-5.35-3.5-2.13c-1.9-.13-2.1,1.52-2.9,2.21ZM812.69,618.92l-4.36-.93-4.61,4.41c-.22,3.1,6.82-.7,7.69-1.26.79-.52,2.75-.65,1.28-2.23ZM1287.46,617.91l-7-.02-.99,10.01c2.02-.21,8.51-9.61,7.99-9.99ZM1166.51,618.91l-4.86,1.12-.12,7.87c5.64-.34,5.35-4.38,4.99-8.99ZM1276.47,618.9l-6.57.94-.43,9.06,6.99-.99v-9.01ZM797.07,626.26c.53-.64,2.58-1.25,2.61-1.85-6.23-4.91-7.84-3.79-12.36,1.5-.6.7-1.02.48-.62,1.99l6.36,2.95c1.95-1,2.71-3.03,4-4.59ZM1152.53,629.9c5.63.46,8.25-4.77,4.51-8.93-5.49,1.31-4.75,3.94-4.51,8.93ZM780.71,626.91c-4.58-.65-10.21,1.97-9.99,6.98l5.88.9,4.11-7.88ZM1418.39,627.91c-2.45.52-5.49-1.02-7.7-.25-7.32,2.54-27.66,22.54-31.31,29.71-1.73,3.39-2.21,6.88-2.96,10.53.69.71,6.51-4.22,7.47-5.02,8.89-7.43,27.75-22.49,33.56-31.42.8-1.23,1.23-1.99.95-3.54ZM1079.56,627.91c-4.49-.54-6.36,4.39-5.98,7.99,3.5-1.3,6.26-3.97,5.98-7.99ZM1269.45,641.9c1.08-4.19,6.29-6.29,6-10.99l-6.56,1.93c-.81,1.11-.51,4.95-.43,6.59.06,1.13-.65,2.74.99,2.47ZM1158.52,632.91c-6.36-.72-6.43,3.81-5.99,8.99l5.99-8.99ZM1265.46,632.91l-6.89.1-1.11,8.89c1.82-.15,5.38.7,6.54-.96l1.45-8.04ZM1149.52,634.91l-5.53,1.96-.45,8.04c5.64-1.22,6.48-4.61,5.98-10ZM813.89,644.14c.54-.83,4.08-1.04,4.81-2.76l-2.64-3.4-6.27,4.52.55,2.48,2.86,1.92c1.04-.19.14-1.92.69-2.76ZM1263.46,644.91l-6.49,1.94-.49,7.05c1.65,1.93,7.61-8.37,6.98-8.99ZM1253.48,645.91l-6.56.94-.43,8.07,5.75-1.25,1.24-7.75ZM1139.53,648.91l-5.75,1.23-1.23,9.76c5.77-.29,6.44-6.42,6.99-10.99ZM798.7,657.92c-3.52-1.13-7.15-2.23-8.99,1.98,3.39.94,8.16,3.57,8.99-1.98ZM1242.48,657.9h-7.01s0,8.01,0,8.01l6.57-.94.44-7.07ZM1251.47,657.91l-5.85,1.14-.14,6.85c2.85.93,6.65-7.38,5.99-7.99ZM768.72,664.89c5.9,4.04,8.27-.06,12.97-3.49-2.26-4.91-13.79,2.3-12.97,3.49ZM780.71,668.89c5.62,1.73,7.21,2.67,10.97-2.49-4.05-3.7-9.13-2.62-10.97,2.49ZM1119.54,663.91c-3.25-3.05-7.79,6.01-6.99,8.99,3.55,1.26,8.3-7.75,6.99-8.99ZM1128.53,663.91l-4.88.11-1.11,5.88c3.11-.23,6.59-2.55,5.99-5.99ZM1241.47,668.91l-7.94,1.05-.04,4.95c.52-.33,10-4.42,7.98-5.99ZM1230.48,669.91c-2.01.18-6.39-.74-7.56.93l-.43,9.06c5.12-1.3,7.97-4.59,7.98-9.99ZM1216.49,682.91l-6.85.13-1.13,5.86c2.02-1.07,4.08-2.26,6-3.52,1.16-.77,2.58.25,1.98-2.47ZM1194.5,693.92l-6.99-1.01v6.01c3.15.58,6.72-1.49,6.99-4.99ZM1182.47,701.96c-6.02-2.72-7.63,0-7.95,5.94,4.69.35,8.38-.45,7.95-5.94ZM1169.51,709.91c-2.54.21-4.87.19-6.5-1.99l-2.47,5.49c3.44,3.37,8.89,1.69,8.97-3.5ZM1319.4,716.87l3.04-6.45c-.45-2.13-6.91-1.69-8.85-1.38l-2.14,6.86,7.95.98ZM1333.43,708.91l-8.04.39-1.95,8.6c.41.54,9.64-7.24,9.98-8.99ZM1155.48,717.96l-5.94-2.05c-.48,3.18-2.45,9.7,2.95,7.54,1.4-.56,3.97-4.09,2.99-5.48ZM1165.51,717.91l-6.32.9-1.66,5.1c1.72.38,2.62-.9,3.88-1.61.66-.37,5.41-3.12,4.1-4.38ZM1304.44,728.91l2.98-9.51-6.31-1.4-3.67,9.9,7,1.01ZM1318.45,719.91l-7.83-.87-3.17,9.86c4.98.5,5.93-6.29,10.95-6.05l.05-2.94ZM1142.53,724.92l-6.89-.9-1.1,4.88,6.05.53,1.94-4.51ZM1292.45,730.92l-7.97-2.01-3.03,9.99,7.93.94,3.07-8.91ZM1298.75,737.21c1.18-1.05,5.2-1.5,4.7-3.79-9.72-5.99-9.46,3.75-11.98,10.48.72.88,6.83-6.3,7.28-6.7ZM1276.47,740.91l-6.98-1.01c-1.07,6.45-9.54,15.03,3.04,12.56l3.94-11.55ZM1288.45,741.91l-7.85.08-4.13,11.91c5.32-1.91,10.84-6.07,11.98-11.99ZM1260.47,754.91l-6.98-2.01-3.01,11.99,6.04-.45,3.95-9.53ZM1271.46,755.91l-6.29.12-1.22.84-3.46,10.04c1.88-1.36,13.27-8.12,10.98-11ZM1244.47,766.91l-6.88.11-2.12,7.88,6.06.58,2.94-8.57ZM1255.47,768.91l-7.96-.98-3.03,9.96c1.78,1.46,9.95-7.04,10.99-8.98ZM1229.49,776.91l-8.05-1.59-2.95,8.58,8.5,1.98,2.49-8.97ZM1240.47,778.91l-6.98-1.01-2.98,7.51,2.48,1.53c1.65-.07,8.65-7.04,7.49-8.03ZM1213.49,785.91c-3.62.96-5.64-1.98-8.98-2.01l-3,9c8.05,1.36,9.24.83,11.98-6.99ZM1226.49,787.91c-3.65,1.39-6.42-.32-9.98-1.01l-3.01,8,8.85.86,4.14-7.85Z"/>
  <path d="M318.94,802.9l6.98-7.5-6.98-6.49c3.82-.34,6.12,2.55,8.51,4.98h1.48c.07-5.26,8.13-6.53,9.02-11.98,2.59-.75,1.73,1.23,3.03,2.39s7.55,6.43,8.46,6.36l10.46-9.26-3.98-4.49,5.98,2.98c.27-1.93,1.6-4.28,4.02-3.98l-2.98,5.96,7.48,6.01c2.98-5.7,11.48-7.85,4.5-13.97,2.57-.46,3.18,3.03,5.5,3.03,2.57,0,3.6-4.44,6.5-4.03l-4,5.46,8.5,7.53,10.48-8.99-7.99,10.98,8.98,5.01c-.41-3.09,10.75-8.45,9.01-10.98-4.63-1.39-8.17-5.29-10.99-9.01l13.93,7.93,4.99-5.58-4.92-6.35,7.37,3.91,8.61-7.92c1.43,1.75-5.66,8.16-6.97,9.5l9.48,7.48c2.86-3.19,4.83-7.07,9.49-8l-6.99-7.98,8.36,4.93,8.22-5.89-.59-4.03,13.31,8.86c3.76-1.85,6.15-5.24,9.21-7.86.83-.71,2.31-.89,2.47-1.02,1.07-.91-5.59-2.61-1.48-3l13.46,11.02c.97-4.3,6.75-5.63,8.94-9.64l-5.92-6.87c2.9-2.06,6.28,4,8.68,4.37l6.31-3.86-3.93,5.35,7.49,7.6c1.29-1.16,8.27-7.02,8.39-7.57s-5.48-7.11-1.47-5.39c.94.4,1.94,2.35,3.02,3.06.92.6,2.01.04,2.27.24.54.42.77,1.94,1.68,2.68,1.48,1.2,9.36,8.17,10,8.01l6.5-6.5-7.47-7.51,8.99,5.84,3.48-2.83-1.99,4.99c4.78-.12,6.29,5.53,10.67,6.93l4.3-4.38-7.96-9.53,10.48,7.8,4.5-2.81-2,4.47,9.99,7.53c.57-4.12,5.47-4.82,8.01-7.5-1.76-.67-10.24-8.09-8.98-9.5l10.48,7.98,6.49-5.98-3.92,7.36,10.56,9.57c7.1-5.7,13.53-6.97,4.37-14.92l8.4,4.93,5.58-4.93-3.95,6.5,12.59,10.44,8.33-6.54-4.96-7.39,7.48,5.75,4.5-2.76-2,4.47,9.5,8.52,13.44-9.94c1.01,2.03,8.03,9.16,9.78,9.77,3.7,1.29,4.96-4.24,9.26-4.81l-4.92,7.36,9.45,9.62,1.42-.02c.75-3.91,5.98-3.91,8.03-7.46l-7.97-8.49c1.56-1.51,6.95,6.51,8.64,6.85s3.32-2.35,5.35-1.84l-2.98,3.49,12.64,10.33c6.73-3.68,11.85-4.95,4.33-11.82,2.71-.46,3.74,3.38,5.7,3.89,2.41.62,3.06-2.27,5.29-1.89l-3,4.98c5.93-.52,6.33,6.32,11.66,7.92l10.31-7.91c1.33,1.48-7.93,8.92-8.98,10.5l5.99,5.5h-15.99l5.99-5.49-11.48-9.55-7.49,6.53,7.99,8.51h-5l-5.63-4.93-6.36,4.93h-9.99c-.83-4.16-6.28-5.49-8.5-8.98-2.35,2.93-6.66,5.1-7.5,8.98h-8c-1.32-4.29-6.73-5.22-9.48-8.73-1.25-.19-8.13,6.39-5.51,8.73h-9.99c3.21-4.96-4-7.01-6.64-9.89l-8.42,6.39,1.07,3.5h-10.99c3.83-2.49-6.65-11.03-7.49-11.02l-5.47,5.62,3.96,5.4h-19.99l-9.49-7.04-4.46,3.54,2.96,3.5h-62.97l3.99-2.5-7.49-6.46c-2.69,2.8-6.09,5.18-7.5,8.96h-6l-8.63-7.93c-1.79-.31-6.85,5.92-7.36,7.93h-6c-.43-3.69-5.31-4.43-7.51-6.83l-5.49,6.83h-9l-7.36-5.93-4.64,5.93h-7c.12-2.12-6.52-7.04-7.49-7.04-3.03,1.19-5.52,4.45-7.5,7.04h-27.99l6.98-7.5-7.38-5.46-6.58,7.46,4.98,5.5h-14.99l4-4.98-7.5-6c-2.24,3.24-9.58,6.33-6.5,10.98h-7c-.51-4.11-5.23-5.06-7.5-7.96l-7.5,7.96h-7l-8.39-5.96-4.61,5.96h-4ZM521.82,758.91l-2.06.63-5.73,7.87,9.32,8.46,8.48-7.95c-3.61-1.83-8.9-5.02-10.01-9.01ZM491.86,768.92c-1.42,1.97,6.58,5.98,7.49,7.97l8.45-9.38-7.45-6.59c-3.42,2.18-4.48,7.29-8.49,8ZM477.85,779.9c.84-4.86,7.31-4.86,8.97-9.51l-9.45-8.48-9.5,9.49c2.15,1.08,8.56,9.5,9.97,8.5ZM543.65,763.12c-2.75-1.27-6.33,3.73-7.82,5.76l10.47,7.02,5.52-6.99c-3.14.85-7.39-5.43-8.17-5.79ZM462.87,770.92c-4.24-.72-6.15-4.41-8.98-7.02l-6.99,8.5,8.48,7.48,7.49-8.96ZM566.81,777.91l1.6-6.01c-4.94-3.33-8.61-10.15-11.58-1,6.27-.95,5.19,6.09,9.98,7.01ZM586.14,769.57c-.84-.69-1.22-2.5-2.3-3.23l-1.41-.37-6.6,6.43,11.33,9.4,6.64-5.39c-2.02-3.61-4.99-4.63-7.66-6.84ZM617.22,780.32c.88-.93,2.9-1.23,2.55-2.87l-10.5-10.55-9.46,7.02c-1.13,1.6,9.01,10.19,10.62,11.91,1.25.22,5.62-4.28,6.79-5.52ZM659.71,769.95l-10.93,7.97.63,2.06,8.84,6.93,10.51-7.03-9.06-9.93ZM512.72,786.77c.25-.15.68-2.13,1.54-2.91,1.48-1.34,5.83-3.44,5.51-5.32l-9.4-7.64-7.53,9.99c3.98-1.26,6.16,8.06,9.88,5.88ZM526.86,776.93v1.47s7.58,7.47,7.58,7.47c12.79-8.5,7.99-6.88-1.11-14.94l-6.48,6ZM630.17,781.52c.93.87,5.21,4.46,5.98,4.32l7.61-6.43c-2.04-1.87-9.12-9.14-11.35-8.45l-6.6,6.45c1.97,1,2.99,2.82,4.36,4.11ZM489.84,772.91l-2.06.63c-1.15,2.13-2.78,4.66-4.42,6.4-.73.78-2.39.85-2.49.97-1.53,1.95,1.73,2.12,2.49,2.93,1.47,1.58,2.24,3.68,4,5.03,2.06-3.79,10.74-6.56,7.56-10.55-1.35-1.69-5.14-2.12-5.08-5.42ZM562.81,778.92l-8.49-6-5.48,5.48,7.61,6.44,5.73-3.85.63-2.06ZM467.85,789.9c.45-3.8,5-4.48,6.99-7.49l-8.47-7.48-7.5,7.97c3.77.61,5.27,4.46,7.51,7.01h1.47ZM453.87,783.88c1.21-1.76-7.23-7.66-9.34-7.83l-7.63,8.83,8.97,6.01c.6-3.37,4.98-5.79,8.01-7.01ZM422.42,776.9l-5.5,5.5,8.48,7.48,6.48-5.48-9.45-7.5ZM571.52,777.02l-2.68,2.39,10.48,9.48,3.47-3.48c-2.09-1.92-8.94-9.01-11.27-8.39ZM602.17,793.32c1.76-1.36,5.04-2.68,4.25-5.45-.38-1.33-9.1-9.05-9.97-8.89-1.12,1.38-8.02,5.08-6.64,6.9,4.85.39,6.52,6.44,10.53,8.99,1.89.62,1.27-1.12,1.83-1.56ZM388.9,788.89c1.17-1.65-6.72-7.11-8.46-7.98l-6.48,8.4,7.32,5.54,7.63-5.95ZM631.78,787.92l-9.35-6.94c-.62.11-5.41,5.35-6.53,6.55-.72.76-1.55.7-1.1,2.36l8.49,7c1.94-4.46,7.87-4.15,8.49-8.96ZM530.52,787.2c-.62-.69-6.54-5.31-7.04-5.22l-8.61,8.43,7.48,7.48c1.5-3.39,11.52-6.99,8.18-10.69ZM538.84,789.89l7.49,6,7.49-7.47-8.36-6.44-6.63,7.91ZM655.77,790.89l-9.63-8.91-7.34,6.46,8.53,8.44c1.56.35,5.17-6.52,8.44-5.99ZM672.73,798.89c.75-4.29,5.7-5.22,8.01-8.48l-10.49-8.25c-3.17,1.92-3.71,6.28-7.87,6.69l-.61,2.05c4.97.9,5.62,7.59,10.96,8ZM358.95,798.9l8.98-8.53-6.53-7.45-9.46,8c-1.77,2.11,7.64,4.8,7.01,7.98ZM569.15,786.57c-1.03-.85-1.69-4.05-3.71-3.59l-4.58,5.33c2.56,1.8,7.65,7.92,10.38,7.66l4.55-4.55c-1.69-2.31-4.59-3.15-6.64-4.84ZM500.83,798.9l7.08-8.51-8.42-6.33-7.62,7.35,8.96,7.49ZM694.74,783.91l-7.96,6.49,10.48,10.47,7.46-6.41c-2.63-4.24-8.75-5.74-9.97-10.56ZM339.91,784.91c-1.52-1.08-7.74,8.33-9.97,9.51l8.51,6.55,9.44-7.67c.62-2.91-8.22-4.87-7.97-8.39ZM484.67,790.06l-6.3-5.14-6.5,8.45,6.94,4.49c.46-2.95,3.49-3.99,5.87-5.11l-.02-2.7ZM414.4,785.93l-8.42,8.61,7.44,7.32,9.46-9.45-8.48-6.47ZM464.86,793.89c1.23-1.8-7.89-6.96-9.47-8l-6.49,7.52,7.51,6.48,8.45-6ZM442.88,793.89l-8.51-6.98-4.48,4.51,6.62,6.42,6.37-3.95ZM582.82,791.89c3.12.09,9.29,8.91,11.5,8.85,2.02-.06,2.88-2.72,1.04-4.88-2.05-2.41-8.81-8.31-11.92-5.94l-.62,1.97ZM565.81,797.92l-9.35-5.91-5.63,6.89,14.98,1v-1.98ZM541.82,796.92l-6.49-4.06c-1.86,0-5.36,4.33-6.5,6.03l12.49.02.5-1.99Z"/>
  <polygon points="1981.11 390.9 1701.24 390.39 1981.11 386.9 1981.11 390.9"/>
  <polygon points="1981.11 393.9 1981.11 396.9 1744.25 396.4 1981.11 393.9"/>
  <path d="M1981.11,400.9v3l-192.91-.49c4.25-2.5,9.74-1.11,14.46-2.55l178.45.04Z"/>
  <polygon points="1981.11 407.9 1981.11 410.9 1816.18 409.4 1860.72 406.86 1867.62 407.95 1981.11 407.9"/>
  <path d="M1981.11,383.9c-3.44,2.14-6.74-.12-9.54-.04-32.49.92-65.49,1.11-98.07,1.42-16.17.15-37.17,2.42-52.84.66-1.5-.17-3.08-.21-3.46-2.03l163.92-2.01v2Z"/>
  <path d="M300.95,802.9l4.99-5.5-6.99-6.49c3.11-.49,5,3.76,7.47,3.95,3.13.24,4.69-4.68,8.01-4.97,1.83,2.2-4.49,5.54-4.47,6.51l6.98,6.5h-15.99Z"/>
  <path d="M1981.11,413.9v3c-8.12.16-16.33-.13-24.41-.01-3.52.05-7.28,3.18-9.57-1.98l33.98-1.01Z"/>
  <path d="M751.73,802.9l4.93-5.64-2.42-4.37,5,2.75,2.48-1.74c-2.83,5.69,3.31,4.11,4.01,9h-13.99Z"/>
  <path d="M290.96,802.9h-8c2.99-5.38-4.36-5.68-6-9.99l9.29,4.89,9.69-8.9-7.96,10.5,2.98,3.5Z"/>
  <path d="M1981.11,426.9v2c-7.36-1.36-15.39,3.08-21.99-.51l5.44-1.49h16.56Z"/>
  <path d="M1981.11,420.9v3l-11.99-1.01c2.2-3.75,8.36-1.37,11.99-1.99Z"/>
  <path d="M263.97,802.9c-1.18-2.02-2.75-3.61-4.32-5.31-.69-.75-3.42-1.49-.16-1.71l9.48,7.02h-5Z"/>
  <path d="M788.71,802.9h-3l-7.99-9c4.26,2.13,8.35,4.94,10.98,9Z"/>
  <path d="M1209.08,275.48c-54.53,66.71-155.03,137.62-245,131.46-42.21-2.89-70.81-37.99-91.22-71.73-44.33-73.29,32.32-183.2,84.12-233.96,55.53-54.41,194.63-141.5,267.99-80.33,10.74,8.96,42.95,53.18,47.97,66,23.87,60.98-26.4,142.73-63.86,188.56ZM1153.32,10.2c-110.92,7.18-245.25,126.63-276.37,231.5-28.27,95.26,35.48,134.36,122.41,109.47,95.78-27.42,204.88-129.21,233.38-225.5,19.61-66.24-3.73-120.37-79.43-115.47ZM1268.46,106.9c1.5-1.76-16.55-25.75-18.98-28.99,3.75,9.2,10.61,18.82,16.39,27.12.39.56,1.12,3.6,2.59,1.87ZM1268.46,122.9c.92-1.01-2.44-6.09-3.19-7.3-4.49-7.31-10.51-15.04-15.79-21.69,3.98,8.93,10.25,18.47,15.79,26.69.87,1.28,1.14,2.73,3.19,2.3ZM1262.46,160.9c.13-.12,1.11-2.95.1-3.49l-20.07-27.5c-2.14,4.52,2.8,6.68,4.59,9.39,4.29,6.49,8.32,13.36,12.8,19.73.47.67.91,3.39,2.58,1.87ZM1258.47,176.9l-.45-5.04-20.52-28.95c-2.13,5.3,1.55,6.4,3.3,9.24,4.81,7.8,9.66,15.49,15.1,22.86.83,1.12-.02,2.49,2.57,1.89ZM1238.47,165.9c1.25-1.6-5-9.2-6.98-10,.05,4.8-3.26,5.35-.77,10.27,1.58,3.13,7.51,9.38,10,12.99,2.44,3.54,4.83,8.02,7.27,11.76.77,1.17-.24,2.58,2.47,1.98-.3-11.94-12.61-19.74-16.98-30.5l4.98,3.51ZM1246.47,202.9c-3.56-11.89-14.5-21.63-21.48-31.98l-3.98,8.98,20.97,29.99c2-4.9,4.57-5.99-.98-9.01l-13.51-21.99,18.97,24ZM1253.46,187.9c.25-1.85-.03-2.94-.94-4.55-1.96-3.43-7.22-9.29-10.03-12.45l10.97,17ZM1235.46,221.9c.59-2.97,3.86-5.49,2.3-8.69l-19.77-28.3-4.05,7.08c6.84,9.25,12.8,19.15,19.3,28.61.6.88-.16,1.85,2.21,1.29ZM1229.48,231.91l2.63-6.05-21.1-29.95c-2.16,2.55-4.78,5.3-2.76,8.74l18.26,25.74,2.97,1.52ZM1211.91,231.49c-4.66-6.06-7.98-12-11.91-18.56l-4.43,5.35c6.01,3.77,16.82,25.96,20.9,28.19,1.43.79,1.52.34,2.57-.51,1.21-.98,7.41-8.19,5.72-9.76l-18.82-28.24-3.43-1.06c.12,1.71-1.1,3.21-.51,4.95.53,1.58,7.46,11.6,9.07,13.98,2.91,4.33,9.44,9,8.93,15.06-2.65-3.08-5.63-6.23-8.08-9.41ZM1207.48,261.9l5.91-10.29c-8.03-9.31-15.03-19.69-20.38-30.7l-9.5,11.49c8.59,6.87,13.84,20.64,21,27.99.95.97,1.32,1.89,2.97,1.51ZM1181.5,236.91l-5.83,7.32,17.81,28.19,3.39,1.42,6.61-7.44c-8.4-8.55-17.27-18.46-21.98-29.5ZM1187.49,285.9c.08-3.64,6.79-5.91,5.91-9.29l-22.38-28.68-6.37,8.3,19.87,28.17,2.97,1.51ZM1167.53,289.91l7.49,7.98,8.45-8.48-23.38-29.47-6.42,7.64,4.85,10.32c-1.23,1.35-7.99-6.41-8.49-7.99l-7.26,8.51,22.25,29.47,7.31-7.64c.73-3.39-7.46-5.61-4.8-10.35ZM1158.93,312.32c.68-.72,2.33-1.15,2.54-1.99l-21.43-30.41-7.49,7.96c.78-.11,1.51.05,1.99.72,6.55,9.18,12.44,19.1,19.02,28.29,1.2,1,4.47-3.61,5.38-4.58ZM1148.96,321.33c.91-.94,2.89-1.28,2.55-2.89l-22.47-29.52-7.05,7.97,21.04,30.01c1.7-4.56-4.33-8.36-4.49-13l7.47,9.97c1.58-.52,2.02-1.58,2.94-2.54ZM1116.52,306.91c2.94,3.85,14.54,24.08,17.71,24.88,2.82.71,4.74-2.36,3.63-4.87l-20.82-28.99c-1.76,3.32-9.73,6.1-8,9.95,1.17,2.61,6.13,7.41,7.93,10.09,3.51,5.23,7,12.47,10.73,17.26.86,1.11,1,2.07,2.82,1.66l.93-3.86c-.99-.41-2.28-.71-2.95-1.57-5.48-6.99-9.35-16.44-13.95-24.07l1.97-.48ZM1105.39,310.03c-1.9-1.08-11.05,5.63-10.76,7.23,8.09,7.54,12.54,19.63,19.49,27.56,1,1.14,1.54,2.47,3.41,2.08.09-1.71.21-3.35-.52-4.98s-8.3-9.52-10.3-12.69c-2.75-4.35-4.56-9.36-7.18-13.8l1.99-1.52c2.35,4.04,16.81,27.52,19,28.57.84.4,5.3-2.53,4.98-4.01l-20.11-28.43ZM1085.56,325.91c1.08-1.09,4.18,2.67,4.96,3.53,6.16,6.7,10.13,16.04,16.01,23.04.92.44,7.1-3.29,4.03-5.08-3.47-2.57-19.72-28.86-21.45-28.45-1.18.28-4.47,5.42-7.43,5.08-1.26,4.03,2.46,5.33,4.29,7.97,5.16,7.44,11.05,15.69,14.59,23.92l2.9-2.38-17.9-27.61ZM1096.55,359.9l-1.59-4.91-19.4-26.65c-2.65,1.88-10.64,3.33-8.02,7.09,6.44,9.25,15.22,17.82,20.03,28.48,1.01-.22,1.91-.78,1.49-1.98-2.57-7.42-13.36-18.37-17.09-25.96l1.08-3.04c2.24.14,15.1,21.94,17.98,24.99,2.07,2.19,2.31,3.25,5.51,1.99ZM1062.29,338.19c-.55-.55-3.22-2.11-3.73-.77l17.56,30.43,3.43,1.06c.17-1.75.09-3.28-.54-4.95-1.66-4.41-10.61-15.34-13.87-20.12-1.12-1.64-1.94-4.72-2.86-5.64ZM1055.46,340.03l-3.87,1.38c8.63,8.91,13.05,20.95,21.96,29.5l-18.09-30.88ZM1063.56,375.9c1.9-1.86-15.65-24.69-17.49-27.99l-4.49-1,18.12,27.36,3.86,1.63ZM1031.58,387.89l-18.97-27.51-4.01-1.47,18.96,27.52,4.02,1.46ZM1016.59,391.9c-8.32-6.6-12.2-17.78-19.01-25.47-1.09-1.23-2.05-2.84-3.97-2.52l18.14,27.9,4.84.08ZM928.63,383.9c-1.12-2.95-3.66-6.37-5.58-8.91-2.36-3.12-5.19-6.83-8.4-9.09l9.62,13.87,4.36,4.12ZM997.6,394.9c-6.8-9.35-11.94-20.62-20.98-27.99.91,4.45,5.2,7.89,7.8,11.68s5.16,8.92,7.75,12.25c.7.91,4.3,5.16,5.43,4.06ZM933.05,374.5c-2.08-2.2-3.36-8.01-7.4-6.1,5.68,5.82,9.9,15.17,15.13,20.86.86.93,4.93,4.54,5.84,3.64l-13.57-18.4ZM962.62,395.89c-2.11-1.57-19.87-27.25-20.98-25.99.93,2.59,3.02,5.58,4.57,7.92,2.82,4.24,9.09,13.21,12.56,16.44,1.31,1.22,1.42,2.17,3.85,1.64ZM980.61,396.9l-17.58-24.9-3.4-2.09,12.59,18.89c1.37.94,6.66,9.77,8.39,8.1ZM1048.58,381.89c-2.87-1.68-6.75-12.62-9.48-11.99l-1.52,1.98c6.09,1.25,3.49,11.5,10.99,10.01Z"/>
  <path d="M1156.02,387.9c7.18-8.09,14-16.69,21.46-24.53,1.22-1.28,8.82-9.53,10.02-8.46-2.48,2.64-24.82,31.37-22.98,32.98l55.39-1,7.56,1.99c-5.72,3.54-9.88.99-15.47.94-6.77-.07-15.07.98-21.97,1.13-5.31.11-26.36-1.07-29.08.9-1.01.73-1.71,1.72-1.44,3.05,24.73-.84,49.64-1.49,74.5-1.04,2.61.05,5.06,1.02,7.91,1.09,9.5.23,19.83-1.13,29.05-.05,1.41.17,2.84.54,1.48,1.99l-115.73.24-2.2,4.77c3.04.28,6.55-.37,9.51,0,1.46.19,3.1.76,1.48,2-5.78.4-13.42-2.73-16,4.5l3,1.5c-3.46-.65-7.62.95-7.99,5,4.35.62,8.36-.4,12.58-.93,1.98-.25,1.45.23,1.41,1.93l-15.77.16-51.7,70.84c-1.49-.79.23-2.4.71-3.29,11.32-20.51,23.69-41.6,37.77-60.22l-11.98-.99c3.85-3.71,13.12,1.21,15.52-4.55.53-1.27-.63-2.81-.52-2.91.56-.54,4.72-.07,5.98-4.55l-1.99-1.48c3.23.15,5.47-2.48,6.99-5.01h-15.99c1.19-6.24,13.02-1.62,17.07-2.42,1.88-.37,2.96-2.99,3.92-4.58h-19.49c-1.82,4.9-6.37,7.44-7.49,11.99h8.5s3.48,1,3.48,1c-3.35-.59-6.36.7-9.49,1.01s-5.54-3.03-6.49,4h13.99c.09,1.48-3.59,1.77-4.62,1.88-4.05.42-8.15-.27-12.17.33l-64.16,91.79c.19-2.29,1.72-4.65,2.82-6.67,13.44-24.81,28.77-48.9,45.14-71.83-1.43-1.41-4.79,1.07-3.99-2.49,4.07.52,6.57-.14,8.97-3.5l-31.95-1.98c2.05-1.3,7.11-1.52,9.51-1.57,5.57-.13,11.34.04,16.91,0,4.9-.02,6.77,2.92,10.55-3.94-3.64-1.72-7.04.76-10.49.78-1.53.01-3.2-.84-4.96-.84-19.41-.04-45.58,2.15-64.05.08-1.5-.17-3.08-.21-3.46-2.03,13.16-.09,26.35.07,39.52.03,5.29-.02,10.63,0,15.91,0,6.28,0,24.2,1.13,28.82-.25,1.34-.4,3.11-2.45,3.7-3.79l-80.5.03-3.46-2.03c24.36-1.09,48.99-1.54,73.5-1.05,5.27.1,13.45,3.95,15.45-3.95l-73.95-1c25.39-2.52,50.89-1.99,76.43-2.04,1.85-.33,3.79-1.81,3.52-3.97-18.66-1.67-40.16,3.34-58.48,1-1.37-.18-3.09-.69-1.49-2,18.33-1.96,37.03-.76,55.52-.97,2.62-.03,5.11-1.09,7.94-1.12,5.97-.07,15.63,2.09,20.99,1.06,2.02-.39,4.68-2.71,4.51-4.97l-12.39.83-1.6-2.84h16.49Z"/>
  <path d="M411.89,388.92l-12.45,2.03c-52.78-.33-105.46-.48-157.89-.82-8.98-.06-18.08-.14-27.02-.18-10.54-.05-21.11-.53-31.53.96l.5,2c-2.08.74-1.16-1.91-2.11-2.07-2.9-.49-6.86,2.54-10.85-.94l-1.03,3.01c-7.86-4.68-14.23-1.99-22-1.94-12.97.07-28.02-2.21-39.98-2.15-3.33.02-5.15,1.96-7.99,2.16-3.1.22-6.45-1.19-10-1.15-28.61.27-57.34,1.27-85.95.08-1.35-.06-4.16.83-3.49-1.49.42-1.47,27.08-.38,30.53-.47,104.82-2.73,210.68-.09,314.76-.09,18.23,0,36.22-.3,54.06.01,3.92.07,8.19,1.87,12.44,1.05Z"/>
  <path d="M1263.48,279.9c7.25-15,16.2-29.14,23.15-44.32,13.23-28.91,23.61-62.43,26.8-94.19,1.45-14.45.81-28.11-.49-42.48,2.05,4.02,3.6,10.32,4.25,14.75,9.11,61.55-17.03,118.9-53.71,166.25Z"/>
  <path d="M821.68,308.9c-1.8-.37-1.87-1.97-2.03-3.46-4.29-40.15,3.82-82.42,21.68-118.39,8.4-16.92,19.23-33.73,31.32-48.15l-18.84,34.64c-19.07,42.36-33.4,88.28-32.14,135.36Z"/>
  <path d="M1533.33,388.92l-13.45,2.03c-52.5-.16-104.8-.72-156.85-.94-12.39-.05-48.76-2.36-57.87.93-.96.35-1.15,4.99-3.35-.08-4.4.53-6.8,1.56-10.83-.96-1.91.77-.39,2.93-.52,3-2.56,1.32-3.05-1.66-3.78-1.95-5.35-2.15-25.58.06-32.66,0-2.33-.02-24.6.23-24.54-2.54,37.34-2.32,75.02-1.68,112.51-1.53,35.17.14,70.93,1.51,106.32,1.69,24.04.13,48.69-1.2,72.53-.75,3.89.07,8.23,1.96,12.49,1.09Z"/>
  <path d="M1669.26,394.91c-.59,2.23-2.69,1.9-4.44,2.04-23.98,1.91-49.21-1.13-73.06-1.1-50.4.07-108.15,4.97-157.85.02-1.32-.13-4.22.94-3.53-1.46l238.88.5Z"/>
  <path d="M546.82,394.91l-1.48,2-236.4-1.01,4.44-2.04c77.83.23,155.74-.51,233.43,1.06Z"/>
  <path d="M854.67,395.89l-232.86.51c1.2-1.84,2.66-1.39,4.43-1.54,35.65-3.09,79.32.41,116.03.09,16.47-.15,33.34-.8,49.97-.99,19.52-.23,39.63-2.38,59.28.17,1.39.18,2.75-.22,3.15,1.77Z"/>
  <path d="M1336.43,178.4c-2.2,22.82-16.5,53.64-29.76,72.23-.32.45-1.6,3.15-2.24,1.76,8.23-15.48,13.5-32.21,19.27-48.72l12.73-54.77c-.67,9.51.9,20.13,0,29.5Z"/>
  <path d="M798.69,400.9c1.18,1.59.03,1.81-1.47,2-3.67.47-8.13-.23-12,0-37.3,2.31-76.81,1.87-113.96.98-1.85-.04-3.59,1.24-5.48,1.01-.48-2.88.63-1.65,2.31-2.13,21-5.99,74.53-1.14,99.14-1.36,4.63-.04,12.64-1.58,17.93-1.56,4.67.02,9.03.61,13.54,1.05Z"/>
  <path d="M151.02,394.91c.76,2.68-2.21,2.33-3.85,2.39-15.73.56-31.88-.42-47.62-1.19l-99.45.29,9.5-2.49c43.74.98,87.9-.03,131.93.2,2.8.01,6.3,1.56,9.49.8Z"/>
  <path d="M730.73,388.91l-1.52,2.02-17.18-.75c-39.46,1.09-81.11,2.06-120.84.83-2.67-.08-10.54,2.3-11.39-1.6l150.93-.5Z"/>
  <path d="M801.69,279.9c-1.74.24-.94-2.27-.99-3.48-1.12-28.88,4.16-60.69,20.98-84.51-9.8,28.53-16.33,58.01-19.99,87.99Z"/>
  <path d="M1764.21,403.9l-119.94-1.48c4.09-.15,8.43-1.35,12.46-1.55,31.53-1.61,68.15-.6,99.82.67,2.59.1,7.48-2.68,7.66,2.37Z"/>
  <path d="M640.66,401.01l.62,2.9-118.44-.51,11.46-2.53c29.31.63,58.84-.66,88.03-.02,6.15.13,11.76,2.1,18.33.17Z"/>
  <path d="M870.66,382.91c1.62,1.23-.02,1.81-1.48,2-12.98,1.66-28.58-1.72-41.83.62-34.09.77-68.98.36-103.12-.06-8.36-.1-17.71,1.41-26.02.47-1.5-.17-3.08-.21-3.46-2.03l175.91-1Z"/>
  <path d="M1392.4,394.92l-9.45,2.03-107.49-.55c-.66-2.32,2.15-1.44,3.49-1.49,33.24-1.32,67.63-.78,101-.96,4.54-.02,7.5-2.21,12.45.97Z"/>
  <path d="M269.97,393.91c2.61,2.13-6.49,2.97-7.46,3.03l-108.48-.05,1.48-2,114.46-.99Z"/>
  <path d="M843.67,572.9c-2.05,2.05-8.26-6.54-9.4-8.08-6.87-9.34-12.23-21.61-10.64-33.46.3-2.2.8-3.1,2.56-4.44.96,6.94,2.16,13.71,4.73,20.26,3.52,8.96,10.61,16.44,12.75,25.73Z"/>
  <path d="M865.66,570.9c-2.48.71-3.03-3.01-3.75-4.74-5.23-12.68-7.84-27.63-9.24-41.25,2.29-.36,3.12,1.98,3.88,3.6,5.98,12.72,8.56,28.43,9.1,42.39Z"/>
  <path d="M1801.19,407.91c.79,2.92-3.47,2.91-5.45,3.04-24.04,1.59-49.77-1.63-73.97-.11l-8.53-.95c1.53-3.91,5.42-.98,7.61-1.08,20.28-.93,40.48-.39,60.82-.95,6.49-.18,13.04.21,19.53.05Z"/>
  <path d="M837.68,515.4c.06-.41.98-2.86,1.99-2.49,2.31,7.55,2.52,15.53,4.31,23.2,1.86,7.96,5.81,15.28,6.71,23.29l-1.99.5c-.29-2.23-2.15-3.5-3.22-5.3-1.82-3.05-7.8-17.44-7.8-20.19,0-5.66-.73-13.75,0-19Z"/>
  <path d="M1686.25,383.91c-2.44,3.17-10.72,2.25-14.54,2.03-11.73-.68-21.93.51-33.93.4-17.72-.16-35.67-3-53.48-.95-.69-2.36,2.18-1.38,3.51-1.48,26.8-1.99,58.13-1.43,84.91.03,4.48.24,9.06-.27,13.53-.03Z"/>
  <path d="M563.82,383.91c1.66,1.26-.1,1.81-1.47,1.99-5.75.76-12.98-1.13-19-1.08-8.93.07-18.9,1.61-28,1.52-17.37-.16-35.14-3.41-52.47-.45.38-1.81,1.96-1.87,3.46-2.03,13.98-1.54,28.93-1.01,43.06-1,13.73,0,28.24.16,41.95,1.03,4.14.26,8.35-.17,12.48.02Z"/>
  <path d="M928.63,406.91l-1.48,2c-19.67-.28-39.37.36-59.03.04-2.65-.04-5.09-1.09-7.95-1.13-3.92-.05-10.65,3.53-13.5-.9h81.95Z"/>
  <path d="M1905.14,427.91c.23,1.75-2.27.94-3.48.99-21.9.9-44.09.2-65.96,1.06l-3.52-2.55,34.39-1.41,38.58,1.91Z"/>
  <path d="M1626.28,414.92c-.56,2.4-1.7,1.22-2.8,1.31-14.28,1.04-27.7.03-41.78-.22-4.87-.09-11.52,2.87-16.39-.6.09-3.06,56.39-1.33,60.98-.49Z"/>
  <path d="M1562.32,400.9l-2.51,3c-11.97-.66-24,.16-36.01.04-1.76-.02-3.36-.8-4.96-.84-3.55-.09-9.11,2.75-12.49-.71,1.07-.23,4.03-1.49,4.49-1.49h51.47Z"/>
  <path d="M503.85,414.92v1.98s-59.96,0-59.96,0c-.5-3.09.79-1.59,2.49-1.96,13.9-3.02,33.72-.6,48.02,0,3.14.13,6-2,9.45-.03Z"/>
  <path d="M1225.49,400.9c-.37,1.83-1.96,1.87-3.46,2.04-13.6,1.54-33.32,1.73-47.06,1.01-2.13-.11-7.17.2-6.45-3.05h56.97Z"/>
  <path d="M104.05,400.9c1.62,1.23-.02,1.81-1.48,2-3.67.47-8.13-.23-12,0-2.26.14-4.37.95-6.96,1.04-4.74.17-35.02.43-36.53-1.06-.07-.64,1.33-1.99,1.5-1.99h55.47Z"/>
  <path d="M439.88,400.91c-.07,4.61-3.2,1.87-5.38,2.09-13.42,1.39-24.87.11-38.05-.14-3.1-.06-10.08,3.69-11.55-1.45l54.98-.5Z"/>
  <path d="M437.38,382.9l7.49,1.99c-6.92,2.51-13.92.08-20.44-.03-13.99-.24-32.66,1.68-45.87-.54-1.07-.18-2.36,1.63-1.65-1.42h60.47Z"/>
  <path d="M755.72,407.91c.5.4,1.13,1.8-1.08,1.6-3.3-.31-10.52,1.32-14.36,1.44-2.05.07-6.26.37-7.88-.05-.81-.21-.56-2.05-1.17-2.04-1.32.04-2.8,1.93-5.95,2.14-3.74.25-8.96-.65-12.86-.72-5.61-.11-11.81.83-17.67-.88,0-2.42,44.54-1.45,48.34-1.34,4.19.12,7.94,1.36,12.64-.15Z"/>
  <path d="M1565.31,383.91c-1.33,2.66-6.93,2.13-9.54,2.04-17.41-.59-35.6.22-52.93-1.04-.98-.07-4.52-.67-4.5-1.51l66.97.51Z"/>
  <path d="M1138.53,387.9c-.37,1.83-1.96,1.87-3.46,2.04-11.68,1.32-28.73.83-40.97,1.02-5.17.08-10.37-.16-15.53-.07.28-1.51,7.62-2.99,8.49-2.99h51.47Z"/>
  <path d="M1831.18,426.9c-1.91,6.84-4.17.95-4.5.96-1.39.07-2.75,1.89-5.93,2.12-8.75.64-23.32.56-32.03-.1-2.49-.19-4.91-1.39-7.51-1,.48-2.07,1.86-1.71,3.38-1.87.54-.06,3.32-.12,4.12-.12h42.48Z"/>
  <path d="M602.8,416.9h-56.47c-.17,0-1.57-1.35-1.5-1.99,6.15-.24,12.38.28,18.53.03,11.9-.48,23.97-1.44,35.98-.08,1.5.17,3.09.21,3.46,2.04Z"/>
  <path d="M1593.3,407.9l-8.5,1.8c-15.29-.49-30.66.79-45.93.16-4.15-.17-9.1.55-13.05.04-1.82-.23-1.61.34-1.48-2h68.97Z"/>
  <path d="M708.74,426.91c-1.39,6.65-4.18.41-6.49.98-.46.11,0,1.87-1.93,2.1-4.31.52-9.49-.76-13.89-.68-8.87.16-17.87,1.63-26.67-.41l1.51-2.02,47.46.03Z"/>
  <path d="M39.59,400.9c1.29.13,3.45,1.78,5.5,1v2H.11v-3c12.65.95,27.05-1.27,39.48,0Z"/>
  <path d="M471.87,407.9c.22,1.76-2.26.95-3.49,1-13.99.58-28.06.42-42.01,2.08-7.14-2.04-15.07-.19-21.99-1.08-1.82-.23-1.61.34-1.48-2h68.97Z"/>
  <path d="M1368.41,408.89c-3.25,1.26-6.2-.16-9.51-.07-6.7.19-13.25.51-19.98,1.17l-25.5-1.59c-.04-1.01,4.35-1.48,5.46-1.54,13.88-.81,28.16.32,41.91.95,2.18.1,6.08-2.83,7.6,1.08Z"/>
  <path d="M1724.24,416.89c-13.14-.33-26.38.47-39.52.05-2.59-.08-5.12-.94-7.92-1.1-3.29-.19-8.13,2.14-9.53-.93,12.54.83,25.01-1.32,37.52-1.05,2.12.05,3.98.89,5.97,1.03,4.16.29,10.96-1.56,13.48,2Z"/>
  <polygon points="678.77 407.91 678.75 410.91 628.79 409.4 678.77 407.91"/>
  <path d="M246.98,408.89c-5.15-.17-10.54.99-15.49,1.1-5.95.13-13.93-.89-20-1.07-6.5-.2-13.06.07-19.49-.51-.01-.8,5.31-1.46,6.47-1.54,13.55-.92,27.6.36,41.02,1.05,2.42.12,6.01-2.85,7.5.98Z"/>
  <path d="M1488.36,382.91c.13,2.33.34,1.77-1.49,2-2.84.36-8.2.58-11.18.62-11.66.15-27.36.23-38.82-.62-.98-.07-4.52-.68-4.5-1.51l55.99-.5Z"/>
  <path d="M367.92,382.91c-.59,2.23-2.69,1.9-4.44,2.04-12.58,1-30.12.38-42.92-.23-3.02-.15-6.91-.09-9.62-1.32l56.98-.49Z"/>
  <path d="M903.65,388.92c1.48,1.4-.1,1.82-1.48,1.99-13.66,1.74-30.64-1.41-44.51-1.5,0-2.31,42.36-1.84,45.99-.49Z"/>
  <path d="M701.75,414.92l-8.46,2.05-48.5-.06c-1.62-1.23.02-1.81,1.48-2,12.01-1.53,26.66,1.22,38.96-.72l16.52.74Z"/>
  <path d="M578.81,388.91c-.68,2.2-4.54,1.89-6.43,1.99-15.91.81-32.55-.9-48.54,0l1.47-2,53.49.02Z"/>
  <path d="M1670.26,410.9l-33.31-.37-14.66-2.61c12.53-.27,25.06-.03,37.48.78,2.83.18,8.1-1.94,10.49,2.2Z"/>
  <path d="M1700.24,388.91c.88,3.51-4.91.77-6.42,2l-48.54-.02c1.63-2.8,8.28-2.37,11.49-2.43,14.39-.28,29.04,1.11,43.47.44Z"/>
  <path d="M547.83,408.91c.59,4.12-7.65,1.28-10.07,1.33-3.43.07-6.71.89-10.48.71-8.93-.42-17.38-2.49-26.43-2.05.55-2.22,1.44-1.36,2.75-1.34,14.75.14,29.56.48,44.23,1.36Z"/>
  <path d="M801.7,408.89c-1.4-1.46.09-1.81,1.48-1.99,6.49-.82,15.19.21,22.05.04,2.25-.06,16.43-2.91,16.43.46-1.2,1.82-2.64,1.41-4.43,1.54-9.06.68-22.96,1.01-32.07.76-1.23-.03-2.27-.67-3.46-.82Z"/>
  <path d="M1249.47,406.91l-1.48,2c-5.03-.98-10.42,1-15.01,1.08-2.33.04-4.58-1.13-6.97-1.14-6.83-.03-13.63.87-20.52.05l1.5-2.02,42.47.03Z"/>
  <path d="M590.81,408.92c8.58-.96,17.57-.98,26.52-1.06,1.54,1.35,10.44-.4,10.44,1.55,0,2.46-8.85.25-10.42,1.53-7.05-.72-15.22.5-22.08.04-1.75-.12-3.88.13-4.45-2.06Z"/>
  <path d="M129.04,406.91c.41,2.79-.48,1.87-2.48,2-9.05.58-21.16,1.16-30,1.08-3.84-.03-8.25-1.99-12.49-1.09-1.62-1.24.02-1.81,1.48-2,13.66-1.74,29.69,1.83,43.49,0Z"/>
  <path d="M1723.24,395.91c-.38,1.82-1.96,1.86-3.46,2.02-11.45,1.29-28.97-.56-41.03-1.03-1.35-.05-4.16.83-3.49-1.49s43.6,2.1,47.98.5Z"/>
  <path d="M600.8,395.92c0,1.69-3.32,1.9-4.49,2-12.6,1.01-26.11-1-38.93-1-1.34,0-4.23.82-3.56-1.49s42.03,1.84,46.98.5Z"/>
  <path d="M656.77,421.91c-.52,1.81-4.93,1.92-6.45,2.03-5.95.42-11.89-.95-17.14-.94-4.83,0-10.37,2.51-15.38.89,3.17-4.97,8.51-1.88,12.5-1.9,5.05-.02,12.26-1.19,17.1-1,3.02.12,6.12,1.55,9.38.92Z"/>
  <path d="M589.81,407.9c1.62,1.23-.01,1.81-1.48,2-3.71.47-8.2-.27-12.05-.04-6.67.4-13.51,1.83-20.44,1.04l1.23-2.25c.5-.13.98-.4,1.5-.48,2.47-.38,5.28-.26,7.76-.26h23.49Z"/>
  <path d="M1711.23,410.9c-10.89-2.58-21.99,1.04-32.92-.38-1.73-.22-2.91.21-1.05-1.6,9.25-.58,21.37-2.12,30.54-1.06,2.04.24,3.72.45,3.44,3.05Z"/>
  <path d="M1765.21,414.9c-.37,1.83-1.96,1.87-3.46,2.04-7.14.81-26.83,1.06-34.02-.06-1.74-.27-1.68.54-1.5-1.98h38.98Z"/>
  <path d="M643.78,414.9c-.37,1.83-1.96,1.87-3.46,2.04-9.28,1.05-19.96-.13-28.99-.55-2.19-.1-5.07,1.06-7.53.5-.07-.64,1.33-1.99,1.5-1.99h38.48Z"/>
  <path d="M1931.63,420.9c3.4.09,7.2-.05,10.54.43,1.21.17,2.52-.59,2.95,1.56h-35.98c-.07-.64,1.33-1.99,1.5-1.99,6.98,0,14.01-.18,20.99,0Z"/>
  <path d="M617.79,429.9c-.72-2.39,1.82-2.72,3.63-2.91,3.4-.35,7.42,1.04,10.86,1,4.4-.05,8.87-1.89,13.49-1.08l-1,2.99h-26.99Z"/>
  <path d="M1427.39,395.9h-33.98v-2h32.48c.17,0,1.58,1.35,1.5,2Z"/>
  <path d="M942.63,571.9l8.48-12.01,7.5-5.99c1.09,1.31-8.86,13.37-10.47,15.01s-2.74,3.48-5.5,2.98Z"/>
  <path d="M305.95,395.9h-33.98c-.08-.65,1.32-2,1.5-2h30.98c.17,0,1.58,1.35,1.5,2Z"/>
  <path d="M1078.06,427.9c1.47.03,7.33-1.56,6.49,1.99-9.71-.69-20.95,1.24-30.5,0-1.82-.23-1.62.34-1.48-2h25.49Z"/>
  <path d="M59.07,433.92c-2.15,3.33-7.94,1.09-10.5,1.19-7.05.27-14.3,1.45-21.48.79l1.47-2,30.51.02Z"/>
  <path d="M1765.71,427.9c.45,0,.78-1.93,2.01,0,.96.65-.31,1.44-.98,1.68-5.99,2.13-19.68-1.14-26.51.31.28-5.39,4.82-2,6.49-2,6.33,0,12.67-.11,18.99,0Z"/>
  <path d="M1760.72,423.9c-1.57-.04-3.99,1.79-5.5-1.99,3.39-1.63,6.11.13,9.49.08,4.48-.06,5.6-1.53,11.07-.11,1.66.43,2.91-1.03,2.43,2.02-5.81-.1-11.67.14-17.49,0Z"/>
  <path d="M522.85,422.89c-.08-1.47,3.7-1.55,4.82-1.68,1.82-.21,5.67-.25,7.69-.29,2.59-.04,15.33-.62,15.45,1.47s-8.17-.46-9.65,1.13l-18.31-.64Z"/>
  <path d="M1824.18,414.91l-9.45,2.03-16.53-1.05c1.18-3.6,4.93-.33,6.47-.42.81-.05,1.76-1.29,2.84-1.32,5.38-.14,11.25.59,16.68.76Z"/>
  <path d="M1645.28,422.89c-.11-1.43,3.75-1.86,4.65-1.92,3.06-.19,7.61.44,10.89.43,2.81-.01,8.29-2.45,11.42,1l-8.83.94-18.13-.45Z"/>
  <path d="M1964.61,420.9c.37.09,1.78,1.71,1.5,1.99-6.41,1.67-12.55,1.1-18.99,0-.33-.26,1.27-1.99,1.5-1.99,3.88,0,13.02-.76,15.99,0Z"/>
  <path d="M723.74,422.9h-22.49c-.17,0-1.57-1.35-1.5-1.99,6.5.75,14.22-1.2,20.46-.01,1.47.28,3.13.02,3.52,2Z"/>
  <path d="M1887.15,413.9c.66,3.88-2.7.98-4.55,1.1-1.4.09-2.98,1.7-5.88,1.98-3.6.34-7.08-.51-10.56-1.08.19-1.78,4.34-1.99,5.5-1.99h15.49Z"/>
  <path d="M1178.51,407.9c-.79,3.02-2.97,1.04-4.51,1.2-.97.1-1.77.8-1.98.8h-18.49v-2h24.99Z"/>
  <rect x="1822.19" y="420.9" width="22.99" height="2"/>
  <path d="M57.08,407.9c1.47,1.07-4.71,2-5.5,2h-16.99c-.17,0-1.57-1.35-1.5-2h23.99Z"/>
  <path d="M1790.2,414.9v2c-2.05-1.76-3.71,0-4.5,0h-18.49v-2h22.99Z"/>
  <path d="M1527.34,415.89c1.74-2.83,7.44-.36,10.5-2.08l15.47,1.59c-.02,1.04-6.68,1.51-7.47,1.49-5.74-.17-12.35-1.89-18.49-1Z"/>
  <path d="M463.37,425.9c.76.05,1.4.61,2.49,0v2s-22.98,0-22.98,0v-.99c1.24.38,2.9-1.01,3.5-1.01,5.51,0,11.59-.38,16.99,0Z"/>
  <path d="M1233.48,419.91c.1,1.88.48,2.07-1.52,2.02-4.21-.12-8.03-.3-12.33-.44-3.01-.1-6.7,1.77-9.12-1.08l22.98-.49Z"/>
  <path d="M1587.3,425.9v2h-21.99v-.99c1.24.38,2.9-1.01,3.5-1.01h18.49Z"/>
  <path d="M19.1,420.9v2H1.6c-.21,0-1.14,1.5-1.49,1v-3s18.98,0,18.98,0Z"/>
  <path d="M59.08,421.9c.83-1.96,5.73-1.71,7.64-1.82,4.23-.25,8.57.03,12.84-.13,2.03-.08,1.56-.03,1.51,1.96h-21.99Z"/>
  <path d="M808.69,421.92c.27,1.42-1.57,1.38-2.51,1.44-2.75.19-20.49.99-20.48-.95,7.56-1.88,15.26.03,22.99-.49Z"/>
  <path d="M405.9,415.9c.55-2.41,1.69-1.24,2.8-1.32,2.56-.19,5.55-.76,7.69-.77,2.31-.01,4.58,1.04,7,1.18,2.95.17,6.38-2.38,7.49.9h-6.5s-18.49,0-18.49,0Z"/>
  <path d="M1921.14,414.9c3.13,2.37-5.5,2.09-6.55,2.05-4.69-.18-9.66-1.18-14.44-1.06,1.21-3.62,3.59-.99,4.5-.99h16.49Z"/>
  <path d="M722.74,427.92c-.96,3.4-12.97,2.37-12.97.49,3.3-3.01,9.1-1.37,12.97-.49Z"/>
  <path d="M1943.62,414.9c.41.06,2.86.98,2.49,1.99-4.31-.81-8.32,0-12.44.06-2.07.03-7.52,1.11-6.55-2.05,5.18.51,11.48-.7,16.49,0Z"/>
  <path d="M1180.51,421.9c.57-1.42,5.27-1.51,6.82-1.66,4.52-.45,9.71-.67,14.18.17.72,2.1-4.3,1.49-5.5,1.49h-15.49Z"/>
  <path d="M858.67,414.92l-9.59,1.89-7.4-.9c-1.68-1.26.13-1.81,1.48-2,4.41-.59,10.91.77,15.51,1.01Z"/>
  <path d="M37.09,414.9l-8.55,2.02c-2.02-.04-3.94-.65-5.95-.7-2.24-.06-7.35,2.35-6.5-1.32h20.99Z"/>
  <path d="M799.7,414.9c0,2.14.58,1.95-1.41,1.82-4.02-.27-8.66.71-13.11.19-1.85-.21-1.6.28-1.48-2.01h15.99Z"/>
  <rect x="1881.16" y="420.9" width="15.99" height="2"/>
  <path d="M1160.52,421.9c3.51-4.21,11.42.02,16.48-2.04l1.52,2.04h-17.99Z"/>
  <path d="M791.7,685.92c.53.53.69,2.16-1.29,1.79-3.73-.68-8.46-2.39-11.73-4.32-1.29-.76-2.52.18-1.96-2.49l14.98,5.01Z"/>
  <path d="M778.71,407.9l-1.46,2.68c-4.13-2.03-10.83,1.46-13.54-2.68h14.99Z"/>
  <path d="M18.1,428.9H.11c.45-1.32,5.34-1.77,6.62-1.88,3.11-.26,9.61-1.34,11.37,1.88Z"/>
  <path d="M1754.22,421.91c-2.22,3.31-11.07,2.74-13.99.49,4.54-2.36,9.19-.09,13.99-.49Z"/>
  <path d="M1780.21,427.92c-1.96,3.64-7.64,1.45-10.99,1.98.5-5.46,7.63-2.21,10.99-1.98Z"/>
  <path d="M1769.21,383.92c.07,1.49-3.66,1.8-4.67,1.88-3.94.34-8.35-.92-12.31-.9-.31-1.28,1.85-1.64,2.63-1.66,4.32-.07,9.71,1.41,14.35.68Z"/>
  <path d="M98.06,421.9h-14.99c.07-2-.68-1.95,1.26-1.72,4.52.54,10.85-2.29,13.73,1.72Z"/>
  <path d="M657.77,427.91c-1.96,3.64-7.64,1.45-10.99,1.98.2-5.12,7.85-1.96,10.99-1.98Z"/>
  <path d="M626.79,383.9v2c-.49.43-5.26-1-6.5-1h-15.49v-1h21.99Z"/>
  <path d="M13.09,414.91c1.66,1.26-.1,1.81-1.47,1.99-3.64.48-7.97.04-11.51-1.01,2.48-3.51,9.05.19,12.98-.98Z"/>
  <path d="M1749.22,383.9c-1.32,3.88-4.35,1-5.5,1h-16.49v-1h21.99Z"/>
  <path d="M804.7,439.9l-9.77,1.74c-2.63-1.84-9.95,2.23-9.22-1.74h18.99Z"/>
  <path d="M73.07,433.91c-2.46,3.86-9.1,1.29-12.99,1.98-1.62-1.23.02-1.81,1.48-2,3.57-.46,7.84.32,11.51.01Z"/>
  <path d="M779.71,420.9c.26,1.32-1.84,1.61-2.74,1.75-2.94.46-9.59,1.45-11.25-1.75h13.99Z"/>
  <path d="M756.72,426.91c.1,1.96.47,2.03-1.53,2.01-3.81-.04-7.6-.45-11.45-.02-1.63-1.23.02-1.81,1.48-2,3.57-.46,7.84.33,11.51,0Z"/>
  <path d="M1268.47,408.9c-3.14-2.37,5.51-2.08,6.54-2.05,1.82.06,6.68.05,7.45,2.05h-13.99Z"/>
  <path d="M161.02,407.92l-10.52,1.02-3.46-2.03c4.7.09,9.48-.6,13.99,1Z"/>
  <path d="M646.77,383.92c-.09,1.55-4.35,1.64-5.53,1.71-3.67.23-7.72-.98-11.45-.73-.21-1.46,2.57-1.83,3.46-1.82,4.07.06,9.07,1.64,13.52.84Z"/>
  <path d="M1121.96,266.32c-37.62,33.86-89.52,65.64-140.14,74.29-77.31,13.21-111.2-34.14-89.66-106.7,25.4-85.56,121.3-174.37,205.18-201.72,89.99-29.34,147.83,9.96,115.19,106.25-16.91,49.88-51.96,93.13-90.57,127.88ZM1147.52,33.91c-3.68,1.38-7.78.31-11.36,2.12-2.82,1.43-11.18,10.78-14.89,13.89-.62.52-.79,1.19-.75,1.96l-1.97-1.46,12.97-15.52c-3.51,1.84-8.63,1.58-11.92,3.57-2.71,1.63-6.45,8.24-9.03,10.96-4.59,4.82-9.73,8.89-14.52,13.47-1.48-.77.22-2.41.71-3.29,4.08-7.3,13.21-14.24,18.78-20.7-10.56,1.59-17.25,6.64-23.5,14.98-2.69.83-.21-3.54.1-3.91,1.5-1.82,4.56-2.5,5.41-5.07-6.57,2.81-15.31,5.22-21.03,9.44-3.79,2.8-6.6,7.84-9.91,11.08-6.73,6.59-13.94,12.73-20.54,19.46-4.13,1.77,2.36-6.26,3-7.01,5.9-6.89,14.72-15.59,22.5-20l-.48-1.97c-10.89,4.99-21.47,11.54-30.51,19.48-4.96,4.35-24.2,26.47-27.49,27.5-.51.16-1.63.27-1.47-.48,5.8-9.22,14.35-16.34,21.98-24.01-.21-1.1-1.41-.42-2.1-.1-5.96,2.75-22.54,16.68-28.36,21.63-27.78,23.63-51.87,51.34-72.93,81.04l-5.55,9.94c6.83-5.13,12.77-12.95,19.49-17.98.98-.73,3.31-2.95,4.48-1.52-9.66,12.36-23.21,23.03-32.39,35.59-3.5,4.78-7.25,9.71-7.57,15.91l41.96-39.51c-2.1,2.8-4.19,5.88-6.48,8.52-9.44,10.88-41.72,39.29-43.5,51.48-.09.59-.27,1.64.51,1.5l40.48-36.5c-6.38,7.54-12.74,15.3-19.47,22.52s-23.65,20.46-25.24,29.75c-.19,1.12-.86,3.56.23,4.23l45.47-46.99c-.92,4.85-5.8,9.6-9.01,13.47-12,14.44-26.57,27.23-37.74,42.24l.28,7.29,40.48-37.99c-4.05,4.43-7.49,9.54-11.48,14-4.83,5.39-26.96,26.33-28.07,30.95-.28,1.16.03,5.89,2.06,5.02l38.48-38.99c-1.62,3.62-4.6,8.39-6.98,11.5-9.08,11.84-21.07,21.82-30.79,33.13.39,1.33,1.26,7.22,3.29,6.36l33.49-31.99-11.47,15.01-20.33,21.15c-.7,1.66,1.95,5.79,4.15,4.72l35.65-33.89c.41,1.95-.43,2.69-1.44,4.05-3.95,5.32-30.28,31.91-30.57,34.49-.4,3.61,2.84,4.67,5.08,2l30.45-31.54,1.01,2.01-28.41,33.64c-.42,1.75,4.05,3.95,4.91,3.33l-.87-1.84,29.85-29.15c-1.28,3.09-3.62,7.27-5.55,9.94-5,6.91-14.16,13.9-18.48,20.52-.8,1.23-1.23,1.99-.95,3.54,2.37,0,4.64.39,6.95-.53,3.39-1.35,24.85-23.73,26.02-22.46,0,1.98-1.83,3.98-3.02,5.47-3.17,3.98-14.44,14.61-15.82,18.17-.25.64-.59,2.3.36,2.36,1.87.05,3.7.28,5.48-.52,3.45-1.55,17.33-18,21.99-22,.72-.62,4.79-3.7,5-3.49l-20.97,26.52c-.34,2.47.68,1.2,2.05,1.06,1.63-.17,4.59-.57,6.03-1.02,2.59-.81,17.85-17.74,21.88-21.07,1.02-.84,6.22-5.19,7.01-4.48-4.67,7.5-15.56,15.6-19.45,23.03-.43.81-1.23,2.58-.05,2.95,10.99-3.34,17.08-13.33,24.97-21.02,3.37-3.29,8.01-6.02,11.03-9.97,1.42,1.14-.78,3.53-1.52,4.48-5.87,7.58-13.28,15.11-19.97,22.02,4.65.84,11.33-2.1,15.01-4.98,7.1-5.73,24.71-29.48,31.48-32.51.44-.2,1.64-.26,1.48.49-9,10.01-17.26,20.92-26.31,30.81-.66.72-3.41,1.53-.19,1.68,4.37-2.98,9.71-3.83,14.01-6.99,8.11-5.94,24.15-28.92,31-31.99.44-.2,1.64-.26,1.48.49-6.91,9.97-15.69,18.29-23.49,27.49-.67.79-2.61,2.01-.99,3.01,5.63-4.89,14.8-7.11,20.54-11.45s14.92-18.3,20.43-24.56c6.38-7.24,13.13-14.21,20.01-20.98,1.31,1.31-1.32,3.79-2.1,4.9-8.93,12.66-20.27,24.38-30.38,36.09,4.08-1.6,8.18-4.25,11.91-6.57,59.06-36.71,119.77-105.53,138.51-173.42,1.45-5.24,2.45-10.67,3.49-15.99l-18.49,15.99c-1.1-2.44,3.81-5.27,5.01-7.99,2.74-2.88,12.67-10.16,13.97-13.02,1.51-3.32,0-9.25.51-12.98l-16.5,16.99c-1.29.37-1.97-.2-1.47-1.47.58-1.49,8.66-10.64,10.44-12.56,5.96-6.46,9.08-3.7,6.52-14.46-1.03-4.33-2.29.34-3.42,1.52-3.28,3.44-7.95,9.35-12.56,9.97l14.55-16.02-1.57-5.97-19.97,15.99,6.96-8.53,11.59-10.47-2.58-7c-1.09-.98-9.05,6.71-9.93,8.53l-12.06,9.46,18.97-20.49-4.62-4.43-22.34,18.93,7.47-10.01c1.4-3.15,14.94-9.88,10.49-13.46-1.03-.83-3.53-1.5-4.93-1.02-3.05,1.04-18.2,18.16-20.04,16.49l16.99-20.99c-2.7.49-5.43-1.32-8.01-.61-3.04.84-11.61,12.57-13.97,10.6l10.99-11.5c-2.2-.5-6.31-2.81-8.28-2.34s-14.98,13.61-15.69,12.85l10.98-13.5c-13.46-4.05-18.69,12.4-28.97,17.5l8.59-11.89c1.72-1.92,5.56-2.9,5.39-6.1Z"/>
  <path d="M1109.55,101.9l19.48-13.98c1.29,1.04,1.83,1.54,1.35,3.31-.41,1.5-19.2,18-22.35,21.66-2.39,2.77-4.42,6-6.48,9,17.21-3.64,29.14-10.67,39.49-24.98,2.35-.51,1.65,2.02,1.28,3.28-.92,3.16-4.25,4.27-3.78,7.71,9.05-5.48,14.26-1.64,4.04,4.55-16.4,9.93-41.09,13.62-54.03,28.23-3.97,4.47-6.55,10.35-9.99,15.21.87.73,15.6-7.49,17.99-8.49,7.28-3.03,15.66-4.64,22.66-8.33,9.58-5.05,18.72-14.35,28.85-19.14l2.46-.02-1.99,3.5-12,8.48,17.98-3.49c-8.64,5.86-20.54,6.91-27.98,14.49l24.98,1.01c.9,4.94-6.76,6.45-10.6,6.89-16.52,1.9-24.22-2-41.62,4.36-14.12,5.16-26.14,14.2-35.73,25.74,8.11-3.3,16.32-5.87,24.95-7.53,7.1-1.36,15.5-1.42,22.09-2.9,5.48-1.24,26.84-15.33,29.92-11.55-4.13,6.5-12.27,8.37-17.99,12.98l22.44-3c2.45,2.71-3.42,5.16-5.76,6.21-11.85,5.34-26.89,4.77-39.67,5.81,1.52,2.49,3.9,4.55,6.27,6.22s16.59,7.14,14.72,9.76c-5.37,2.04-13.58-.49-18.68-2.8-4.1-1.86-6.8-5.37-11.49-6.5-22.39-5.42-38.9,14.63-49.6,31-3.5,5.35-16.29,26.89-17.14,31.88-1.73,10.21,14.69,16.83,17.95,25.42-12.16,2.37-20.66-5.17-31.01-8.47-14.08-4.49-29.84-6.98-43.96-11.01-6.61-1.89-12.74-4.75-18.97-7.53.32-1.52,4.35-2.77,5.55-2.93,16.95-2.18,26.29,4.31,41.92-8.06,7.69-6.09,34.38-39.55,35.5-48.48.69-5.48.18-12.04-4.02-16.02-4.54-4.31-10.81-1.9-16.48-2.52-23.58-2.55-14.3-10.07,3.48-7.99-6.36-5.26-13.77-12-8.77-21.26,3.68-6.84,4.63,3.86,5.58,5.96,3.63,8.05,10.58,8.6,17.09,12.9l12.08,10.41c.43-8.49,2.77-18.6-.78-26.7-3.14-7.15-13.82-10.56-19.22-15.78-1.08-1.04-2.34-1.75-1.98-3.51l10.99,1.98c-1.19-2.7-2.15-6.66.5-8.97,2.97,6.28,5.32,13.35,12.49,15.97.26-1.46-.89-3.05-.71-4.36.37-2.7,2.91-13.69,3.98-15.87s3.68-4.38,5.72-5.76c.84,6.59-2.87,13.06-3.05,19.49-.23,8.04,3.84,17.81,4.11,25.98.23,7.02-2.61,13.61-2.55,20.52,9.27-10.13,21.23-25.23,21.39-39.61.14-12.86-12.4-21.39-9.42-34.43l3.32.28,8.2,17.75c1.16-5.96,2.21-13.61,4.28-19.22.96-2.58,2.41-6.81,5.72-6.77l-2.01,10.48,2,.51c1.54-3.43,5.31-7.33,8.07-10.2.81-.84,4.99-5.85,5.94-4.79-.61,11.97-16.59,17.56-16.78,28.5-.1,5.77,1.64,12.18-.2,18.5l21.64-23.84c3.06-7.12,3.31-18.15,8.89-24.1,1.76-1.87,4.51-2.8,4.45.42-.04,2-6.71,12.52-5,14.52ZM1029.17,206.49c3.81-5.46,9.94-17.03,9.01-23.6-.12-.85-1.25-4.95-2.58-4.97,3.59,12.55-6.46,23.93-12.59,33.91l-13.4,18.09c1.02,1.14,18.41-21.77,19.56-23.42ZM1003.6,239.91l-13.1,8.38-10.88,4.6c9.46.37,18.47-5.67,23.98-12.98Z"/>
  <path d="M992.6,119.91l-37.51,41.96-11.46,8.02c6.58-8.09,13.77-15.97,20.96-23.52s16.66-17.86,24.51-24.48c1.12-.94,1.63-2.42,3.5-1.99Z"/>
  <path d="M1147.53,211.91c-8.65,13.08-18.4,25.36-29.97,35.99-.3-1.65.76-2.69,1.57-3.92,5.97-8.98,17.29-22.35,25-29.99,1.04-1.03,1.43-2.57,3.4-2.08Z"/>
  <path d="M1077.56,259.9c-1.5-1.38,16.66-19.78,18.98-20.99-2.76,6.7-9.86,14.28-15.48,19-1.12.94-1.62,2.43-3.5,1.99Z"/>
  <path d="M1198.5,143.91c-4.11,6.46-9.89,11.46-15.98,15.99-.9-1.03,6.37-8.94,7.5-9.99.85-.8,7.8-6.64,8.48-6Z"/>
  <path d="M1181.51,174.91c-.53,1.71-9.35,13.66-10.99,11.99.14-2.12,2.13-4.49,3.46-6.06.53-.62,6.88-6.57,7.53-5.93Z"/>
  <path d="M1206.5,122.91l-11.98,11.99c.62-2.29,3.96-6.35,5.59-7.9,1.54-1.46,4.21-3.84,6.39-4.09Z"/>
  <path d="M972.61,278.91c-4.06,3.88-7.47,10.49-12.99,11.98,1.22-1.7,11.6-13.2,12.99-11.98Z"/>
</svg>